<?xml version="1.0" encoding="utf-8"?>
<!-- Generator: Adobe Illustrator 27.5.0, SVG Export Plug-In . SVG Version: 6.00 Build 0)  -->
<svg version="1.1" xmlns="http://www.w3.org/2000/svg" xmlns:xlink="http://www.w3.org/1999/xlink" x="0px" y="0px"
	 viewBox="0 0 500 500" style="enable-background:new 0 0 500 500;" xml:space="preserve">
<g id="BACKGROUND">
	<rect id="BACKGROUND_1_" style="fill: transparent;" width="500" height="500"/>
</g>
<g id="OBJECTS">
	<g>
		<g>
			<g>
				<path style="fill:none;stroke:#B3D2E6;stroke-width:1.4688;stroke-miterlimit:10;" d="M331.546,98.947
					c-13.855,0-25.088,10.265-25.088,22.928c0,6.324,2.802,12.05,7.332,16.198l-3.965,6.092l8.54-2.781
					c3.831,2.166,8.345,3.42,13.181,3.42c13.856,0,25.088-10.265,25.088-22.928C356.634,109.213,345.401,98.947,331.546,98.947z"/>
				<g>
					<g>
						<g>
							<path style="fill:#343096;" d="M323.934,103.37c-1.602,0.547-3.145,1.267-4.56,2.197c-0.248,0.163-0.353,0.487-0.198,0.754
								c0.144,0.247,0.504,0.362,0.754,0.198c1.338-0.879,2.783-1.57,4.297-2.086c0.281-0.096,0.467-0.378,0.385-0.678
								C324.537,103.481,324.217,103.274,323.934,103.37L323.934,103.37z"/>
						</g>
					</g>
					<g>
						<g>
							<path style="fill:#343096;" d="M353.82,121.629c-0.102-11.859-12.068-20.952-23.5-19.644c-0.696,0.08-0.704,1.182,0,1.102
								c10.827-1.239,22.301,7.236,22.398,18.542C352.724,122.338,353.826,122.339,353.82,121.629L353.82,121.629z"/>
						</g>
					</g>
					<g>
						<g>
							<path style="fill:#343096;" d="M339.139,139.063c-5.737,2.485-12.472,2.179-17.975-0.771
								c-0.625-0.335-1.182,0.616-0.556,0.951c5.883,3.153,12.97,3.421,19.087,0.771
								C340.344,139.733,339.784,138.783,339.139,139.063L339.139,139.063z"/>
						</g>
					</g>
				</g>
			</g>
			<g>
				<path style="fill:none;stroke:#B3D2E6;stroke-width:1.4688;stroke-miterlimit:10;" d="M427.303,153.519
					c-19.729,0-35.722,14.617-35.722,32.647c0,9.005,3.989,17.157,10.44,23.063l-5.646,8.674l12.16-3.96
					c5.455,3.085,11.882,4.87,18.768,4.87c19.729,0,35.722-14.617,35.722-32.647C463.025,168.136,447.031,153.519,427.303,153.519z"
					/>
				<g>
					<g>
						<g>
							<path style="fill:#343096;" d="M451.086,204.502c2.335-2.215,4.32-4.818,5.645-7.76c0.123-0.273,0.077-0.589-0.198-0.754
								c-0.234-0.14-0.632-0.073-0.754,0.198c-1.29,2.866-3.198,5.38-5.472,7.537C449.792,204.212,450.572,204.99,451.086,204.502
								L451.086,204.502z"/>
						</g>
					</g>
					<g>
						<g>
							<path style="fill:#343096;" d="M414.902,212.773c9.763,2.983,20.352,1.781,29.25-3.2c0.619-0.346,0.064-1.298-0.556-0.951
								c-8.649,4.842-18.914,5.987-28.401,3.089C414.515,211.503,414.225,212.566,414.902,212.773L414.902,212.773z"/>
						</g>
					</g>
					<g>
						<g>
							<path style="fill:#343096;" d="M402.195,171.346c3.992-5.688,10.107-9.645,16.802-11.381
								c7.787-2.02,16.045-0.996,23.456,1.945c0.659,0.261,0.945-0.803,0.293-1.062c-7.702-3.056-16.35-4.046-24.414-1.845
								c-6.84,1.867-13.002,5.967-17.088,11.788C400.836,171.371,401.791,171.922,402.195,171.346L402.195,171.346z"/>
						</g>
					</g>
				</g>
			</g>
			<g>
				<path style="fill:none;stroke:#B3D2E6;stroke-width:1.4688;stroke-miterlimit:10;" d="M216.953,90.421
					c19.729,0,35.722,14.617,35.722,32.647c0,9.005-3.989,17.157-10.44,23.063l5.646,8.674l-12.16-3.96
					c-5.455,3.085-11.882,4.87-18.768,4.87c-19.729,0-35.722-14.616-35.722-32.647C181.231,105.037,197.225,90.421,216.953,90.421z"
					/>
				<g>
					<g>
						<g>
							<path style="fill:#343096;" d="M193.949,140.624c-2.274-2.157-4.182-4.671-5.472-7.537c-0.123-0.273-0.515-0.333-0.753-0.198
								c-0.281,0.16-0.319,0.484-0.198,0.754c1.324,2.943,3.31,5.546,5.645,7.76C193.684,141.891,194.464,141.114,193.949,140.624
								L193.949,140.624z"/>
						</g>
					</g>
					<g>
						<g>
							<path style="fill:#343096;" d="M229.062,148.612c-9.487,2.899-19.751,1.754-28.401-3.089
								c-0.619-0.347-1.175,0.604-0.556,0.951c8.897,4.981,19.487,6.183,29.25,3.2C230.031,149.468,229.742,148.404,229.062,148.612
								L229.062,148.612z"/>
						</g>
					</g>
					<g>
						<g>
							<path style="fill:#343096;" d="M243.012,107.691c-4.086-5.822-10.248-9.922-17.088-11.788
								c-8.064-2.201-16.712-1.211-24.414,1.846c-0.651,0.258-0.367,1.324,0.293,1.062c7.405-2.938,15.675-3.973,23.456-1.945
								c6.697,1.746,12.807,5.689,16.802,11.381C242.465,108.823,243.42,108.273,243.012,107.691L243.012,107.691z"/>
						</g>
					</g>
				</g>
			</g>
		</g>
		<g>
			<g>
				<g>
					<path style="fill:none;stroke:#B3D2E6;stroke-linecap:round;stroke-linejoin:round;" d="M58.5,277.5
						c-0.826-0.064-1.647-0.203-2.462-0.411"/>
					<path style="fill:none;stroke:#B3D2E6;stroke-linecap:round;stroke-linejoin:round;stroke-dasharray:4.9992,4.9992;" d="
						M51.438,275.164c-10.001-5.798-18.162-21.039-19.673-32.565c-2.147-16.379,5.057-37.068,12.819-51.16
						c9.344-16.964,24.346-31.089,42.535-37.74c18.111-6.623,35.372-3.508,53.953-4.57c13.582-0.777,28.835,0.102,41.838-4.902"/>
					<path style="fill:none;stroke:#B3D2E6;stroke-linecap:round;stroke-linejoin:round;" d="M185.217,143.265
						c0.758-0.342,1.508-0.706,2.248-1.094"/>
				</g>
			</g>
			<g>
				<g>
					<path style="fill:none;stroke:#B3D2E6;stroke-linecap:round;stroke-linejoin:round;" d="M251.744,126.296
						c0.725-0.412,1.455-0.814,2.191-1.205"/>
					<path style="fill:none;stroke:#B3D2E6;stroke-linecap:round;stroke-linejoin:round;stroke-dasharray:4.6143,4.6143;" d="
						M258.068,123.037c13.256-6.149,28.068-8.936,42.652-8"/>
					<path style="fill:none;stroke:#B3D2E6;stroke-linecap:round;stroke-linejoin:round;" d="M303.024,115.216
						c0.83,0.076,1.659,0.164,2.487,0.264"/>
				</g>
			</g>
			<g>
				<g>
					<path style="fill:none;stroke:#B3D2E6;stroke-linecap:round;stroke-linejoin:round;" d="M356.991,128.124
						c0.48,0.714,0.988,1.374,1.522,1.983"/>
					<path style="fill:none;stroke:#B3D2E6;stroke-linecap:round;stroke-linejoin:round;stroke-dasharray:4.8664,4.8664;" d="
						M362.175,133.298c6.409,4.203,14.887,3.904,22.665,2.911c11.169-1.427,18.679-12.325,30.065-13.219
						c6.95-0.546,14.042,3.455,17.169,9.685c2.632,5.243,1.238,11.563-1.367,16.894"/>
					<path style="fill:none;stroke:#B3D2E6;stroke-linecap:round;stroke-linejoin:round;" d="M429.568,151.713
						c-0.424,0.738-0.866,1.448-1.317,2.124"/>
				</g>
			</g>
		</g>
	</g>
	<g>
		<g>
			<path style="fill:#B3D2E6;" d="M457.488,88c0.062-1.833-1.419-3.433-3.046-4.339c-3.396-1.891-7.57-1.867-11.351-0.967
				c-2.472,0.588-5.477,1.385-7.237-0.448c-2.77-2.886,1.096-8.593-1.748-11.406c-1.489-1.473-4.063-1.113-5.788,0.075
				c-1.725,1.188-2.901,2.997-4.349,4.51c-0.924,0.967-2.168,1.877-3.482,1.627c-1.391-0.264-2.218-1.709-2.619-3.067
				c-1.045-3.538-0.47-7.318-0.409-11.006c0.061-3.688-0.585-7.745-3.369-10.166c-2.333-2.028-5.861-2.429-8.719-1.251
				c-2.858,1.178-5.013,3.785-5.945,6.733c-1.159,3.667-0.658,7.995-3.055,11.003c-2.301,2.887-6.586,3.458-10.157,2.519
				c-2.729-0.718-5.399-2.181-8.195-1.803c-4.458,0.602-6.97,5.554-7.507,10.021c-0.319,2.65-0.198,5.347,0.318,7.966H457.488z"/>
		</g>
		<g>
			<path style="fill:#B3D2E6;" d="M39.065,155c0.066,0,2.779-6.822,3.073-7.497c1.36-3.115,3.001-6.171,5.484-8.542
				c3.323-3.174,8.53-4.829,12.63-2.753c3.109,1.574,5.46,5.107,8.944,5.04c2.818-0.054,5.022-2.615,5.885-5.298
				c0.863-2.683,0.772-5.57,1.235-8.351c0.76-4.573,3.076-8.872,6.477-12.022c1.265-1.172,2.754-2.222,4.464-2.449
				c2.971-0.394,5.748,1.845,7.136,4.501c1.388,2.656,1.757,5.705,2.476,8.614c0.719,2.909,1.95,5.913,4.448,7.569
				c1.487,0.985,3.689,1.301,4.924,0.014c0.556-0.579,0.814-1.377,1.007-2.156c1.043-4.233,0.763-8.236,2.899-12.127
				c1.892-3.445,4.72-6.154,8.763-6.766c0.941-0.143,1.91-0.166,2.84,0.039c1.489,0.329,2.803,1.231,3.854,2.335
				c6.586,6.924-0.85,14.634-1.344,22.208c-0.22,3.376,1.389,7.121,4.565,8.287c2.227,0.818,4.723,0.234,6.926-0.646
				c2.203-0.88,4.321-2.06,6.658-2.471c2.337-0.411,5.054,0.148,6.395,2.105c1.068,1.557,1.012,3.717,0.135,5.389
				c-3.309,6.312-9.965,4.976-15.898,4.976c-7.697,0-15.393,0-23.09,0c-17.909,0-35.819,0-53.728,0
				C50.503,155,44.784,155,39.065,155z"/>
		</g>
		<g>
			<path style="fill:#B3D2E6;" d="M197.131,67c0.845,0,1.705-0.011,2.566,0h11.923c0.663-1.894,0.759-4.023-0.373-5.562
				c-1.256-1.708-3.685-2.278-5.729-1.717c-1.4,0.384-2.789,1.231-4.199,0.887c-0.641-0.156-1.206-0.554-1.644-1.047
				c-1.451-1.637-1.463-4.105-0.974-6.238c0.489-2.132,1.396-4.188,1.512-6.373c0.264-4.968-4.17-9.566-9.135-9.875
				c-4.965-0.309-9.766,3.366-11.172,8.137c-0.669,2.27-0.655,4.675-0.738,7.04c-0.028,0.797-0.182,1.764-0.925,2.052
				c-3.742,1.453-6.604-7.83-9.956-2.727c-1.958,2.979,1.467,7.312-1.17,10.059c-1.64,1.709-4.441,0.966-6.745,0.418
				c-3.525-0.839-7.415-0.862-10.58,0.901c-1.517,0.845-2.896,2.336-2.839,4.044c3.65,0,7.3,0,10.949,0c9.669,0,19.338,0,29.007,0
				c1.27,0,2.54,0,3.81,0C192.856,67,194.994,67,197.131,67z"/>
		</g>
	</g>
	<g>
		<path style="fill:#B3D2E6;" d="M284.894,73.507h-4.308v-4.308c0-1.494-1.212-2.706-2.706-2.706c-1.495,0-2.706,1.212-2.706,2.706
			v4.308h-4.308c-1.495,0-2.706,1.211-2.706,2.706c0,1.494,1.212,2.706,2.706,2.706h4.308v4.308c0,1.494,1.211,2.706,2.706,2.706
			c1.495,0,2.706-1.212,2.706-2.706v-4.308h4.308c1.494,0,2.706-1.212,2.706-2.706C287.6,74.718,286.388,73.507,284.894,73.507z"/>
		<g>
			<g>
				<path style="fill:none;stroke:#B3D2E6;stroke-miterlimit:10;" d="M94.478,202.859h-4.772v-4.772
					c0-1.656-1.342-2.998-2.998-2.998c-1.656,0-2.998,1.342-2.998,2.998v4.772h-4.772c-1.656,0-2.998,1.342-2.998,2.998
					c0,1.656,1.342,2.998,2.998,2.998h4.772v4.772c0,1.656,1.342,2.998,2.998,2.998c1.656,0,2.998-1.342,2.998-2.998v-4.772h4.772
					c1.656,0,2.998-1.342,2.998-2.998C97.475,204.201,96.133,202.859,94.478,202.859z"/>
				<path style="fill:#B3D2E6;" d="M55.636,360.591h-5.215v-5.215c0-1.809-1.467-3.276-3.276-3.276
					c-1.809,0-3.276,1.467-3.276,3.276v5.215h-5.215c-1.809,0-3.276,1.467-3.276,3.276c0,1.809,1.467,3.276,3.276,3.276h5.215v5.215
					c0,1.809,1.467,3.276,3.276,3.276c1.809,0,3.276-1.467,3.276-3.276v-5.215h5.215c1.809,0,3.276-1.467,3.276-3.276
					C58.912,362.057,57.445,360.591,55.636,360.591z"/>
			</g>
			<g>
				<path style="fill:#B3D2E6;" d="M468.711,339.939h-3.921v-3.922c0-1.361-1.103-2.463-2.463-2.463s-2.463,1.103-2.463,2.463v3.922
					h-3.922c-1.36,0-2.463,1.103-2.463,2.463c0,1.361,1.103,2.463,2.463,2.463h3.922v3.921c0,1.36,1.103,2.463,2.463,2.463
					s2.463-1.103,2.463-2.463v-3.921h3.921c1.36,0,2.463-1.103,2.463-2.463C471.174,341.042,470.072,339.939,468.711,339.939z"/>
				<path style="fill:none;stroke:#B3D2E6;stroke-width:0.75;stroke-miterlimit:10;" d="M451.233,315.853h-3.059v-3.059
					c0-1.061-0.861-1.922-1.922-1.922c-1.061,0-1.922,0.86-1.922,1.922v3.059h-3.059c-1.061,0-1.922,0.86-1.922,1.922
					c0,1.061,0.86,1.922,1.922,1.922h3.059v3.059c0,1.061,0.86,1.922,1.922,1.922c1.061,0,1.922-0.86,1.922-1.922v-3.059h3.059
					c1.061,0,1.922-0.86,1.922-1.922C453.155,316.714,452.294,315.853,451.233,315.853z"/>
			</g>
		</g>
	</g>
	<ellipse style="fill:#C9E4F5;" cx="268" cy="438" rx="197" ry="22"/>
	<g>
		<g>
			<g>
				<g>
					<path style="fill:#C9E4F5;" d="M355.161,258.612c-0.476,3.209-1.105,6.367-2.071,9.41c-3.003,9.464-8.064,15.862-15.837,22.704
						c-7.918,6.969-16.851,12.875-24.807,19.804c-8.399,7.314-16.684,16.136-22.94,25.174c-2.558-13.339-5.035-28.19-2.279-41.45
						c2.691-12.948,2.91-25.28,11.456-36.505c8.597-11.293,19.398-18.249,22.691-32.286c3.049-12.996,0.302-29.534,8.63-40.89
						c6.246-8.517,17.643-12.258,26.512-17.868c9.375-5.931,14.863-15.432,25.715-20.162c1.239-0.54,2.668-1.027,3.963-0.566
						c2.221,0.79,2.431,3.602,2.068,5.757c-0.979,5.805-3.238,11.332-4.716,17.037c-2.831,10.926,2.507,21.796-1.945,32.455
						c-4.472,10.706-16.348,17.479-21.02,28.108C356.64,238.297,356.632,248.695,355.161,258.612z"/>
				</g>
				<g>
					<path style="fill:#B3D2E6;" d="M366.065,181.967c-7.643,10.022-14.849,20.332-21.59,30.902
						c-6.741,10.57-13.02,21.398-18.82,32.446c-5.79,11.029-11.098,22.279-15.926,33.71c-4.836,11.452-9.177,23.091-13.007,34.879
						c-3.83,11.788-7.148,23.728-9.937,35.78c-0.353,1.528-0.698,3.058-1.035,4.589c-0.287,1.305,1.895,1.859,2.184,0.547
						c2.648-12.024,5.811-23.94,9.489-35.712c3.695-11.828,7.904-23.509,12.609-35.01c4.693-11.468,9.888-22.752,15.56-33.821
						c5.661-11.048,11.798-21.881,18.395-32.464c6.628-10.632,13.719-21.012,21.257-31.102c0.92-1.232,1.848-2.459,2.78-3.682
						C368.854,181.942,366.887,180.89,366.065,181.967L366.065,181.967z"/>
				</g>
			</g>
			<g>
				<g>
					<path style="fill:#B3D2E6;" d="M446.365,259.495c-1.022,2.408-2.078,4.812-3.183,7.193c-0.271,0.602-0.549,1.195-0.836,1.795
						c-2.246,4.775-4.679,9.475-7.343,14.018c-0.327,0.57-0.671,1.137-1.013,1.697c-2.601,4.311-5.432,8.465-8.537,12.397
						c-0.426,0.54-0.861,1.08-1.304,1.618c-2.498,3.036-5.177,5.938-8.047,8.653c-1.446,1.369-2.936,2.682-4.464,3.956
						c-0.602,0.502-1.203,0.996-1.82,1.487c-0.628,0.507-1.273,1.013-1.917,1.51c-3.569,2.742-7.229,5.379-10.978,7.902
						c-0.646,0.445-1.3,0.881-1.953,1.308c-4.265,2.812-8.616,5.494-13.052,8.019c-0.73,0.426-1.467,0.843-2.204,1.251
						c-4.237,2.369-8.543,4.61-12.887,6.726c-2.992,1.456-6.02,2.848-9.074,4.176c-0.88,0.391-1.768,0.772-2.663,1.144
						c-3.637,1.532-7.316,2.982-11.025,4.334c-1.518,0.554-13.125,3.744-18.807,5.578c-1.413,0.464-2.463,0.842-2.895,1.073
						c-0.137,0.069-0.213,0.129-0.218,0.171c0.691-12.68,4.588-24.971,10.275-36.375c0.511-1.028,1.038-2.046,1.573-3.054
						c1.311-2.45,2.694-4.866,4.149-7.23c1.7-2.755,3.505-5.531,5.43-8.302c0.55-0.783,1.1-1.566,1.667-2.347
						c3.659-5.101,7.697-10.147,12.055-14.999c0.706-0.79,1.429-1.586,2.167-2.363c4.817-5.166,10.003-10.055,15.503-14.486
						c0.819-0.664,1.645-1.319,2.478-1.956c3.9-2.994,7.943-5.747,12.112-8.194c0.732-0.443,1.469-0.86,2.207-1.277
						c5.219-2.894,10.629-5.318,16.188-7.123c0.697-0.224,1.393-0.44,2.087-0.648c4.336-1.284,8.756-2.189,13.251-2.665
						c0.671-0.081,1.347-0.137,2.032-0.191c7.426-0.574,15.042,0.051,22.765,2.123c0.224,0.061,0.456,0.133,0.668,0.227
						c0.195,0.092,0.37,0.208,0.503,0.379c0.29,0.37,0.312,0.896,0.288,1.374l-0.003,0.025
						C449.345,252.277,447.879,255.936,446.365,259.495z"/>
				</g>
				<path style="fill:#C9E4F5;" d="M325.253,354.261c3.065-4.933,6.302-9.722,9.725-14.406c0.278-0.38,0.576-0.754,0.857-1.144
					c6.468,1.73,12.885,3.611,19.253,5.635c0.898-0.369,1.78-0.754,2.666-1.148c-6.85-2.22-13.743-4.254-20.691-6.128
					c2.897-3.827,5.904-7.575,9.031-11.208c11.572-0.548,22.773,2.581,33.619,6.435c0.731-0.405,1.477-0.826,2.205-1.253
					c-11.013-3.953-22.351-7.299-34.104-7.151c3.445-3.915,7.003-7.727,10.689-11.422c7.766,0.874,15.251,3.217,22.64,5.685
					c4.642,1.538,9.242,3.167,13.826,4.875c0.655-0.431,1.301-0.865,1.949-1.309c-5.11-1.931-10.256-3.757-15.44-5.47
					c-6.948-2.307-13.988-4.497-21.25-5.484c3.036-2.998,6.15-5.916,9.326-8.77l0.032,0c4.449,0.467,8.775,1.538,13.073,2.725
					c4.335,1.2,8.664,2.419,12.996,3.628c4.72,1.311,9.437,2.631,14.163,3.954c0.611-0.488,1.216-0.989,1.821-1.49
					c-10.07-2.848-20.135-5.715-30.247-8.409c-3.285-0.872-6.586-1.633-9.947-2.098c4.285-3.775,8.695-7.422,13.181-10.949
					c8.708,0.531,17.138,2.891,25.519,5.118c4.667,1.25,9.324,2.497,14.007,3.732c0.438-0.537,0.875-1.074,1.304-1.615
					c-4.995-1.341-9.984-2.67-14.985-3.993c-7.772-2.06-15.568-4.235-23.588-4.985c5.427-4.176,10.985-8.181,16.662-12.039
					c0.028,0.041,0.059,0.073,0.097,0.118c0.775,0.699,2.39,0.829,3.387,1.097c2.59,0.708,5.177,1.425,7.777,2.136
					c5.121,1.406,10.241,2.812,15.362,4.217c1.275,0.352,2.54,0.701,3.818,1.044c0.349-0.557,0.692-1.126,1.013-1.693
					c-5.332-1.468-10.658-2.923-15.981-4.387c-2.455-0.672-4.916-1.357-7.374-2.019c-1.237-0.339-2.464-0.675-3.688-1.021
					c-0.552-0.147-1.092-0.3-1.634-0.444c-0.24-0.072-0.568-0.194-0.83-0.231l-0.183-0.021c3.339-2.249,6.707-4.457,10.115-6.598
					c1.341-0.83,2.689-1.647,4.04-2.474c7.665,0.766,15.306,1.82,22.885,3.18c0.28-0.602,0.557-1.194,0.828-1.799
					c-6.969-1.257-13.987-2.277-21.033-3.031c8.099-4.878,16.363-9.499,24.745-13.878c0.88-0.47,1.766-0.928,2.652-1.385
					c0.026-0.477,0.005-1.002-0.292-1.369c-0.131-0.172-0.301-0.294-0.493-0.38c-9.665,5.007-19.184,10.298-28.481,15.928
					c1.667-6.099,3.343-12.195,5.048-18.281c-0.687,0.061-1.37,0.112-2.032,0.192c-1.816,6.471-3.603,12.952-5.368,19.429
					l-0.01,0.092c-4.228,2.59-8.393,5.274-12.527,8.023c0.096-0.527,0.173-1.061,0.269-1.589c0.207-1.251,0.416-2.479,0.632-3.726
					c0.426-2.476,0.873-4.954,1.34-7.427c0.755-4.054,1.57-8.098,2.404-12.136c-0.694,0.206-1.382,0.425-2.083,0.65
					c-1.785,8.511-3.406,17.067-4.734,25.661c-5.19,3.517-10.306,7.156-15.302,10.94c-0.656,0.494-1.296,1.004-1.942,1.502
					c1.832-10.345,3.756-20.679,5.787-30.987c-0.737,0.424-1.471,0.838-2.205,1.284c-2.051,10.46-3.995,20.946-5.848,31.442
					c-4.323,3.392-8.558,6.898-12.706,10.519c1.367-11.392,3.513-22.686,6.446-33.774c-0.834,0.645-1.658,1.292-2.48,1.962
					c-2.803,11.08-4.858,22.352-6.12,33.717c-2.909,2.597-5.761,5.246-8.551,7.958c-0.351,0.345-0.692,0.693-1.039,1.029
					c-0.918-9.384-0.854-18.855,0.207-28.216c-0.74,0.772-1.458,1.572-2.173,2.363c-0.861,9.176-0.793,18.417,0.209,27.587
					c-3.795,3.795-7.474,7.714-11.024,11.751c0.112-8.133-0.291-16.273-1.236-24.345c-0.566,0.789-1.117,1.562-1.661,2.348
					c0.847,8.049,1.165,16.129,0.952,24.216c-2.909,3.401-5.753,6.887-8.465,10.451c-0.169,0.217-0.317,0.431-0.483,0.638
					c-0.264-6.602-0.785-13.197-1.587-19.772c-0.537,1.011-1.064,2.024-1.575,3.054c0.682,6.122,1.121,12.276,1.329,18.426
					c0.008,0.161,0.089,0.327,0.208,0.473c-4.123,5.585-7.985,11.365-11.596,17.306L325.253,354.261z"/>
			</g>
		</g>
		<g>
			<g>
				<path style="fill:#B3D2E6;" d="M68.051,251.356c2.541,0.623,5.083,1.279,7.61,1.988c0.638,0.171,1.268,0.35,1.906,0.537
					c5.073,1.45,10.103,3.098,15.015,4.998c0.615,0.231,1.23,0.479,1.837,0.728c4.672,1.876,9.227,4.003,13.606,6.437
					c0.602,0.334,1.204,0.676,1.807,1.027c3.397,1.978,6.692,4.157,9.833,6.554c1.584,1.207,3.118,2.467,4.621,3.771
					c0.592,0.513,1.176,1.027,1.76,1.558c0.602,0.539,1.204,1.094,1.798,1.65c3.28,3.083,6.47,6.272,9.562,9.567
					c0.543,0.566,1.078,1.142,1.604,1.718c3.46,3.758,6.805,7.623,10.01,11.596c0.538,0.652,1.068,1.313,1.589,1.974
					c3.018,3.801,5.921,7.693,8.707,11.64c1.917,2.72,3.777,5.485,5.578,8.287c0.527,0.806,1.046,1.621,1.557,2.444
					c2.096,3.344,4.118,6.742,6.047,10.187c0.79,1.409,5.802,12.354,8.523,17.668c0.684,1.32,1.227,2.296,1.524,2.685
					c0.09,0.124,0.161,0.19,0.204,0.188c-12.627,1.353-25.384-0.521-37.553-4.304c-1.097-0.34-2.186-0.697-3.266-1.062
					c-2.629-0.9-5.235-1.879-7.802-2.935c-2.992-1.236-6.022-2.572-9.066-4.027c-0.861-0.417-1.722-0.835-2.584-1.269
					c-5.622-2.793-11.25-5.969-16.739-9.492c-0.893-0.57-1.795-1.156-2.68-1.76c-5.872-3.925-11.53-8.26-16.786-12.978
					c-0.787-0.702-1.566-1.412-2.329-2.132c-3.581-3.369-6.948-6.918-10.031-10.64c-0.555-0.651-1.085-1.312-1.615-1.973
					c-3.694-4.687-6.955-9.638-9.629-14.835c-0.333-0.652-0.658-1.304-0.974-1.956c-1.963-4.074-3.566-8.291-4.756-12.652
					c-0.188-0.649-0.351-1.308-0.515-1.975c-1.758-7.238-2.363-14.855-1.558-22.81c0.025-0.231,0.058-0.471,0.117-0.696
					c0.06-0.207,0.146-0.398,0.293-0.558c0.319-0.345,0.835-0.451,1.31-0.505L56.611,250
					C60.449,249.572,64.296,250.432,68.051,251.356z"/>
			</g>
			<path style="fill:#C9E4F5;" d="M181.025,355.69c-5.361-2.233-10.608-4.66-15.779-7.287c-0.42-0.214-0.837-0.447-1.267-0.663
				c0.67-6.662,1.497-13.298,2.472-19.908c-0.508-0.827-1.029-1.636-1.561-2.447c-1.092,7.118-1.994,14.248-2.728,21.406
				c-4.243-2.245-8.424-4.612-12.512-7.115c-2.398-11.335-1.107-22.892,0.956-34.216c-0.517-0.656-1.052-1.326-1.591-1.976
				c-2.135,11.505-3.618,23.233-1.585,34.809c-4.417-2.772-8.751-5.672-12.989-8.718c-0.383-7.806,0.728-15.569,1.979-23.259
				c0.773-4.829,1.643-9.631,2.593-14.429c-0.531-0.577-1.063-1.145-1.605-1.714c-1.086,5.354-2.063,10.726-2.921,16.118
				c-1.162,7.228-2.194,14.528-2.003,21.854c-3.446-2.515-6.826-5.121-10.153-7.798l-0.005-0.031
				c-0.253-4.466,0.109-8.908,0.591-13.34c0.489-4.471,0.997-8.94,1.496-13.409c0.536-4.869,1.082-9.736,1.63-14.614
				c-0.58-0.525-1.172-1.042-1.763-1.559c-1.195,10.397-2.41,20.791-3.446,31.205c-0.333,3.382-0.555,6.763-0.474,10.155
				c-4.414-3.624-8.721-7.392-12.922-11.253c-0.873-8.68,0.104-17.38,0.956-26.009c0.485-4.807,0.968-9.604,1.436-14.424
				c-0.6-0.346-1.201-0.692-1.803-1.028c-0.523,5.145-1.034,10.283-1.536,15.431c-0.786,8.002-1.682,16.046-1.135,24.082
				c-4.993-4.686-9.838-9.53-14.557-14.514c0.036-0.034,0.063-0.07,0.101-0.115c0.566-0.877,0.435-2.492,0.539-3.519
				c0.283-2.671,0.576-5.339,0.861-8.02c0.566-5.28,1.132-10.56,1.697-15.84c0.143-1.315,0.285-2.619,0.418-3.936
				c-0.606-0.256-1.223-0.503-1.833-0.729c-0.593,5.499-1.174,10.989-1.766,16.478c-0.269,2.531-0.55,5.07-0.81,7.602
				c-0.136,1.275-0.271,2.541-0.416,3.804c-0.056,0.569-0.121,1.126-0.176,1.685c-0.032,0.248-0.101,0.591-0.095,0.856l0.009,0.184
				c-2.756-2.935-5.475-5.905-8.135-8.925c-1.035-1.191-2.057-2.39-3.09-3.591c-0.474-7.689-0.66-15.4-0.534-23.099
				c-0.639-0.18-1.268-0.358-1.908-0.528c-0.122,7.08-0.003,14.171,0.383,21.247c-6.115-7.211-12.002-14.626-17.67-22.197
				c-0.605-0.793-1.199-1.594-1.793-2.395c-0.475,0.051-0.99,0.156-1.304,0.508c-0.148,0.157-0.241,0.344-0.296,0.548
				c6.494,8.736,13.243,17.283,20.292,25.555c-6.287-0.667-12.573-1.343-18.854-2.049c0.17,0.668,0.33,1.335,0.515,1.975
				c6.678,0.754,13.362,1.478,20.039,2.18l0.092-0.005c3.234,3.757,6.553,7.438,9.929,11.077c-0.536-0.01-1.075-0.001-1.611-0.011
				c-1.268-0.003-2.514-0.013-3.779-0.026c-2.512-0.023-5.03-0.067-7.546-0.13c-4.123-0.095-8.245-0.25-12.365-0.425
				c0.315,0.652,0.641,1.296,0.976,1.952c8.687,0.396,17.393,0.623,26.088,0.554c4.305,4.559,8.717,9.024,13.254,13.348
				c0.593,0.568,1.199,1.118,1.794,1.675c-10.505-0.148-21.014-0.388-31.514-0.739c0.537,0.66,1.064,1.318,1.622,1.971
				c10.653,0.346,21.315,0.582,31.973,0.726c4.042,3.723,8.182,7.34,12.422,10.853c-11.464,0.479-22.956,0.173-34.371-0.942
				c0.77,0.72,1.542,1.43,2.335,2.133c11.386,0.988,22.842,1.208,34.262,0.629c3.031,2.454,6.102,4.845,9.227,7.163
				c0.397,0.291,0.795,0.572,1.182,0.861c-9.115,2.412-18.473,3.869-27.884,4.323c0.881,0.607,1.786,1.187,2.681,1.766
				c9.196-0.623,18.306-2.173,27.196-4.633c4.355,3.137,8.813,6.139,13.368,8.996c-8.045,1.194-16.015,2.899-23.831,5.126
				c0.87,0.432,1.721,0.852,2.585,1.262c7.809-2.127,15.732-3.738,23.749-4.826c3.823,2.326,7.721,4.573,11.673,6.678
				c0.241,0.132,0.476,0.244,0.707,0.374c-6.474,1.32-12.9,2.892-19.261,4.739c1.084,0.368,2.169,0.725,3.267,1.065
				c5.933-1.656,11.937-3.077,17.974-4.269c0.158-0.034,0.308-0.14,0.434-0.281c6.174,3.173,12.499,6.058,18.942,8.668
				L181.025,355.69z"/>
		</g>
		<g>
			<g>
				<path style="fill:#343096;" d="M444.408,389.724c0-3.775-1.468-6.848-3.251-7.037v-0.018H273.318
					c-1.914,0-3.424,3.159-3.424,7.055c0,3.896,1.511,7.055,3.424,7.055h167.839v-0.018
					C442.94,396.571,444.408,393.498,444.408,389.724z"/>
				<rect x="283.089" y="386.744" style="fill:#E94543;" width="148.123" height="5.959"/>
			</g>
			<g>
				<rect x="267.284" y="346.903" style="fill:#C9E4F5;" width="81.297" height="35.704"/>
				<path style="fill:#4B47B3;" d="M438.637,363.596c0,8.806-5.988,16.203-14.108,18.362c-1.328,0.361-2.719,0.578-4.146,0.632
					c-0.063,0-0.126,0.018-0.19,0.018H259.848c-0.524,0-1.012-0.217-1.355-0.56c-0.343-0.343-0.56-0.831-0.56-1.355
					c0-1.057,0.858-1.915,1.915-1.915h63.893c0.126,0,0.244-0.018,0.361-0.036c0.199,0.009,0.397,0.018,0.605,0.018
					c8.382,0,15.174-6.801,15.174-15.183c0-8.382-6.792-15.174-15.174-15.174c-0.262,0-0.515,0.009-0.777,0.018
					c-0.063,0-0.126-0.018-0.189-0.018h-63.893c-1.057,0-1.915-0.858-1.915-1.915c0-1.057,0.858-1.915,1.915-1.915h160.346
					c0.063,0,0.126,0.018,0.19,0.018c1.147,0.045,2.267,0.199,3.36,0.443C432.26,346.914,438.637,354.501,438.637,363.596z"/>
				
					<path style="fill:none;stroke:#B3D2E6;stroke-width:0.9032;stroke-linecap:round;stroke-linejoin:round;stroke-miterlimit:10;" d="
					M334.507,344.577c0,0,8.202,2.454,11.571,12.561c2.836,8.508,0.048,21.38-11.571,25.531"/>
				<g>
					<g>
						<path style="fill:#343096;" d="M356.093,382.608h-7.298c11.958-4.408,13.792-17.703,11.245-25.344
							c-3.288-9.863-11.028-12.356-11.353-12.455c-0.172-0.054-0.334-0.135-0.479-0.235h7.316c2.836,2.24,6.042,5.862,7.948,11.552
							C366.398,364.933,364.141,376.232,356.093,382.608z"/>
					</g>
					<g>
						<path style="fill:#343096;" d="M424.529,381.958c-1.328,0.361-2.719,0.578-4.146,0.632c-0.063,0-0.126,0.018-0.19,0.018
							h-3.748c11.967-4.408,13.792-17.703,11.254-25.344c-3.288-9.863-11.028-12.356-11.362-12.455
							c-0.172-0.054-0.334-0.135-0.479-0.235h4.335c0.063,0,0.126,0.018,0.19,0.018c1.147,0.045,2.267,0.199,3.36,0.443
							c2.691,2.258,5.609,5.771,7.379,11.091C433.958,364.634,431.935,375.482,424.529,381.958z"/>
					</g>
				</g>
				<path style="fill:#343096;" d="M421.654,363.591c0,3.774-11.323,6.833-25.29,6.833c-13.967,0-25.29-3.059-25.29-6.833
					c0-3.774,11.323-6.833,25.29-6.833C410.332,356.759,421.654,359.818,421.654,363.591z"/>
			</g>
			<g>
				<rect x="366.714" y="399.164" style="fill:#C9E4F5;" width="85.967" height="33.979"/>
				<g>
					<g>
						<rect x="363.364" y="403.842" style="fill:#343096;" width="89.318" height="0.677"/>
					</g>
					<g>
						<rect x="363.364" y="408.711" style="fill:#343096;" width="89.318" height="0.677"/>
					</g>
					<g>
						<rect x="363.364" y="413.588" style="fill:#343096;" width="89.318" height="0.677"/>
					</g>
					<g>
						<rect x="363.364" y="418.456" style="fill:#343096;" width="89.318" height="0.677"/>
					</g>
					<g>
						<rect x="363.364" y="423.334" style="fill:#343096;" width="89.318" height="0.677"/>
					</g>
					<g>
						<rect x="363.364" y="428.202" style="fill:#343096;" width="89.318" height="0.677"/>
					</g>
				</g>
				<path style="fill:#E94543;" d="M293.873,415.855c0-10.246,8.104-18.594,18.251-18.996c0.064-0.006,10.168,0,0,0l137.76-0.019
					c11.291,0,12.148,0,12.148,1.914c0,1.057-0.857,1.914-1.914,1.914h-74.125c-0.066,0-0.129,0.013-0.193,0.02
					c-0.255-0.013-0.512-0.02-0.77-0.02c-8.382,0-15.176,6.795-15.176,15.176c0,8.382,6.795,15.176,15.176,15.176
					c0.202,0,0.403-0.007,0.603-0.015c0.117,0.022,0.236,0.036,0.359,0.036h74.125c1.057,0,1.914,0.857,1.914,1.914l0,0
					c0,1.057-0.857,1.914-1.914,1.914H312.315c-0.066,0-0.128-0.013-0.191-0.019C301.977,434.45,293.873,426.101,293.873,415.855z"
					/>
				<path style="fill:#343096;" d="M418.489,423.334h12.8c0,0,5.254,7.214,1.617,12.694l-4.902-5.742l-8.302,5.742
					C419.701,436.027,423.878,428.722,418.489,423.334z"/>
				<g>
					<path style="fill:#343096;" d="M370.28,397.409c-5.634,4.742-9.319,11.9-9.272,19.332c0.045,7.171,3.608,14.133,9.541,18.188
						c1.082,0.74,2.1-1.02,1.026-1.755c-5.431-3.712-8.6-10.236-8.534-16.775c0.069-6.814,3.522-13.215,8.676-17.553
						C372.719,398.003,371.275,396.572,370.28,397.409L370.28,397.409z"/>
				</g>
				<path style="fill:#4B47B3;" d="M352.363,419.134h-48.089c-2.258,0-4.089-1.831-4.089-4.089v0c0-2.258,1.831-4.089,4.089-4.089
					h48.089c2.259,0,4.089,1.831,4.089,4.089v0C356.453,417.303,354.622,419.134,352.363,419.134z"/>
			</g>
		</g>
		<g>
			<polygon style="fill:#343096;" points="110.197,446.669 75.507,434.511 77.688,428.301 79.233,423.891 80.236,421.041 
				81.782,416.632 109.864,336.552 111.414,332.134 112.408,329.3 113.953,324.89 117.216,315.581 151.9,327.748 148.735,336.776 
				147.19,341.186 146.191,344.028 144.647,348.438 116.559,428.526 115.014,432.935 114.015,435.778 112.465,440.195 			"/>
			<g>
				
					<rect x="87.362" y="366.797" transform="matrix(0.3124 -0.95 0.95 0.3124 -283.6519 370.0189)" style="fill:#343096;" width="52.806" height="28.29"/>
				<g>
					<defs>
						
							<rect id="SVGID_1_" x="87.362" y="366.797" transform="matrix(0.3124 -0.95 0.95 0.3124 -283.6519 370.0189)" width="52.806" height="28.29"/>
					</defs>
					<clipPath id="SVGID_00000092443960879665193650000017317318782497790875_">
						<use xlink:href="#SVGID_1_"  style="overflow:visible;"/>
					</clipPath>
					<g style="clip-path:url(#SVGID_00000092443960879665193650000017317318782497790875_);">
						<g>
							<g>
								<polygon style="fill:#FFFFFF;" points="93.846,404.814 113.461,385.058 117.124,373.919 88.308,402.992 								"/>
								<polygon style="fill:#E94543;" points="92.902,404.503 112.517,384.748 113.781,380.905 90.976,403.87 								"/>
							</g>
							<g>
								<polygon style="fill:#FFFFFF;" points="111.892,349.933 115.955,377.474 112.292,388.614 106.354,348.112 								"/>
								<polygon style="fill:#E94543;" points="109.399,350.906 113.681,379.935 112.418,383.778 107.473,350.273 								"/>
							</g>
							<g>
								<polygon style="fill:#FFFFFF;" points="133.729,357.114 114.114,376.869 110.451,388.009 139.267,358.935 								"/>
								<polygon style="fill:#E94543;" points="134.673,357.424 115.058,377.18 113.794,381.022 136.599,358.057 								"/>
							</g>
							<g>
								<polygon style="fill:#FFFFFF;" points="115.683,411.994 111.62,384.453 115.283,373.314 121.221,413.815 								"/>
								<polygon style="fill:#E94543;" points="118.203,411.28 113.894,381.992 115.157,378.15 120.129,411.914 								"/>
							</g>
						</g>
						<g>
							<polygon style="fill:#FFFFFF;" points="117.839,354.488 110.953,375.429 100.278,371.919 97.547,380.226 108.222,383.736 
								101.336,404.677 109.643,407.409 116.529,386.468 126.211,389.652 128.942,381.344 119.261,378.161 126.146,357.22 							
								"/>
							<polygon style="fill:#E94543;" points="119.444,355.016 112.03,377.561 99.751,373.524 98.074,378.621 110.354,382.659 
								102.941,405.205 108.038,406.881 115.452,384.335 126.738,388.047 128.415,382.949 117.128,379.238 124.542,356.692 							
								"/>
						</g>
					</g>
				</g>
			</g>
			<g>
				<g>
					<g>
						<polygon style="fill:#E94543;" points="112.408,329.3 147.19,341.186 148.735,336.776 113.953,324.89 						"/>
					</g>
					<g>
						<polygon style="fill:#E94543;" points="144.647,348.438 109.864,336.552 111.414,332.134 146.191,344.028 						"/>
					</g>
					<g>
						<polygon style="fill:#E94543;" points="115.014,432.935 80.236,421.041 81.782,416.632 116.559,428.526 						"/>
					</g>
					<g>
						<polygon style="fill:#E94543;" points="112.465,440.195 77.688,428.301 79.233,423.891 114.015,435.778 						"/>
					</g>
				</g>
			</g>
		</g>
		<g>
			<g>
				<path style="fill:#343096;" d="M103.347,231.821l50.31-63.125c1.913-2.4,4.816-3.515,7.845-3.012l80.29,13.308
					c1.904,0.315,2.925,2.921,1.745,4.452l-49.518,64.223c-2.049,2.658-5.227,3.879-8.531,3.277l-80.452-14.649
					C103.135,235.948,102.145,233.33,103.347,231.821z"/>
				<path style="fill:#343096;" d="M148.636,252.97c0,0,52.614-4.27,73.186-29.762l-3.121-5.442l-37.364,6.379l-26.08,15.103
					l-7.638,10.414L148.636,252.97z"/>
			</g>
			<g>
				<g>
					<polygon style="fill:#343096;" points="149.058,236.355 168.275,223.234 168.275,230.466 156.496,242.348 					"/>
					<rect x="168.275" y="223.234" style="fill:#343096;" width="159.282" height="213.605"/>
					<polygon style="fill:#FFFFFF;" points="321.668,229.846 168.275,229.846 155.257,239.248 307.341,237.733 					"/>
					<polygon style="fill:#E8F6FF;" points="308.34,237.172 308.34,446.928 321.668,436.839 321.668,229.846 					"/>
					<rect x="149.058" y="236.355" style="fill:#343096;" width="159.282" height="211.596"/>
				</g>
				<g>
					<defs>
						
							<rect id="SVGID_00000011734788139027711510000014266633747870741138_" x="149.058" y="236.355" width="159.282" height="211.596"/>
					</defs>
					<clipPath id="SVGID_00000005263952246937283730000017286312144238194089_">
						<use xlink:href="#SVGID_00000011734788139027711510000014266633747870741138_"  style="overflow:visible;"/>
					</clipPath>
					<g style="clip-path:url(#SVGID_00000005263952246937283730000017286312144238194089_);">
						<g>
							<g>
								<polygon style="fill:#FFFFFF;" points="-2.817,317.213 139.543,388.48 206.601,388.48 -2.817,283.873 								"/>
								<polygon style="fill:#E94543;" points="-2.817,311.53 139.543,382.797 162.676,382.797 -2.817,299.936 								"/>
							</g>
							<g>
								<polygon style="fill:#FFFFFF;" points="327.557,317.213 185.197,388.48 118.139,388.48 327.557,283.873 								"/>
								<polygon style="fill:#E94543;" points="317.818,305.408 167.77,380.524 144.636,380.524 317.818,293.815 								"/>
							</g>
							<g>
								<polygon style="fill:#FFFFFF;" points="327.557,448.666 185.197,377.399 118.139,377.399 327.557,482.006 								"/>
								<polygon style="fill:#E94543;" points="327.557,454.349 185.197,383.082 162.064,383.082 327.557,465.942 								"/>
							</g>
							<g>
								<polygon style="fill:#FFFFFF;" points="-2.817,448.666 139.543,377.399 206.601,377.399 -2.817,482.006 								"/>
								<polygon style="fill:#E94543;" points="5.562,461.082 156.971,385.355 180.104,385.355 5.562,472.675 								"/>
							</g>
						</g>
						<g>
							<polygon style="fill:#FFFFFF;" points="313.436,357.656 187.375,357.656 187.375,293.393 137.365,293.393 137.365,357.656 
								11.304,357.656 11.304,407.665 137.365,407.665 137.365,465.949 187.375,465.949 187.375,407.665 313.436,407.665 							"/>
							<polygon style="fill:#E94543;" points="313.436,367.317 177.714,367.317 177.714,293.393 147.027,293.393 147.027,367.317 
								11.304,367.317 11.304,398.005 147.027,398.005 147.027,465.949 177.714,465.949 177.714,398.005 313.436,398.005 							"/>
						</g>
					</g>
					<path style="clip-path:url(#SVGID_00000005263952246937283730000017286312144238194089_);fill:#E94543;" d="M261.936,300.055
						H149.058v-63.39H308.34v16.987C308.34,279.279,287.564,300.055,261.936,300.055z"/>
				</g>
			</g>
			<g>
				<g>
					<g style="opacity:0.5;">
						<g>
							<path style="fill:#FFFFFF;" d="M222.185,181.76c2.518,0.358,5.037,0.717,7.555,1.075c0.365,0.052,0.734-0.111,0.83-0.495
								c0.083-0.329-0.128-0.778-0.495-0.83c-2.518-0.358-5.037-0.717-7.555-1.075c-0.365-0.052-0.734,0.111-0.83,0.495
								C221.607,181.259,221.817,181.708,222.185,181.76L222.185,181.76z"/>
						</g>
						<g>
							<path style="fill:#FFFFFF;" d="M164.892,173.606c17.209,2.449,34.417,4.899,51.626,7.348
								c0.863,0.123,1.205-1.202,0.335-1.326c-17.209-2.449-34.418-4.898-51.626-7.348
								C164.364,172.157,164.022,173.482,164.892,173.606L164.892,173.606z"/>
						</g>
					</g>
				</g>
				<g>
					<g>
						<g>
							<path style="fill:#343096;" d="M144.321,244.349c-2.776,3.746-4.389,8.09-4.959,12.708
								c-0.563,4.563-0.424,9.493,0.946,13.905c0.79,2.543,1.908,4.966,2.842,7.456c0.956,2.545,1.801,5.141,2.587,7.743
								c1.521,5.038,2.788,10.205,3.125,15.473c0.353,5.521-0.366,11.112-3.087,16c-0.472,0.848,0.844,1.577,1.315,0.731
								c4.686-8.419,3.74-18.493,1.506-27.502c-1.3-5.24-2.985-10.412-5.009-15.416c-0.963-2.38-1.966-4.785-2.461-7.317
								c-0.462-2.364-0.573-4.85-0.531-7.254c0.096-5.517,1.491-11.006,4.811-15.487
								C145.977,244.621,144.897,243.572,144.321,244.349L144.321,244.349z"/>
						</g>
						<g>
							<g>
								<path style="fill:#343096;" d="M145.214,307.512c1.466-1.215,3.394-2.078,4.887-1.19c1.316,0.783,2.21,2.966,2.458,4.4
									c0.407,2.358-0.435,4.896-2.172,6.542c-0.986,0.934-2.222,1.585-3.145,2.581c-0.899,0.97-1.458,2.249-1.56,3.567
									c-2.53-2.106-4.003-5.423-3.868-8.713c0.075-1.831,0.649-3.631,1.606-5.19C143.805,308.88,144.446,308.148,145.214,307.512z
									"/>
							</g>
							<path style="fill:#FFFFFF;" d="M146.748,303.752c-0.47,1.317,0.217,2.766,1.534,3.237c1.317,0.47,2.766-0.217,3.237-1.534
								c0.47-1.317-0.217-2.767-1.534-3.237C148.667,301.748,147.218,302.435,146.748,303.752z"/>
						</g>
					</g>
					<path style="fill:#4B47B3;" d="M221.84,222.797c0.102-3.686-0.734-8.997-1.291-13.013c-0.257-1.922-0.57-3.853-0.913-5.691
						c-1.516-8.294-3.536-15.145-3.536-15.145c-1.133-2.749-23.274-1.053-47.378,8.881c-24.092,9.93-41.009,24.333-39.876,27.082
						c0,0,3.406,6.28,8.163,13.239c1.064,1.542,2.191,3.137,3.363,4.682c2.435,3.242,5.596,7.595,8.265,10.139
						c0.109,0.102,0.207,0.194,0.309,0.285c0.007-0.015,0.013-0.03,0.02-0.046c-0.244-0.276-0.86-1.272,0.856-3.071
						c7.206-7.551,20.552-15.989,31.979-20.699c10.019-4.13,21.034-6.881,29.126-7.723c8.175-0.851,10.593,1.072,10.896,1.491
						C221.83,223.074,221.834,222.943,221.84,222.797z"/>
					<g>
						<path style="fill:#E94543;" d="M137.008,238.149c1.064,1.542,2.191,3.137,3.363,4.682c8.791-7.663,21.546-15.978,37.588-22.59
							c16.054-6.617,30.952-9.7,42.589-10.456c-0.256-1.922-0.57-3.853-0.912-5.691c-12.961,0.827-28.623,4.431-43.91,10.731
							S146.788,229.603,137.008,238.149z"/>
					</g>
				</g>
			</g>
		</g>
	</g>
	<g>
		
			<rect x="144.79" y="425.147" transform="matrix(0.265 -0.9643 0.9643 0.265 -312.2362 462.0253)" style="fill:#E94543;" width="4.309" height="21.35"/>
		<g>
			<path style="fill:#E8F6FF;" d="M123.572,400.31c14.937,4.105,23.718,19.542,19.614,34.479
				c-4.105,14.937-19.542,23.718-34.479,19.613c-14.937-4.105-23.718-19.542-19.613-34.479
				C93.198,404.986,108.635,396.205,123.572,400.31z"/>
			<path style="fill:#4B47B3;" d="M145.981,435.557c-4.522,16.455-21.588,26.162-38.043,21.641
				c-16.455-4.522-26.163-21.588-21.641-38.042c4.522-16.455,21.588-26.163,38.042-21.641S150.503,419.102,145.981,435.557z
				 M91.888,420.692c-3.675,13.372,4.214,27.24,17.586,30.915c13.372,3.675,27.241-4.214,30.916-17.586
				c3.675-13.372-4.215-27.241-17.587-30.915C109.432,399.431,95.563,407.32,91.888,420.692z"/>
		</g>
		<g>
			<path style="fill:#4B47B3;" d="M204.266,451.574L204.266,451.574c-1.032,3.755-4.913,5.963-8.668,4.931l-40.003-10.993
				c-3.755-1.032-5.963-4.913-4.931-8.668l0,0c1.032-3.755,4.913-5.963,8.668-4.931l40.003,10.993
				C203.091,443.939,205.298,447.819,204.266,451.574z"/>
		</g>
		<g>
			<path style="fill:#FFFFFF;" d="M130.973,415.695c2.138,2.713,3.59,5.9,4.08,9.328c0.228,1.59,2.697,1.229,2.469-0.363
				c-0.552-3.854-2.197-7.474-4.601-10.524C131.928,412.875,129.977,414.431,130.973,415.695L130.973,415.695z"/>
		</g>
		<g>
			<path style="fill:#FFFFFF;" d="M98.68,418.107c5.179-8.869,16.886-12.48,26.049-7.684c1.425,0.746,2.343-1.577,0.933-2.315
				c-10.059-5.266-23.291-1.239-28.984,8.51C95.876,417.991,97.87,419.494,98.68,418.107L98.68,418.107z"/>
		</g>
	</g>
	<g>
		<g>
			<path style="fill:#C9E4F5;" d="M264.232,187.307c-0.504,0-1.012-0.123-1.487-0.372c-1.07-0.561-1.71-1.617-1.71-2.825v-14.652
				c0-1.208,0.639-2.265,1.71-2.825c1.072-0.561,2.303-0.485,3.296,0.203l10.574,7.326c0.86,0.596,1.373,1.576,1.373,2.622
				c0,1.046-0.513,2.026-1.373,2.622l-10.574,7.326C265.489,187.114,264.863,187.307,264.232,187.307z M264.23,167.229
				c-0.352,0-0.705,0.086-1.036,0.259c-0.747,0.391-1.192,1.127-1.192,1.969v14.652c0,0.842,0.445,1.578,1.192,1.969
				c0.746,0.391,1.605,0.338,2.298-0.142l10.574-7.326c0.608-0.421,0.957-1.088,0.957-1.827c0-0.74-0.349-1.406-0.957-1.827
				l-10.574-7.326C265.106,167.364,264.67,167.229,264.23,167.229z"/>
		</g>
		<g>
			<path style="fill:#E94543;" d="M305.727,187.307c-0.504,0-1.011-0.123-1.487-0.372c-1.071-0.561-1.709-1.617-1.709-2.825v-14.652
				c0-1.208,0.639-2.265,1.709-2.825c1.071-0.561,2.304-0.485,3.296,0.203l10.575,7.326c0.86,0.596,1.373,1.576,1.373,2.622
				c0,1.046-0.513,2.026-1.373,2.622l-10.575,7.326C306.985,187.114,306.359,187.307,305.727,187.307z M305.726,167.229
				c-0.352,0-0.705,0.086-1.037,0.259c-0.746,0.391-1.191,1.127-1.191,1.969v14.652c0,0.842,0.445,1.579,1.191,1.969
				c0.747,0.391,1.605,0.338,2.298-0.142l10.574-7.326c0.608-0.421,0.957-1.088,0.957-1.827c0-0.74-0.349-1.406-0.957-1.827
				l-10.574-7.326C306.602,167.364,306.165,167.229,305.726,167.229z"/>
		</g>
		<g>
			<path style="fill:#343096;" d="M340.06,184.11v-14.652c0-2.184,2.453-3.468,4.248-2.225l10.574,7.326
				c1.553,1.076,1.553,3.373,0,4.449l-10.574,7.326C342.513,187.578,340.06,186.293,340.06,184.11z"/>
		</g>
	</g>
</g>
<g id="TEXTS">
	
		<text transform="matrix(1 0 0 1 162.0684 275.5645)" style="fill:#FFFFFF; font-family:'TaiHeritagePro-Bold'; font-size:27.1481px;">english</text>
	<text transform="matrix(1 0 0 1 318.9717 127.5244)" style="fill:#4B47B3; font-family:'Rubik-MediumItalic'; font-size:18px;">Do</text>
	<text transform="matrix(1 0 0 1 397.6304 191.8159)" style="fill:#4B47B3; font-family:'Rubik-MediumItalic'; font-size:18px;">Verbs</text>
	<text transform="matrix(1 0 0 1 189.5693 128.7173)" style="fill:#4B47B3; font-family:'Rubik-MediumItalic'; font-size:18px;">Hello</text>
</g>
</svg>
