<svg xmlns="http://www.w3.org/2000/svg" xmlns:xlink="http://www.w3.org/1999/xlink" version="1.1" x="0px" y="0px" style="enable-background:new 0 0 3710 3710;" xml:space="preserve" viewBox="0 0 3710 3710">
<style type="text/css">
	.st0{fill:#FFFFFF00;}
	.st1{opacity:0.3;fill:url(#SVGID_1_);}
	.st2{opacity:0.3;}
	.st3{fill:url(#SVGID_00000000934440268213581490000008032352422513986178_);}
	.st4{fill:url(#SVGID_00000124137329580663244950000007537742724473110666_);}
	.st5{fill:url(#SVGID_00000047769176890936782010000003746459490114625162_);}
	.st6{fill:url(#SVGID_00000037689792445108843810000011186484806390928063_);}
	.st7{fill:url(#SVGID_00000178170957696829595940000014437277837655052419_);}
	.st8{fill:url(#SVGID_00000074420872988219503840000003282899381797738127_);}
	.st9{opacity:0.56;fill:#FFFFFF;}
	.st10{fill:url(#SVGID_00000055695795639811586980000016609480757691163815_);}
	.st11{fill:url(#SVGID_00000048467262308737746690000017667666993734455424_);}
	.st12{fill:url(#SVGID_00000149372550081090591370000008957032358897936787_);}
	.st13{fill:url(#SVGID_00000005983177351879489150000009635439153468185227_);}
	.st14{fill:url(#SVGID_00000156578041250219878990000013617677992029020564_);}
	.st15{fill:url(#SVGID_00000023262614941794787070000014275900222554175109_);}
	.st16{fill:url(#SVGID_00000098213317272845439670000007380043094791613595_);}
	.st17{fill:url(#SVGID_00000165931892437031399180000011526548715400756888_);}
	.st18{fill:url(#SVGID_00000084528517828577799280000014357163662217802399_);}
	.st19{fill:url(#SVGID_00000039855027527887040760000005556561895803606927_);}
	.st20{fill:url(#SVGID_00000094584012660499162860000011368420289658279589_);}
	.st21{fill:url(#SVGID_00000106845063580794149590000015356481895188817853_);}
	.st22{fill:url(#SVGID_00000029744694516368834260000007478073596777882294_);}
	.st23{fill:url(#SVGID_00000088118866138234656890000017309524040273943431_);}
	.st24{fill:url(#SVGID_00000078045493411938416310000000755733611786896287_);}
	.st25{fill:url(#SVGID_00000067218424133489836980000007415131891687841969_);}
	.st26{opacity:0.3;fill:url(#SVGID_00000146464375257216353460000018255137114188651454_);}
	.st27{opacity:0.3;fill:url(#SVGID_00000164483336048181174940000008288560575108604333_);}
	.st28{fill:url(#SVGID_00000108305102005692006530000016593987807849704883_);}
	.st29{fill:url(#SVGID_00000073679114043761705980000001815153958481588916_);}
	.st30{fill:url(#SVGID_00000101099218246826901830000003305469055760525971_);}
	.st31{fill:url(#SVGID_00000039851420483156883580000016487335046151603375_);}
	.st32{fill:url(#SVGID_00000047017651459106235160000016467602834501714848_);}
	.st33{fill:url(#SVGID_00000079445795829399667420000008616669109559885991_);}
	.st34{fill:url(#SVGID_00000031890894167939626770000010908614346078460035_);}
	.st35{fill:url(#SVGID_00000101066328162896671700000007809502836238968489_);}
	.st36{fill:url(#SVGID_00000057839696532437192250000013557255883289881521_);}
	.st37{fill:url(#SVGID_00000042000120252518512330000006799261581746372274_);}
	.st38{fill:url(#SVGID_00000098942795769146805090000011610413324266014373_);}
	.st39{fill:url(#SVGID_00000106129750070244544980000005310749876601473193_);}
	.st40{fill:url(#SVGID_00000011002243160611337910000015831291524990846100_);}
	.st41{fill:url(#SVGID_00000098216493683494706610000017146642766931224986_);}
	.st42{fill:url(#SVGID_00000075160619368318864100000009613791914582578820_);}
	.st43{fill:url(#SVGID_00000032645270213632449020000006625256598930260112_);}
	.st44{fill:url(#SVGID_00000065777712367252789770000013259757946225620354_);}
	.st45{fill:url(#SVGID_00000096037162838181551770000000884339447406505133_);}
	.st46{fill:url(#SVGID_00000125586221299141980910000000184152152232340637_);}
	.st47{fill:url(#SVGID_00000082327783156767563610000006718701219674802602_);}
	.st48{fill:url(#SVGID_00000010312477558749475320000016516849486388578694_);}
	.st49{fill:url(#SVGID_00000167359876690580783510000008922175384484595380_);}
	.st50{fill:url(#SVGID_00000096031495827317228070000002698779820548564388_);}
	.st51{fill:url(#SVGID_00000183967149473792638390000013538237886689255359_);}
	.st52{fill:url(#SVGID_00000101087306236669730630000014352403860184281995_);}
	.st53{fill:url(#SVGID_00000132768868660126945080000013665165255141353386_);}
	.st54{fill:url(#SVGID_00000132784295140555374080000016759307307659948181_);}
	.st55{fill:url(#SVGID_00000037651886419719680940000011088996841838525110_);}
	.st56{fill:url(#SVGID_00000142157567871277837790000011133037431405409665_);}
	.st57{fill:url(#SVGID_00000018214997315535741860000010559557836608429468_);}
	.st58{fill:url(#SVGID_00000013182873458237270940000016782576327098754747_);}
	.st59{fill:url(#SVGID_00000054254716628665802390000006503558476841440410_);}
	.st60{fill:url(#SVGID_00000097494290559132540330000010687926906652497843_);}
	.st61{fill:url(#SVGID_00000181051575218026905830000003725250757357235370_);}
	.st62{fill:url(#SVGID_00000038408999226937576480000007761968984744604590_);}
	.st63{fill:url(#SVGID_00000080179439266132729700000017282118576344076693_);}
	.st64{fill:url(#SVGID_00000036944153496209753550000015476777767646371216_);}
	.st65{fill:url(#SVGID_00000003067596808625457250000004532462163090993846_);}
	.st66{fill:url(#SVGID_00000062883402450649596540000014259294516171858852_);}
	.st67{fill:url(#SVGID_00000023240609576374610410000008675700518754648211_);}
	.st68{fill:url(#SVGID_00000059291293206427938190000013762844302454784405_);}
	.st69{fill:url(#SVGID_00000026132588821402070440000000173204560070960562_);}
	.st70{fill:url(#SVGID_00000120559542140526294550000003932807498926185144_);}
	.st71{fill:url(#SVGID_00000039827630904340907510000017621557719246361241_);}
	.st72{fill:url(#SVGID_00000007416444781096775790000010946120118479622327_);}
	.st73{fill:url(#SVGID_00000173142456611225437980000003325250044572063388_);}
</style>
<g id="Background">
	<g>
		<g>
			<rect class="st0" width="3710" height="3710"/>
		</g>
	</g>
</g>
<g id="Illustration">
	<g>
		<linearGradient id="SVGID_1_" gradientUnits="userSpaceOnUse" x1="3407.6406" y1="3247.1113" x2="1367.2313" y2="1461.7545">
			<stop offset="0" style="stop-color:#B37CFF"/>
			<stop offset="1" style="stop-color:#F895E7"/>
		</linearGradient>
		<path class="st1" d="M3060.88,2319.9c-263.7,620.91-966.15,968.75-1575.31,874.93c-99.12-15.27-370.87-60.75-611.47-275.31    C410.94,2506.47,311.89,1688.58,685.51,1112.2c271.93-419.51,759.39-657.31,1222.57-645.41c99.77,2.56,482.13,18.35,818.15,295.43    c49.36,40.7,158.21,137.41,256.32,290.83C3212.93,1413.31,3232.74,1915.24,3060.88,2319.9z"/>
		<g>
			<g>
				<g class="st2">
					
						<linearGradient id="SVGID_00000177446618258547969590000017138943504262426764_" gradientUnits="userSpaceOnUse" x1="-3531.6272" y1="4485.3433" x2="-2910.2512" y2="4485.3433" gradientTransform="matrix(1.900000e-03 1 -1 1.900000e-03 5957.6851 4455.2368)">
						<stop offset="0" style="stop-color:#B37CFF"/>
						<stop offset="1" style="stop-color:#F895E7"/>
					</linearGradient>
					<path style="fill:url(#SVGID_00000177446618258547969590000017138943504262426764_);" d="M1243.55,1542.68       c0.22-5.79,5.1-10.3,10.89-10.07c11.24,0.44,22.67,0.4,33.97-0.13c5.72-0.27,10.57,4.1,10.95,9.78c0,0.07,0.01,0.13,0.01,0.2       c0.27,5.78-4.21,10.69-9.99,10.96c-11.89,0.55-23.92,0.6-35.76,0.13c-5.41-0.21-9.7-4.49-10.05-9.78       C1243.54,1543.42,1243.53,1543.05,1243.55,1542.68z M1343.22,1526.16c11.12-2.06,22.25-4.61,33.1-7.59       c5.58-1.53,11.35,1.75,12.89,7.33c1.52,5.61-1.75,11.35-7.34,12.89c-11.41,3.14-23.13,5.82-34.83,7.99       c-5.69,1.05-11.16-2.71-12.22-8.4c-0.08-0.41-0.13-0.83-0.15-1.24C1334.32,1531.92,1337.94,1527.14,1343.22,1526.16z        M1428.35,1500.3c10.35-4.47,20.63-9.44,30.56-14.78c5.1-2.74,11.46-0.83,14.2,4.27c2.73,5.1,0.83,11.45-4.27,14.2       c-10.46,5.63-21.29,10.86-32.19,15.57c-5.32,2.3-11.49-0.16-13.78-5.47c-0.49-1.13-0.76-2.31-0.84-3.47       C1421.76,1506.32,1424.17,1502.11,1428.35,1500.3z M1505.56,1456.05c9.1-6.68,18.02-13.83,26.5-21.25       c4.36-3.81,10.98-3.37,14.8,0.99c3.81,4.36,3.36,10.98-0.99,14.8c-8.94,7.81-18.32,15.34-27.9,22.37       c-4.67,3.42-11.23,2.42-14.66-2.25c-1.23-1.67-1.88-3.58-2.01-5.51C1501.07,1461.75,1502.56,1458.26,1505.56,1456.05z        M1570.98,1395.71c7.37-8.51,14.49-17.46,21.14-26.59c3.41-4.68,9.97-5.71,14.65-2.3c4.68,3.41,5.71,9.97,2.3,14.65       c-7,9.61-14.48,19.03-22.24,27.98c-3.79,4.38-10.41,4.85-14.79,1.06c-2.21-1.91-3.42-4.54-3.6-7.24       C1568.27,1400.6,1569.1,1397.88,1570.98,1395.71z M1621.43,1322.39c5.32-9.94,10.27-20.24,14.73-30.6       c2.29-5.32,8.46-7.78,13.77-5.49c5.32,2.29,7.78,8.45,5.49,13.77c-4.69,10.91-9.91,21.74-15.5,32.21       c-2.73,5.11-9.08,7.03-14.19,4.3c-3.32-1.77-5.29-5.08-5.52-8.57C1620.09,1326.12,1620.47,1324.18,1621.43,1322.39z        M1625.55,933.06c5.1-2.73,11.46-0.82,14.19,4.29c5.6,10.46,10.82,21.3,15.51,32.23c2.29,5.32-0.18,11.49-5.5,13.77       c-5.32,2.29-11.48-0.18-13.77-5.5c-4.46-10.38-9.41-20.67-14.73-30.6c-0.73-1.36-1.13-2.81-1.22-4.26       C1619.77,939.02,1621.81,935.07,1625.55,933.06z M1654.34,1239.76c2.97-10.87,5.5-22,7.53-33.09c1.04-5.7,6.51-9.47,12.2-8.43       c5.7,1.04,9.44,6.5,8.43,12.2c-2.13,11.67-4.8,23.4-7.93,34.85c-1.53,5.58-7.29,8.88-12.88,7.35c-4.43-1.21-7.42-5.09-7.7-9.43       C1653.92,1242.08,1654.03,1240.92,1654.34,1239.76z M1661.52,1017.06c5.59-1.52,11.35,1.77,12.87,7.36       c3.12,11.44,5.78,23.17,7.92,34.86c1.07,5.7-2.73,11.16-8.42,12.2c-5.69,1.04-11.16-2.73-12.2-8.42       c-2.04-11.11-4.57-22.26-7.53-33.13c-0.19-0.69-0.3-1.39-0.35-2.08C1653.5,1022.98,1656.63,1018.4,1661.52,1017.06z        M1667.96,1151.87c0.46-11.26,0.45-22.68-0.05-33.96c-0.26-5.79,4.22-10.68,10.01-10.94c5.71-0.25,10.55,4.11,10.93,9.79       c0,0.07,0.01,0.15,0.01,0.22c0.53,11.87,0.55,23.9,0.06,35.74c-0.24,5.79-5.12,10.28-10.91,10.05       c-5.4-0.22-9.69-4.5-10.03-9.78C1667.96,1152.62,1667.95,1152.24,1667.96,1151.87z"/>
					
						<linearGradient id="SVGID_00000027570164383661441180000016994148572035259800_" gradientUnits="userSpaceOnUse" x1="5112.9331" y1="4079.9431" x2="5147.8594" y2="4079.9431" gradientTransform="matrix(-0.0653 -0.9979 -0.9979 0.0653 6001.481 5740.6792)">
						<stop offset="0" style="stop-color:#B37CFF"/>
						<stop offset="1" style="stop-color:#F895E7"/>
					</linearGradient>
					<path style="fill:url(#SVGID_00000027570164383661441180000016994148572035259800_);" d="M1579.54,881.51       c0.13,2.06,0.88,4.1,2.26,5.84c3.37,4.23,6.71,8.59,9.92,12.98c3.42,4.67,9.98,5.68,14.65,2.26c4.67-3.42,5.69-9.99,2.26-14.65       c-3.38-4.62-6.89-9.21-10.44-13.66c-3.61-4.53-10.21-5.27-14.73-1.66C1580.67,874.84,1579.32,878.2,1579.54,881.51z"/>
				</g>
				<g class="st2">
					
						<linearGradient id="SVGID_00000114769346322182243380000010594052429508564922_" gradientUnits="userSpaceOnUse" x1="5294.2217" y1="4346.8223" x2="5318.1885" y2="4346.8223" gradientTransform="matrix(-0.0653 -0.9979 -0.9979 0.0653 6001.481 5740.6792)">
						<stop offset="0" style="stop-color:#B37CFF"/>
						<stop offset="1" style="stop-color:#F895E7"/>
					</linearGradient>
					<path style="fill:url(#SVGID_00000114769346322182243380000010594052429508564922_);" d="M1298.5,729.21       c0.33,5.05,4.28,9.25,9.48,9.74c5.38,0.5,10.84,1.13,16.23,1.86c5.74,0.78,11.02-3.24,11.8-8.98       c0.78-5.76-3.25-11.02-8.98-11.8c-5.67-0.77-11.42-1.43-17.09-1.96c-5.77-0.54-10.88,3.7-11.42,9.46       C1298.47,728.1,1298.46,728.66,1298.5,729.21z"/>
					
						<linearGradient id="SVGID_00000049929722108389607390000012301048833124819124_" gradientUnits="userSpaceOnUse" x1="-3747.5288" y1="4893.2583" x2="-3109.2063" y2="4893.2583" gradientTransform="matrix(1.900000e-03 1 -1 1.900000e-03 5957.6851 4455.2368)">
						<stop offset="0" style="stop-color:#B37CFF"/>
						<stop offset="1" style="stop-color:#F895E7"/>
					</linearGradient>
					<path style="fill:url(#SVGID_00000049929722108389607390000012301048833124819124_);" d="M851.7,1141.37       c-0.1-5.79,4.52-10.56,10.32-10.65c5.79-0.09,10.55,4.52,10.65,10.31c0.18,11.02,0.83,22.21,1.94,33.38       c0.59,5.73-3.64,10.9-9.4,11.47c-5.76,0.57-10.9-3.64-11.47-9.4c-0.48-4.84-0.88-9.67-1.19-14.48       C852.09,1155.13,851.81,1148.19,851.7,1141.37z M870.99,1220.19c5.63-1.35,11.29,2.13,12.63,7.76       c2.59,10.81,5.66,21.63,9.13,32.16c1.83,5.49-1.17,11.43-6.67,13.24c-5.5,1.81-11.43-1.18-13.24-6.67       c-3.66-11.08-6.89-22.47-9.61-33.85c-0.14-0.59-0.23-1.18-0.27-1.77C862.63,1226.05,865.94,1221.39,870.99,1220.19z        M854.68,1084.31c1.41-11.58,3.33-23.26,5.71-34.71c1.18-5.67,6.73-9.31,12.4-8.13c5.67,1.18,9.3,6.73,8.13,12.4       c-2.27,10.88-4.09,21.97-5.42,32.96c-0.7,5.75-5.92,9.84-11.67,9.15c-5.08-0.62-8.87-4.78-9.2-9.71       C854.58,1085.63,854.6,1084.97,854.68,1084.31z M899.21,1305.56c5.2-2.55,11.48-0.4,14.03,4.79       c4.89,9.97,10.26,19.84,15.97,29.35c2.98,4.97,1.37,11.4-3.59,14.38c-4.96,2.98-11.4,1.37-14.38-3.59       c-6.01-10.02-11.67-20.41-16.82-30.91c-0.62-1.27-0.97-2.6-1.05-3.93C893.09,1311.55,895.28,1307.49,899.21,1305.56z        M875.85,994.64c3.92-10.98,8.36-21.95,13.2-32.6c2.4-5.27,8.61-7.6,13.88-5.21c5.27,2.4,7.6,8.61,5.21,13.88       c-4.6,10.12-8.82,20.53-12.54,30.96c-1.95,5.45-7.95,8.3-13.4,6.35c-4.06-1.45-6.68-5.15-6.94-9.2       C875.17,997.46,875.35,996.03,875.85,994.64z M916.17,911.78c6.24-9.88,12.96-19.62,19.99-28.93       c3.49-4.62,10.06-5.54,14.69-2.05c4.63,3.49,5.55,10.07,2.05,14.68c-6.68,8.85-13.07,18.1-19,27.49       c-3.09,4.9-9.57,6.36-14.46,3.27c-2.95-1.86-4.65-4.96-4.87-8.19C914.43,915.92,914.94,913.73,916.17,911.78z M973.59,839.68       c8.24-8.29,16.93-16.33,25.82-23.89c4.41-3.75,11.03-3.22,14.78,1.19c3.76,4.42,3.22,11.03-1.19,14.78       c-8.44,7.18-16.7,14.82-24.53,22.7c-4.08,4.11-10.72,4.13-14.83,0.04c-1.89-1.88-2.91-4.29-3.07-6.75       C970.37,844.86,971.38,841.9,973.59,839.68z M1045.37,781.82c9.86-6.29,20.1-12.23,30.44-17.66       c5.13-2.69,11.47-0.72,14.16,4.41c2.69,5.12,0.71,11.46-4.41,14.16c-9.82,5.15-19.54,10.79-28.91,16.77       c-4.88,3.11-11.36,1.68-14.48-3.2c-0.98-1.54-1.51-3.24-1.62-4.95C1040.31,787.66,1042.03,783.95,1045.37,781.82z        M1128.16,741.13c10.97-3.95,22.26-7.49,33.56-10.51c5.59-1.5,11.34,1.83,12.84,7.42c1.49,5.58-1.82,11.34-7.42,12.84       c-10.73,2.87-21.45,6.23-31.88,9.98c-5.45,1.96-11.45-0.86-13.42-6.31c-0.34-0.95-0.54-1.91-0.6-2.87       C1120.94,747.13,1123.66,742.75,1128.16,741.13z M1217.76,719.62c8.53-1.08,17.19-1.92,25.76-2.48c3.1-0.2,6.19-0.37,9.28-0.5       c5.78-0.25,10.79,4.16,10.93,10.02c0.26,5.78-4.23,10.68-10.02,10.93c-2.93,0.13-5.88,0.29-8.83,0.48       c-8.14,0.53-16.38,1.32-24.48,2.35c-5.74,0.73-10.99-3.34-11.72-9.08c-0.03-0.22-0.05-0.43-0.06-0.65       C1208.26,725.21,1212.24,720.33,1217.76,719.62z"/>
					
						<linearGradient id="SVGID_00000102508850642606046020000012542122499917369734_" gradientUnits="userSpaceOnUse" x1="4645.9409" y1="4749.2812" x2="4680.4219" y2="4749.2812" gradientTransform="matrix(-0.0653 -0.9979 -0.9979 0.0653 6001.481 5740.6792)">
						<stop offset="0" style="stop-color:#B37CFF"/>
						<stop offset="1" style="stop-color:#F895E7"/>
					</linearGradient>
					<path style="fill:url(#SVGID_00000102508850642606046020000012542122499917369734_);" d="M941.81,1391.69       c0.14,2.08,0.89,4.14,2.29,5.88c3.56,4.42,7.28,8.85,11.06,13.16c3.82,4.36,10.44,4.8,14.79,0.98       c4.36-3.82,4.8-10.44,0.98-14.79c-3.59-4.1-7.12-8.31-10.5-12.5c-3.63-4.51-10.23-5.22-14.74-1.59       C942.94,1385.06,941.6,1388.4,941.81,1391.69z"/>
				</g>
				<g>
					
						<linearGradient id="SVGID_00000127747761462434234320000000317627841256574593_" gradientUnits="userSpaceOnUse" x1="-4326.498" y1="3336.4753" x2="-2034.4545" y2="6420.0156" gradientTransform="matrix(1.900000e-03 1 -1 1.900000e-03 5957.6851 4455.2368)">
						<stop offset="0" style="stop-color:#A737D5"/>
						<stop offset="1" style="stop-color:#EF497A"/>
					</linearGradient>
					<path style="fill:url(#SVGID_00000127747761462434234320000000317627841256574593_);" d="M1120.5,1411.15       c1.7,1.21,3.99,1.21,5.69,0l48.55-34.64c25.77,10.56,53.41,17.1,82.02,18.92l28.49,52.35c1,1.84,3.05,2.84,5.12,2.49       l70.55-11.84c2.06-0.35,3.68-1.96,4.02-4.02l9.84-58.79c26.44-11.07,50.44-26.26,71.35-44.66l57.2,16.89       c2.01,0.59,4.17-0.15,5.38-1.86l41.52-58.26c1.21-1.7,1.21-3.99,0-5.69l-34.64-48.55c10.57-25.77,17.1-53.41,18.92-82.02       l52.35-28.49c1.84-1,2.84-3.05,2.49-5.12l-11.84-70.55c-0.35-2.06-1.96-3.68-4.02-4.02l-58.79-9.84       c-11.07-26.44-26.26-50.44-44.66-71.35l16.89-57.2c0.59-2-0.15-4.17-1.86-5.38l-58.26-41.52c-1.7-1.21-3.99-1.21-5.69,0       l-48.56,34.64c-25.77-10.57-53.41-17.1-82.02-18.92l-28.49-52.35c-1-1.84-3.05-2.84-5.11-2.49l-70.55,11.84       c-2.06,0.35-3.68,1.96-4.02,4.02l-9.84,58.79c-26.44,11.07-50.44,26.26-71.35,44.66l-57.2-16.89c-2-0.59-4.16,0.15-5.38,1.86       l-41.52,58.26c-1.21,1.7-1.21,3.99,0,5.69l34.64,48.55c-10.57,25.77-17.1,53.41-18.92,82.02l-52.35,28.49       c-1.83,1-2.84,3.05-2.49,5.12l11.84,70.55c0.35,2.06,1.96,3.68,4.02,4.02l58.79,9.84c11.07,26.44,26.27,50.44,44.66,71.35       l-16.89,57.2c-0.59,2,0.15,4.17,1.86,5.38L1120.5,1411.15z"/>
					<path class="st9" d="M1201.98,1128.77c3.21-39.52,37.97-69.06,77.49-65.86c19.15,1.55,36.54,10.47,48.98,25.11       c12.44,14.63,18.44,33.24,16.88,52.38c-3.21,39.52-37.97,69.06-77.49,65.86c-35.96-2.92-63.65-31.95-65.94-66.93       C1201.67,1135.86,1201.69,1132.33,1201.98,1128.77z M1315.67,1098.88c-9.54-11.22-22.87-18.06-37.55-19.25       c-30.3-2.46-56.96,20.19-59.41,50.49c-2.47,30.31,20.19,56.96,50.5,59.42c30.3,2.46,56.96-20.19,59.41-50.49       c0.22-2.75,0.24-5.48,0.06-8.18C1327.91,1119.13,1323.42,1108,1315.67,1098.88z"/>
					<path class="st9" d="M1098.16,1144.64c0.39,6.01,1.09,12.03,2.1,18.05l0,0c0.32,1.89,0.67,3.78,1.04,5.67       c1.87,9.29,4.47,18.41,7.77,27.23c0.04,0.12,0.09,0.24,0.13,0.36c0.13,0.34,0.26,0.68,0.39,1.02c0.25,0.66,0.51,1.32,0.77,1.98       c0.69,1.73,2.4,2.75,4.17,2.64c0.43-0.03,0.86-0.12,1.28-0.29c2.15-0.86,3.19-3.3,2.34-5.45c-4.41-11.07-7.65-22.7-9.63-34.55       c-9.89-58.86,12.19-115.83,53.54-153.11c22.99-20.74,51.95-35.39,84.69-40.88c5.74-0.96,11.49-1.63,17.22-2       c38.56-2.52,76.5,8.21,108.4,30.94c36.64,26.11,60.92,64.92,68.37,109.29c15.37,91.63-46.64,178.62-138.23,193.99       c-5.65,0.95-11.32,1.61-17,1.98c-24.6,1.61-49.28-2.19-72.25-11.2c-0.59-0.23-1.21-0.32-1.8-0.28       c-1.57,0.1-3.02,1.09-3.63,2.65c-0.84,2.16,0.21,4.59,2.37,5.44c24.12,9.46,50.02,13.45,75.85,11.76       c5.96-0.39,11.91-1.08,17.84-2.07c96.16-16.14,161.25-107.52,145.11-203.65c-7.82-46.58-33.31-87.32-71.77-114.73       c-33.48-23.86-73.32-35.13-113.8-32.48c-6.02,0.39-12.05,1.09-18.07,2.1c-46.58,7.82-87.33,33.31-114.74,71.77       C1106.77,1064.3,1095.51,1104.15,1098.16,1144.64z"/>
				</g>
			</g>
			<g>
				<g class="st2">
					
						<linearGradient id="SVGID_00000111877548398428594030000012378415450291357368_" gradientUnits="userSpaceOnUse" x1="4130.1196" y1="4735.5479" x2="4147.165" y2="4735.5479" gradientTransform="matrix(-0.0653 -0.9979 -0.9979 0.0653 6001.481 5740.6792)">
						<stop offset="0" style="stop-color:#B37CFF"/>
						<stop offset="1" style="stop-color:#F895E7"/>
					</linearGradient>
					<path style="fill:url(#SVGID_00000111877548398428594030000012378415450291357368_);" d="M991.21,1918.86       c0.18,2.8,2.17,5.25,5.05,5.89c5.36,1.2,10.84,2.26,16.27,3.13c3.53,0.57,6.85-1.83,7.43-5.36c0.59-3.53-1.83-6.85-5.36-7.43       c-5.18-0.84-10.39-1.84-15.51-2.99c-3.49-0.78-6.95,1.42-7.73,4.9C991.22,1917.64,991.17,1918.25,991.21,1918.86z"/>
					
						<linearGradient id="SVGID_00000160185379600379434870000011570418891490106281_" gradientUnits="userSpaceOnUse" x1="-2884.1492" y1="4763.769" x2="-2533.0857" y2="4763.769" gradientTransform="matrix(1.900000e-03 1 -1 1.900000e-03 5957.6851 4455.2368)">
						<stop offset="0" style="stop-color:#B37CFF"/>
						<stop offset="1" style="stop-color:#F895E7"/>
					</linearGradient>
					<path style="fill:url(#SVGID_00000160185379600379434870000011570418891490106281_);" d="M1040.61,1924.56       c0.13-3.57,3.13-6.36,6.71-6.23c9.02,0.33,18.16,0.19,27.17-0.4c1.9-0.12,3.8-0.27,5.71-0.44c3.56-0.31,6.7,2.33,7.01,5.89       c0.16,3.38-2.33,6.7-5.9,7.01c-2,0.17-3.99,0.32-5.98,0.45c-9.44,0.62-19.03,0.76-28.49,0.41c-3.35-0.12-6.01-2.77-6.23-6.04       C1040.6,1925.01,1040.6,1924.79,1040.61,1924.56z M1112.73,1912.67c10.71-2.26,21.37-5.21,31.69-8.76       c3.38-1.16,7.06,0.63,8.23,4.02c1.15,3.37-0.63,7.07-4.02,8.23c-10.82,3.72-22,6.81-33.22,9.18c-3.5,0.74-6.94-1.5-7.68-5       c-0.06-0.31-0.1-0.62-0.12-0.92C1107.4,1916.26,1109.54,1913.34,1112.73,1912.67z M1174.79,1891.3       c9.81-4.81,19.42-10.29,28.58-16.28c2.99-1.96,7.01-1.12,8.96,1.87c1.96,3,1.13,7-1.87,8.97       c-9.59,6.29-19.68,12.03-29.97,17.08c-3.21,1.57-7.09,0.25-8.67-2.96c-0.38-0.78-0.59-1.61-0.65-2.43       C1171.02,1895,1172.37,1892.49,1174.79,1891.3z M1229.71,1855.33c8.35-7.08,16.33-14.74,23.71-22.77       c2.43-2.63,6.52-2.8,9.15-0.38c2.62,2.42,2.8,6.52,0.38,9.15c-7.75,8.42-16.12,16.45-24.87,23.88       c-2.73,2.31-6.82,1.98-9.13-0.75c-0.93-1.1-1.43-2.42-1.52-3.76C1227.31,1858.72,1228.08,1856.71,1229.71,1855.33z        M1274.19,1807.04c6.37-8.89,12.25-18.26,17.48-27.85c1.71-3.14,5.64-4.3,8.79-2.58c3.14,1.71,4.31,5.64,2.58,8.79       c-5.48,10.05-11.64,19.87-18.31,29.19c-2.09,2.91-6.13,3.58-9.03,1.49c-1.64-1.18-2.57-2.98-2.69-4.85       C1272.9,1809.79,1273.28,1808.31,1274.19,1807.04z M1305.59,1749.42c4.01-10.16,7.42-20.67,10.14-31.24       c0.89-3.46,4.42-5.55,7.88-4.66c3.46,0.89,5.54,4.41,4.66,7.89c-2.85,11.08-6.43,22.11-10.64,32.77       c-1.32,3.32-5.07,4.96-8.4,3.65c-2.41-0.95-3.93-3.18-4.09-5.6C1305.09,1751.3,1305.22,1750.35,1305.59,1749.42z        M1321.94,1685.9c1.39-10.8,2.12-21.84,2.16-32.8c0.02-3.58,2.93-6.46,6.51-6.45c3.57,0.01,6.41,2.92,6.45,6.5       c-0.05,11.49-0.82,23.06-2.27,34.4c-0.46,3.55-3.7,6.05-7.25,5.6c-3.12-0.4-5.44-2.97-5.63-5.99       C1321.88,1686.75,1321.89,1686.33,1321.94,1685.9z M1321.07,1580.07c3.47-0.85,6.98,1.27,7.83,4.74       c2.37,9.61,4.24,19.52,5.58,29.42c0.21,1.5,0.4,3,0.58,4.51c0.52,3.52-2.12,6.77-5.68,7.19c-3.55,0.42-6.77-2.12-7.19-5.67       c-0.16-1.41-0.34-2.82-0.55-4.25c-1.28-9.48-3.07-18.93-5.32-28.1c-0.09-0.38-0.15-0.76-0.18-1.13       C1315.96,1583.7,1317.98,1580.83,1321.07,1580.07z"/>
				</g>
				<g class="st2">
					
						<linearGradient id="SVGID_00000044143819640249881360000007179919172270787474_" gradientUnits="userSpaceOnUse" x1="-3055.2554" y1="5100.5278" x2="-2667.0198" y2="5100.5278" gradientTransform="matrix(1.900000e-03 1 -1 1.900000e-03 5957.6851 4455.2368)">
						<stop offset="0" style="stop-color:#B37CFF"/>
						<stop offset="1" style="stop-color:#F895E7"/>
					</linearGradient>
					<path style="fill:url(#SVGID_00000044143819640249881360000007179919172270787474_);" d="M778.01,1666.11       c-0.59-11.27-0.49-22.67,0.27-33.9c0.25-3.57,3.34-6.26,6.91-6.02c3.57,0.24,6.23,3.36,6.02,6.91       c-0.74,10.7-0.83,21.58-0.26,32.33c0.19,3.57-2.56,6.62-6.13,6.8c-3.54,0.18-6.57-2.51-6.8-6.04       C778.01,1666.17,778.01,1666.14,778.01,1666.11z M787.09,1692.33c3.52-0.61,6.88,1.75,7.49,5.27       c1.85,10.6,4.35,21.19,7.45,31.49c1.02,3.41-0.91,7.04-4.34,8.07c-3.42,1.03-7.03-0.91-8.07-4.33       c-3.25-10.79-5.88-21.89-7.81-33c-0.04-0.23-0.07-0.46-0.08-0.7C781.52,1695.87,783.79,1692.9,787.09,1692.33z M782.67,1598.58       c2.15-11.09,5-22.13,8.46-32.84c1.1-3.4,4.76-5.27,8.16-4.17c3.41,1.1,5.26,4.74,4.17,8.15c-3.31,10.21-6.02,20.75-8.08,31.32       c-0.68,3.51-4.08,5.8-7.59,5.12c-2.95-0.57-5.04-3.07-5.23-5.93C782.53,1599.69,782.57,1599.14,782.67,1598.58z        M804.69,1756.11c3.27-1.44,7.09,0.04,8.54,3.31c4.34,9.84,9.33,19.51,14.83,28.75c1.82,3.07,0.82,7.05-2.25,8.88       c-3.07,1.83-7.05,0.83-8.88-2.25c-5.77-9.68-11.01-19.83-15.55-30.15c-0.31-0.71-0.49-1.45-0.54-2.19       C800.67,1759.82,802.14,1757.24,804.69,1756.11z M803.52,1534.19c4.74-10.22,10.16-20.25,16.11-29.83       c1.89-3.04,5.88-3.97,8.92-2.09c3.04,1.89,3.98,5.88,2.09,8.92c-5.68,9.13-10.84,18.7-15.36,28.45       c-1.51,3.24-5.36,4.65-8.6,3.15c-2.22-1.03-3.59-3.17-3.73-5.46C802.87,1536.29,803.05,1535.21,803.52,1534.19z        M839.21,1476.68c7.07-8.8,14.73-17.25,22.78-25.12c2.56-2.5,6.65-2.45,9.15,0.1c2.5,2.55,2.46,6.66-0.1,9.16       c-7.67,7.5-14.98,15.57-21.73,23.97c-2.24,2.79-6.32,3.23-9.1,0.99c-1.47-1.18-2.29-2.88-2.41-4.63       C837.69,1479.6,838.15,1477.99,839.21,1476.68z M887.64,1429.36c8.97-6.86,18.45-13.23,28.15-18.93       c3.09-1.81,7.05-0.78,8.86,2.31c1.81,3.08,0.77,7.05-2.3,8.86c-9.26,5.43-18.29,11.5-26.84,18.05       c-2.84,2.17-6.91,1.63-9.08-1.21c-0.81-1.05-1.24-2.27-1.32-3.5C884.98,1432.85,885.86,1430.73,887.64,1429.36z"/>
					
						<linearGradient id="SVGID_00000000902289792638233580000016542487751017106106_" gradientUnits="userSpaceOnUse" x1="4230.3994" y1="4888.1665" x2="4256.4771" y2="4888.1665" gradientTransform="matrix(-0.0653 -0.9979 -0.9979 0.0653 6001.481 5740.6792)">
						<stop offset="0" style="stop-color:#B37CFF"/>
						<stop offset="1" style="stop-color:#F895E7"/>
					</linearGradient>
					<path style="fill:url(#SVGID_00000000902289792638233580000016542487751017106106_);" d="M834.88,1819.54       c0.08,1.25,0.52,2.48,1.35,3.54c3.4,4.38,6.94,8.67,10.53,12.77c2.36,2.69,6.45,2.96,9.14,0.61c2.68-2.36,2.96-6.45,0.61-9.14       c-3.42-3.91-6.8-8.01-10.05-12.19c-2.19-2.83-6.26-3.34-9.09-1.14C835.61,1815.37,834.74,1817.47,834.88,1819.54z"/>
				</g>
				<g>
					
						<linearGradient id="SVGID_00000050661214321765589370000000546959411426537610_" gradientUnits="userSpaceOnUse" x1="-4096.8823" y1="3165.7859" x2="-1804.8372" y2="6249.3281" gradientTransform="matrix(1.900000e-03 1 -1 1.900000e-03 5957.6851 4455.2368)">
						<stop offset="0" style="stop-color:#A737D5"/>
						<stop offset="1" style="stop-color:#EF497A"/>
					</linearGradient>
					<path style="fill:url(#SVGID_00000050661214321765589370000000546959411426537610_);" d="M956.99,1836.48       c1.14,0.81,2.67,0.81,3.81,0l32.49-23.18c17.25,7.07,35.74,11.44,54.88,12.66l19.06,35.03c0.67,1.23,2.04,1.9,3.42,1.67       l47.21-7.92c1.38-0.23,2.46-1.31,2.69-2.69l6.58-39.34c17.69-7.41,33.75-17.57,47.74-29.89l38.28,11.3       c1.34,0.4,2.79-0.1,3.6-1.24l27.78-38.99c0.81-1.14,0.81-2.67,0-3.81l-23.18-32.49c7.07-17.25,11.44-35.74,12.66-54.88       l35.03-19.06c1.23-0.67,1.9-2.04,1.67-3.42l-7.92-47.21c-0.23-1.38-1.31-2.46-2.69-2.69l-39.34-6.58       c-7.41-17.69-17.57-33.75-29.89-47.74l11.3-38.28c0.4-1.34-0.1-2.79-1.24-3.6l-38.99-27.78c-1.14-0.81-2.67-0.81-3.81,0       l-32.49,23.18c-17.24-7.07-35.74-11.44-54.88-12.66l-19.06-35.03c-0.67-1.23-2.04-1.9-3.42-1.67l-47.21,7.92       c-1.38,0.23-2.46,1.31-2.69,2.69l-6.58,39.34c-17.69,7.41-33.75,17.57-47.74,29.89l-38.28-11.3c-1.34-0.4-2.79,0.1-3.6,1.24       l-27.78,38.99c-0.81,1.14-0.81,2.67,0,3.81l23.18,32.49c-7.07,17.25-11.44,35.74-12.66,54.88l-35.03,19.06       c-1.23,0.67-1.9,2.04-1.67,3.42l7.92,47.21c0.23,1.38,1.31,2.46,2.69,2.69l39.34,6.58c7.41,17.69,17.58,33.75,29.89,47.74       l-11.3,38.28c-0.4,1.34,0.1,2.79,1.24,3.6L956.99,1836.48z"/>
					<path class="st9" d="M1010.65,1647.46c1.05-13.04,7.13-24.89,17.1-33.37c9.97-8.47,22.64-12.56,35.68-11.5       c26.92,2.18,47,25.83,44.86,52.79c-2.19,26.92-25.87,47.04-52.78,44.86c-13.04-1.06-24.89-7.13-33.36-17.1       c-6.89-8.1-10.87-18-11.56-28.42C1010.44,1652.32,1010.45,1649.9,1010.65,1647.46z M1062.39,1615.5       c-9.6-0.78-18.92,2.22-26.25,8.46c-7.33,6.23-11.8,14.95-12.58,24.54l0,0c-0.77,9.59,2.23,18.91,8.46,26.25       c6.23,7.33,14.95,11.8,24.54,12.58c19.8,1.61,37.22-13.19,38.83-32.99c0.14-1.79,0.15-3.55,0.04-5.29       C1094.28,1631.52,1080.4,1616.97,1062.39,1615.5z"/>
					<path class="st9" d="M938.39,1658.51c0.27,4.09,0.75,8.2,1.43,12.32c1.37,8.19,3.58,16.25,6.57,23.97       c0.14,0.35,0.27,0.69,0.41,1.04c1.06,2.68,3.71,4.25,6.43,4.07c0.66-0.04,1.33-0.19,1.98-0.45c3.32-1.32,4.93-5.09,3.62-8.41       c-2.86-7.18-4.95-14.71-6.24-22.36l0,0c-0.07-0.42-0.14-0.84-0.2-1.26c-2.87-18.14-1.1-36.31,4.89-53.17       c3.25-9.15,7.76-17.92,13.47-26.09c0.05-0.07,0.09-0.13,0.14-0.2c0.15-0.2,0.28-0.41,0.43-0.61       c16.9-23.72,42.03-39.44,70.75-44.26c3.72-0.63,7.43-1.06,11.15-1.3c24.96-1.63,49.53,5.32,70.18,20.03       c23.72,16.9,39.43,42.03,44.25,70.75c4.81,28.7-1.83,57.6-18.73,81.32c-16.9,23.72-42.03,39.44-70.75,44.26       c-3.65,0.62-7.33,1.04-11,1.28c-15.93,1.04-31.9-1.42-46.77-7.25c-0.92-0.36-1.86-0.5-2.79-0.43c-2.42,0.16-4.66,1.68-5.61,4.1       c-1.3,3.33,0.33,7.09,3.67,8.4c16.64,6.53,34.51,9.28,52.33,8.12c4.11-0.27,8.22-0.74,12.31-1.43       c32.14-5.4,60.25-22.98,79.16-49.52c18.91-26.54,26.37-58.83,20.96-90.98c-5.39-32.14-22.97-60.25-49.52-79.15       c-23.1-16.46-50.58-24.24-78.51-22.41c-4.15,0.27-8.31,0.75-12.47,1.45C977.72,1540.78,934.36,1596.86,938.39,1658.51z"/>
				</g>
			</g>
		</g>
		<g>
			
				<linearGradient id="SVGID_00000069385462658110081860000006344069946346625164_" gradientUnits="userSpaceOnUse" x1="1919.905" y1="2494.6697" x2="1917.8135" y2="2906.7605">
				<stop offset="0" style="stop-color:#53D8FF"/>
				<stop offset="1" style="stop-color:#3840F7"/>
			</linearGradient>
			<path style="fill:url(#SVGID_00000069385462658110081860000006344069946346625164_);" d="M2174.02,2641.82     c-0.9-11.17-12.31-20.84-31.63-28.59c21-11.58,32.61-23.99,31.63-36.16c-2.97-36.83-119.6-57.48-260.51-46.12     c-140.91,11.36-252.73,50.43-249.76,87.26c0.9,11.17,12.31,20.84,31.63,28.59c-21,11.58-32.61,23.99-31.63,36.16     c0.9,11.17,12.31,20.84,31.63,28.59c-21,11.58-32.61,23.99-31.63,36.16c0.9,11.17,12.31,20.84,31.63,28.59     c-21,11.58-32.61,23.99-31.63,36.16c1.31,16.29,24.89,29.4,62.93,37.99c-0.49,12.04-0.22,25.23,0.96,39.8     c5.51,67.87,81.85,121.08,182.81,121.08c100.97,0,188.35-72.55,189.35-140.63c0.24-16.68-0.47-31.37-1.98-44.42     c48.31-16.13,77.73-35.84,76.19-54.95c-0.9-11.17-12.31-20.84-31.63-28.59c21-11.58,32.61-23.99,31.63-36.16     c-0.9-11.17-12.31-20.84-31.63-28.59C2163.39,2666.4,2175,2653.99,2174.02,2641.82z"/>
			<g>
				
					<linearGradient id="SVGID_00000094579082666332398010000015818113590352278408_" gradientUnits="userSpaceOnUse" x1="1893.9238" y1="2897.4844" x2="1672.8269" y2="3702.9106">
					<stop offset="0" style="stop-color:#53D8FF"/>
					<stop offset="1" style="stop-color:#3840F7"/>
				</linearGradient>
				<path style="fill:url(#SVGID_00000094579082666332398010000015818113590352278408_);" d="M1848.31,2865.12      c-41.85,0-80.14-3.08-111.78-9.14c-1.84-0.35-3.04-2.12-2.69-3.96c0.35-1.83,2.12-3.04,3.96-2.69      c49.51,9.48,115.63,11.57,186.19,5.88c57.74-4.66,111.73-13.97,156.14-26.93c1.8-0.52,3.67,0.51,4.2,2.3      c0.52,1.79-0.51,3.67-2.3,4.2c-44.85,13.09-99.31,22.49-157.5,27.18C1898.33,2864.07,1872.72,2865.12,1848.31,2865.12z"/>
				
					<linearGradient id="SVGID_00000137090331350514528370000015811159401334521522_" gradientUnits="userSpaceOnUse" x1="1885.7424" y1="2895.2363" x2="1664.6459" y2="3700.6614">
					<stop offset="0" style="stop-color:#53D8FF"/>
					<stop offset="1" style="stop-color:#3840F7"/>
				</linearGradient>
				<path style="fill:url(#SVGID_00000137090331350514528370000015811159401334521522_);" d="M1849.01,2800.31      c-54.37,0-102.96-5.11-137.23-14.87c-1.8-0.51-2.84-2.38-2.33-4.18c0.51-1.8,2.38-2.84,4.18-2.33      c48.84,13.91,127.48,18.22,210.36,11.54c81.99-6.61,158.45-23.25,204.54-44.5c1.7-0.78,3.71-0.04,4.49,1.66      c0.78,1.7,0.04,3.71-1.66,4.49c-46.77,21.57-124.09,38.43-206.83,45.1C1898.72,2799.29,1873.29,2800.31,1849.01,2800.31z"/>
				
					<linearGradient id="SVGID_00000095335304995481076680000003396955118533188482_" gradientUnits="userSpaceOnUse" x1="1865.1876" y1="2889.595" x2="1644.0898" y2="3695.0244">
					<stop offset="0" style="stop-color:#53D8FF"/>
					<stop offset="1" style="stop-color:#3840F7"/>
				</linearGradient>
				<path style="fill:url(#SVGID_00000095335304995481076680000003396955118533188482_);" d="M1848.32,2735.6      c-58.71,0-110.08-6.01-144.66-17.41c-1.78-0.58-2.74-2.5-2.16-4.27c0.58-1.78,2.49-2.74,4.27-2.16      c48.12,15.87,129.69,21.08,218.21,13.94c81.98-6.61,158.44-23.25,204.54-44.51c1.7-0.78,3.71-0.04,4.49,1.66      c0.78,1.7,0.04,3.71-1.66,4.49c-46.78,21.57-124.1,38.44-206.83,45.11C1898.32,2734.57,1872.69,2735.6,1848.32,2735.6z"/>
				
					<linearGradient id="SVGID_00000148650235900375173060000001546377064877599925_" gradientUnits="userSpaceOnUse" x1="1859.6816" y1="2888.0842" x2="1638.5836" y2="3693.5146">
					<stop offset="0" style="stop-color:#53D8FF"/>
					<stop offset="1" style="stop-color:#3840F7"/>
				</linearGradient>
				<path style="fill:url(#SVGID_00000148650235900375173060000001546377064877599925_);" d="M1848.77,2670.82      c-46.57,0-88.92-3.76-121.85-11.08c-1.82-0.41-2.98-2.21-2.57-4.04c0.41-1.83,2.22-2.98,4.04-2.57      c49.51,11,120.81,13.85,195.61,7.82c81.25-6.55,157.32-23.01,203.49-44.03c1.7-0.78,3.71-0.02,4.48,1.68      c0.78,1.7,0.02,3.71-1.68,4.48c-46.84,21.32-123.76,38-205.75,44.61C1898.63,2669.79,1873.12,2670.82,1848.77,2670.82z"/>
			</g>
			
				<linearGradient id="SVGID_00000152973286548925563080000005472540215037184183_" gradientUnits="userSpaceOnUse" x1="1927.7495" y1="1346.0132" x2="1860.0667" y2="3187.0005">
				<stop offset="0" style="stop-color:#FDF53F"/>
				<stop offset="1" style="stop-color:#D93C65"/>
			</linearGradient>
			<path style="fill:url(#SVGID_00000152973286548925563080000005472540215037184183_);" d="M1569.18,2314.97     c-17.11-60.62-46.18-117.26-85.33-166.6c-83.88-105.72-220.73-320.72-237.57-614.16c-24.5-426.82,354.04-640.51,699.47-611.5     c345.43,29.01,686.27,286.21,648.96,683.28c-22.96,244.32-159.71,429.64-261.53,536.07c-64.65,67.58-110.77,150.36-135.74,240.49     c-30.56,110.32-103.27,247.8-276.11,256.18C1697.68,2649.57,1604.79,2441.11,1569.18,2314.97z"/>
			
				<linearGradient id="SVGID_00000155847610400922251350000008643467514864973698_" gradientUnits="userSpaceOnUse" x1="2047.1317" y1="1992.879" x2="2096.7659" y2="3569.8965">
				<stop offset="0" style="stop-color:#FDF53F"/>
				<stop offset="1" style="stop-color:#D93C65"/>
			</linearGradient>
			<path style="fill:url(#SVGID_00000155847610400922251350000008643467514864973698_);" d="M1978.46,2553.61l120.86-786.11     c2.5-16.24,10.49-27.15,17.85-24.36c7.36,2.79,11.31,18.21,8.81,34.45c-0.07,0.43-0.16,0.97-0.23,1.39l-137.67,778.81     c-1.03,5.86-4.01,9.56-6.64,8.26C1978.88,2564.8,1977.59,2559.28,1978.46,2553.61z"/>
			
				<linearGradient id="SVGID_00000061451076208158768300000007676692738947796374_" gradientUnits="userSpaceOnUse" x1="1773.7195" y1="2001.485" x2="1823.3538" y2="3578.5059">
				<stop offset="0" style="stop-color:#FDF53F"/>
				<stop offset="1" style="stop-color:#D93C65"/>
			</linearGradient>
			<path style="fill:url(#SVGID_00000061451076208158768300000007676692738947796374_);" d="M1853,2559.85l-120.86-786.11     c-2.5-16.24-10.49-27.15-17.85-24.36c-7.36,2.79-11.31,18.21-8.81,34.45c0.07,0.43,0.16,0.97,0.23,1.39l137.67,778.81     c1.04,5.86,4.01,9.56,6.64,8.26C1852.57,2571.04,1853.86,2565.52,1853,2559.85z"/>
			<path class="st0" d="M2098.45,1700c-3.07-4.94-10.17-6.78-15.87-4.12l-67.3,31.45l-23.36-66.56c-1.24-3.47-4.1-6.55-8.18-8.23     c-7.74-3.19-17-0.34-20.68,6.37l-0.12,0.22l-55.35,100.91l-51.36-143.66l-0.09-0.24c-1.26-3.51-3.91-6.66-7.77-8.77     c-8.61-4.7-19.99-2.46-25.41,5.01l-77.38,106.52c-3.15,4.37-2.06,10.22,2.73,13.44c5.11,3.45,12.48,2.64,16.45-1.79l68.13-76     l61.34,136.66l0.05,0.11c0.98,2.19,2.83,4.09,5.4,5.3c5.76,2.7,12.94,0.84,16.05-4.15l59.19-94.99l22.28,48.04l0.2,0.43     c0.16,0.35,0.34,0.69,0.55,1.02c3.07,4.93,10.16,6.77,15.85,4.12l79.89-37.33C2099.4,1711.1,2101.52,1704.94,2098.45,1700z"/>
			<path class="st0" d="M2335.8,2047.02c-4.49,0-9.02-1.39-12.89-4.26c-9.6-7.13-11.61-20.69-4.48-30.3     c20.44-27.54,39.17-55.99,55.67-84.56c5.98-10.35,19.22-13.9,29.58-7.92c10.36,5.98,13.91,19.22,7.92,29.58     c-17.33,30.01-36.97,59.85-58.39,88.72C2348.96,2044,2342.42,2047.02,2335.8,2047.02z"/>
			<path class="st0" d="M2435.24,1876.38c-2.88,0-5.8-0.58-8.61-1.8c-10.97-4.77-16-17.52-11.24-28.49     c126.6-291.57,17.61-535.88,16.49-538.32c-4.98-10.87-0.21-23.72,10.67-28.71c10.9-4.97,23.73-0.2,28.71,10.67     c4.88,10.65,118.09,264.49-16.14,573.62C2451.57,1871.51,2443.6,1876.38,2435.24,1876.38z"/>
		</g>
		<g>
			<g>
				<g>
					
						<linearGradient id="SVGID_00000003804116130365307260000010381966067955259557_" gradientUnits="userSpaceOnUse" x1="13274.3779" y1="2916.5962" x2="11948.874" y2="3775.8528" gradientTransform="matrix(1 0 0 1 -10580.9297 0)">
						<stop offset="0" style="stop-color:#B37CFF"/>
						<stop offset="1" style="stop-color:#F895E7"/>
					</linearGradient>
					<path style="fill:url(#SVGID_00000003804116130365307260000010381966067955259557_);" d="M3209.48,3190.13l-1433.4,0v-286.9       l1433.4,0C3178.8,2903.24,3178.8,3190.13,3209.48,3190.13z"/>
					
						<linearGradient id="SVGID_00000021839893521199395090000013103112265297847975_" gradientUnits="userSpaceOnUse" x1="539.8675" y1="3006.9463" x2="-2443.8796" y2="3074.5005" gradientTransform="matrix(-1 0 0 1 1281.3782 0)">
						<stop offset="0" style="stop-color:#CB236D"/>
						<stop offset="1" style="stop-color:#4C246D"/>
					</linearGradient>
					<path style="fill:url(#SVGID_00000021839893521199395090000013103112265297847975_);" d="M1776.07,3118.34v-131.3       c0-46.28,28.33-83.8,63.27-83.8h1410.47c1.86,0,3.37-1.52,3.37-3.37v-58.13c0-1.85-1.52-3.37-3.37-3.37H1747.22       c-34.19,0-88.47,53.75-88.47,120.06v183.37c0,62.52,52.7,113.2,84.93,113.2h1506.13c1.86,0,3.37-1.52,3.37-3.37v-58.12       c0-1.86-1.52-3.37-3.37-3.37H1830.27C1800.34,3190.13,1776.07,3157.99,1776.07,3118.34z"/>
				</g>
				<path class="st0" d="M3159.84,2965.48H1815.83c-1.86,0-3.37-1.51-3.37-3.37c0-1.86,1.51-3.37,3.37-3.37h1344.01      c1.86,0,3.37,1.51,3.37,3.37C3163.21,2963.97,3161.7,2965.48,3159.84,2965.48z"/>
				<path class="st0" d="M3159.84,3008.06H1815.83c-1.86,0-3.37-1.51-3.37-3.37c0-1.86,1.51-3.37,3.37-3.37h1344.01      c1.86,0,3.37,1.51,3.37,3.37C3163.21,3006.55,3161.7,3008.06,3159.84,3008.06z"/>
				<path class="st0" d="M3159.84,3050.64H1815.83c-1.86,0-3.37-1.51-3.37-3.37c0-1.86,1.51-3.37,3.37-3.37h1344.01      c1.86,0,3.37,1.51,3.37,3.37C3163.21,3049.13,3161.7,3050.64,3159.84,3050.64z"/>
				<path class="st0" d="M3159.84,3093.23H1815.83c-1.86,0-3.37-1.51-3.37-3.37c0-1.86,1.51-3.37,3.37-3.37h1344.01      c1.86,0,3.37,1.51,3.37,3.37C3163.21,3091.72,3161.7,3093.23,3159.84,3093.23z"/>
				<path class="st0" d="M3159.84,3135.81H1815.83c-1.86,0-3.37-1.51-3.37-3.37c0-1.86,1.51-3.37,3.37-3.37h1344.01      c1.86,0,3.37,1.51,3.37,3.37C3163.21,3134.3,3161.7,3135.81,3159.84,3135.81z"/>
			</g>
			<g>
				
					<linearGradient id="SVGID_00000020372078122199102950000004691185595723212697_" gradientUnits="userSpaceOnUse" x1="2445.8899" y1="3447.3022" x2="2868.4272" y2="1198.8063">
					<stop offset="0" style="stop-color:#2B3582"/>
					<stop offset="1" style="stop-color:#150E42"/>
				</linearGradient>
				<path style="fill:url(#SVGID_00000020372078122199102950000004691185595723212697_);" d="M1938.34,2840.31h1295.75      c7.62,0,13.8-6.18,13.8-13.8v-251.88c0-7.62-6.18-13.8-13.8-13.8H1938.34c-7.62,0-13.8,6.18-13.8,13.8v251.88      C1924.54,2834.13,1930.72,2840.31,1938.34,2840.31z"/>
				
					<linearGradient id="SVGID_00000169547337737343264080000009546394865897108362_" gradientUnits="userSpaceOnUse" x1="3731.1687" y1="1720.8245" x2="2849.6182" y2="2986.9919">
					<stop offset="0" style="stop-color:#53D8FF"/>
					<stop offset="1" style="stop-color:#3840F7"/>
				</linearGradient>
				<polygon style="opacity:0.3;fill:url(#SVGID_00000169547337737343264080000009546394865897108362_);" points="2981.02,2808.19       3117.04,2808.19 3117.04,2592.95 2981.02,2592.95     "/>
				
					<linearGradient id="SVGID_00000097467665335093446700000006176870128697224883_" gradientUnits="userSpaceOnUse" x1="3654.7029" y1="1667.5846" x2="2773.1528" y2="2933.7512">
					<stop offset="0" style="stop-color:#53D8FF"/>
					<stop offset="1" style="stop-color:#3840F7"/>
				</linearGradient>
				<polygon style="opacity:0.3;fill:url(#SVGID_00000097467665335093446700000006176870128697224883_);" points="2909.98,2808.19       2961.02,2808.19 2961.02,2592.95 2909.98,2592.95     "/>
			</g>
		</g>
		<g>
			<g>
				
					<linearGradient id="SVGID_00000072958394681512783460000003212920831372692608_" gradientUnits="userSpaceOnUse" x1="13883.9932" y1="3162.4873" x2="13952.9453" y2="2728.7593" gradientTransform="matrix(1 0 0 1 -13039.751 0)">
					<stop offset="0" style="stop-color:#CB236D"/>
					<stop offset="1" style="stop-color:#4C246D"/>
				</linearGradient>
				
					<rect x="853.2" y="2833.34" style="fill:url(#SVGID_00000072958394681512783460000003212920831372692608_);" width="31.9" height="345"/>
				
					<linearGradient id="SVGID_00000109030292941717548250000013235165891735487145_" gradientUnits="userSpaceOnUse" x1="13911.0039" y1="3165.7852" x2="13981.6406" y2="2721.4541" gradientTransform="matrix(1 0 0 1 -13039.751 0)">
					<stop offset="0" style="stop-color:#CB236D"/>
					<stop offset="1" style="stop-color:#4C246D"/>
				</linearGradient>
				<path style="fill:url(#SVGID_00000109030292941717548250000013235165891735487145_);" d="M1008.85,3184.99H729.44v-11.14      c0-5.32,4.31-9.63,9.63-9.63h259.4c5.73,0,10.38,4.65,10.38,10.38V3184.99z"/>
				
					<linearGradient id="SVGID_00000115511422242006251710000003828368703247250615_" gradientUnits="userSpaceOnUse" x1="13855.1982" y1="3178.8162" x2="13928.4775" y2="2717.8672" gradientTransform="matrix(1 0 0 1 -13039.751 0)">
					<stop offset="0" style="stop-color:#FDF53F"/>
					<stop offset="1" style="stop-color:#D93C65"/>
				</linearGradient>
				<path style="fill:url(#SVGID_00000115511422242006251710000003828368703247250615_);" d="M1061.69,2820.61      c0,20.05-16.41,36.46-36.46,36.46H724.8c-20.05,0-36.46-16.41-36.46-36.46v-32.97c0-20.05,16.41-36.46,36.46-36.46h300.44      c20.05,0,36.46,16.41,36.46,36.46V2820.61z"/>
			</g>
			<g>
				
					<linearGradient id="SVGID_00000008110843801202866930000010948673637777651340_" gradientUnits="userSpaceOnUse" x1="4182.6113" y1="3048.8494" x2="4126.2949" y2="3159.6045" gradientTransform="matrix(1 0 0 1 -2917.5227 0)">
					<stop offset="0" style="stop-color:#2B3582"/>
					<stop offset="1" style="stop-color:#150E42"/>
				</linearGradient>
				<path style="fill:url(#SVGID_00000008110843801202866930000010948673637777651340_);" d="M1187.44,3115.03      c0,0,91.1,65.66,75.28,109.78c0,0-99.67-43-111.71-76.88c-12.04-33.88,2.04-48.84,2.04-48.84L1187.44,3115.03z"/>
				
					<linearGradient id="SVGID_00000023278322356931965010000007952034849036708224_" gradientUnits="userSpaceOnUse" x1="4075.522" y1="3092.9253" x2="4131.623" y2="3092.9253" gradientTransform="matrix(1 0 0 1 -2917.5227 0)">
					<stop offset="0" style="stop-color:#F9B776"/>
					<stop offset="1" style="stop-color:#F47960"/>
				</linearGradient>
				<path style="fill:url(#SVGID_00000023278322356931965010000007952034849036708224_);" d="M1173.75,3060l-14.9,43.06      c-2.25,6.5,0,13.9,5.81,17.57c2.91,1.84,6.89,3.54,12.33,4.77c7.67,1.74,15.59-1.8,19.29-8.75l17.82-33.55L1173.75,3060z"/>
				
					<linearGradient id="SVGID_00000057845303142939486530000011498973931494209415_" gradientUnits="userSpaceOnUse" x1="3997.8879" y1="2944.4849" x2="4236.2925" y2="2610.3433" gradientTransform="matrix(1 0 0 1 -2917.5227 0)">
					<stop offset="0" style="stop-color:#2B3582"/>
					<stop offset="0.2305" style="stop-color:#252A70"/>
					<stop offset="0.7285" style="stop-color:#19164F"/>
					<stop offset="1" style="stop-color:#150E42"/>
				</linearGradient>
				<path style="fill:url(#SVGID_00000057845303142939486530000011498973931494209415_);" d="M1028.79,2672.4      c0,0,187.11,32.43,267.37,106.57c80.26,74.15-73.67,310.66-73.67,310.66s-25.22-0.16-55.78-26.35c0,0,91.27-177.88,12.61-229.75      c-88.43-58.32-190.35-71.45-190.35-71.45l38-83.96L1028.79,2672.4z"/>
				
					<linearGradient id="SVGID_00000001627256787504123490000015102622471351421623_" gradientUnits="userSpaceOnUse" x1="4149.9292" y1="3160.8306" x2="3954.699" y2="3416.1309" gradientTransform="matrix(1 0 0 1 -2917.5227 0)">
					<stop offset="0" style="stop-color:#2B3582"/>
					<stop offset="1" style="stop-color:#150E42"/>
				</linearGradient>
				<path style="fill:url(#SVGID_00000001627256787504123490000015102622471351421623_);" d="M1246.89,3200.41      c-20.04-9.28-76.76-48.98-86.32-50.73c-9.56-1.75-26.15,9.49-26.15,9.49s-4.03,7.26,0.28,19.91      c13.31,16.11,42.88,46.82,82.62,58.26c29.23,8.42,49.68,0.57,62.42-8.61C1272.73,3218.06,1260.24,3206.59,1246.89,3200.41z"/>
				
					<linearGradient id="SVGID_00000086665935649157438520000015242724403306197642_" gradientUnits="userSpaceOnUse" x1="4052.2258" y1="3216.123" x2="4203.0791" y2="3216.123" gradientTransform="matrix(1 0 0 1 -2917.5227 0)">
					<stop offset="0" style="stop-color:#53D8FF"/>
					<stop offset="1" style="stop-color:#3840F7"/>
				</linearGradient>
				<path style="fill:url(#SVGID_00000086665935649157438520000015242724403306197642_);" d="M1217.32,3237.34      c-39.74-11.44-69.3-42.15-82.62-58.26c2.92,8.55,9.64,19.56,24.01,32.48c35.63,32.03,103.69,43.57,118.18,41.34      c11.61-1.78,10.52-12.5,2.85-24.17C1267,3237.91,1246.56,3245.76,1217.32,3237.34z"/>
				
					<linearGradient id="SVGID_00000122709665848997203760000018355932461844697505_" gradientUnits="userSpaceOnUse" x1="4034.9543" y1="3144.698" x2="4087.6062" y2="3144.698" gradientTransform="matrix(1 0 0 1 -2917.5227 0)">
					<stop offset="0" style="stop-color:#F9B776"/>
					<stop offset="1" style="stop-color:#F47960"/>
				</linearGradient>
				<path style="fill:url(#SVGID_00000122709665848997203760000018355932461844697505_);" d="M1117.43,3131.14      c0.22,5.52,11.51,24.45,18.1,35.07c3.13,5.05,8.62,8.13,14.57,8.15c3.77,0.01,8.1-0.32,12.03-1.45      c5.91-1.7,9.22-7.99,7.49-13.88l-12.89-44L1117.43,3131.14z"/>
				
					<linearGradient id="SVGID_00000085966013296655023990000018315313817752168615_" gradientUnits="userSpaceOnUse" x1="3911.9578" y1="3110.9919" x2="3925.0981" y2="2664.2173" gradientTransform="matrix(1 0 0 1 -2917.5227 0)">
					<stop offset="0" style="stop-color:#2B3582"/>
					<stop offset="1" style="stop-color:#150E42"/>
				</linearGradient>
				<path style="fill:url(#SVGID_00000085966013296655023990000018315313817752168615_);" d="M848.68,2616.24      c0,0-41.55,111.11,0,144.9c41.55,33.79,140.69,71.83,162.83,139.13c22.14,67.3,59.72,198.1,110.01,244.42      c0,0,35.34-3.42,48.56-17.5c0,0-28.64-195.26-47.53-245.36c-16.36-43.39-40.46-106.01-86.65-141.02      c-13.22-10.02-10.92-25.89-4.79-41.31l11.16-28.07L848.68,2616.24z"/>
				
					<linearGradient id="SVGID_00000140719881678815956610000017678394459531011252_" gradientUnits="userSpaceOnUse" x1="4237.6743" y1="2676.4873" x2="4108.1475" y2="2473.7493" gradientTransform="matrix(1 0 0 1 -2917.5227 0)">
					<stop offset="0" style="stop-color:#53D8FF"/>
					<stop offset="1" style="stop-color:#3840F7"/>
				</linearGradient>
				<path style="fill:url(#SVGID_00000140719881678815956610000017678394459531011252_);" d="M1282.07,2529.15      c-69.67,4.2-47.96-107.11-46.71-111.54l-105.75,74.69c0,0,5.6,59.53,93.52,90.75c22.24,7.9,42.57,8.25,60.55,4.38      C1276.02,2565.09,1277.57,2545.03,1282.07,2529.15z"/>
				
					<linearGradient id="SVGID_00000059281761942399951330000008606203869493978812_" gradientUnits="userSpaceOnUse" x1="4195.8374" y1="2537.5325" x2="4379.5063" y2="2537.5325" gradientTransform="matrix(1 0 0 1 -2917.5227 0)">
					<stop offset="0" style="stop-color:#F9B776"/>
					<stop offset="1" style="stop-color:#F47960"/>
				</linearGradient>
				<path style="fill:url(#SVGID_00000059281761942399951330000008606203869493978812_);" d="M1416.79,2495.65      c-25.96-18.06-55.38,0-55.38,0c-34.72,22.7-60.4,32.36-79.34,33.5c-4.5,15.88-6.05,35.94,1.61,58.29      c38.89-8.36,66.71-36.51,78.8-50.95c4.35-5.2,12.06-6.1,17.38-1.9c5.41,4.27,10.66,10.11,9.7,16.27      c-1.88,12.13,12.2,15.99,13.26,11.59c1.06-4.4-4.82-30.49-4.82-30.49s28.16,28.32,39.15,39.2c10.99,10.88,24.81,0,24.81,0      S1442.76,2513.71,1416.79,2495.65z"/>
				
					<linearGradient id="SVGID_00000100365577049843366910000016159659488596480663_" gradientUnits="userSpaceOnUse" x1="4111.1255" y1="2317.5735" x2="3698.1414" y2="2617.9263" gradientTransform="matrix(1 0 0 1 -2917.5227 0)">
					<stop offset="0" style="stop-color:#53D8FF"/>
					<stop offset="1" style="stop-color:#3840F7"/>
				</linearGradient>
				<path style="fill:url(#SVGID_00000100365577049843366910000016159659488596480663_);" d="M957.19,2245.71      c0,0,101.36-40.59,290.01,115.16c0,0,15.76,32.62-1.43,61.65c-17.19,29.03-180.97,170.48-203.49,248.93      c0,0-97.58,31.71-198.49-43.48C843.79,2627.96,852.69,2409.64,957.19,2245.71z"/>
				
					<linearGradient id="SVGID_00000063630018740126113880000009289069729345974683_" gradientUnits="userSpaceOnUse" x1="4020.5903" y1="2266.4717" x2="4142.4526" y2="2266.4717" gradientTransform="matrix(1 0 0 1 -2917.5227 0)">
					<stop offset="0" style="stop-color:#F9B776"/>
					<stop offset="1" style="stop-color:#F47960"/>
				</linearGradient>
				<path style="fill:url(#SVGID_00000063630018740126113880000009289069729345974683_);" d="M1157.57,2209.49l-49.9,60.49      c-4.95,6.01-6.05,14.36-2.62,21.35c6.93,14.13,23.36,34.7,59.81,31.85c10.84-0.85,20.44-7.39,25.18-17.18l34.89-72.13      L1157.57,2209.49z"/>
				
					<linearGradient id="SVGID_00000158010593023445803910000017598470349128079292_" gradientUnits="userSpaceOnUse" x1="4051.9001" y1="2236.1389" x2="3638.9155" y2="2536.4917" gradientTransform="matrix(1 0 0 1 -2917.5227 0)">
					<stop offset="0" style="stop-color:#53D8FF"/>
					<stop offset="1" style="stop-color:#3840F7"/>
				</linearGradient>
				<path style="fill:url(#SVGID_00000158010593023445803910000017598470349128079292_);" d="M878.71,2504.79      c-11.77-47.92,107.42-154.77,107.42-154.77l-28.95-104.31c0,0-257.37,171.34-191.78,309.12c9.4,19.75,21.89,33.59,36.37,42.84      C822.5,2541.88,855.52,2516.3,878.71,2504.79z"/>
				
					<linearGradient id="SVGID_00000004511574793404422380000009752874090854732693_" gradientUnits="userSpaceOnUse" x1="863.3659" y1="1746.9795" x2="955.2643" y2="2642.145">
					<stop offset="0" style="stop-color:#53D8FF"/>
					<stop offset="1" style="stop-color:#3840F7"/>
				</linearGradient>
				<path style="fill:url(#SVGID_00000004511574793404422380000009752874090854732693_);" d="M878.62,2497.81      c-1.26,0-2.42-0.86-2.73-2.14c-12.03-49,103.36-153.12,108.28-157.53c1.15-1.03,2.93-0.94,3.98,0.22      c1.04,1.16,0.94,2.94-0.22,3.98c-1.18,1.06-117.81,106.25-106.57,152c0.37,1.51-0.55,3.04-2.06,3.41      C879.08,2497.78,878.85,2497.81,878.62,2497.81z"/>
				
					<linearGradient id="SVGID_00000014629147408264341480000005361290349344672133_" gradientUnits="userSpaceOnUse" x1="3937.489" y1="2539.7434" x2="3470.936" y2="3350.4751" gradientTransform="matrix(1 0 0 1 -2917.5227 0)">
					<stop offset="0" style="stop-color:#F9B776"/>
					<stop offset="1" style="stop-color:#F47960"/>
				</linearGradient>
				<path style="fill:url(#SVGID_00000014629147408264341480000005361290349344672133_);" d="M1059.24,2500.66      c0,0-141.32,54.87-175.81,13.6c-2.34-2.8-3.86-5.99-4.72-9.47c-23.19,11.51-56.21,37.1-76.94,92.88      c74.32,47.49,201.37-26.42,235.72-48.21c5.65-3.58,12.43-4.84,18.98-3.48c13.25,2.75,36.14,6.79,48.48,4.89      c18.06-2.78,44,60.92,73.27,41.27C1178.22,2592.13,1153.15,2481.41,1059.24,2500.66z"/>
				<g>
					
						<linearGradient id="SVGID_00000139983837878153343000000007630005349307974316_" gradientUnits="userSpaceOnUse" x1="4280.5728" y1="-274.1541" x2="4130.2539" y2="-159.1374" gradientTransform="matrix(0.922 0.3871 -0.3871 0.922 -2786.261 786.7947)">
						<stop offset="0" style="stop-color:#F9B776"/>
						<stop offset="1" style="stop-color:#F47960"/>
					</linearGradient>
					<path style="fill:url(#SVGID_00000139983837878153343000000007630005349307974316_);" d="M1282.05,2139.88       c0,0,0.86,65.87-9.78,95.79c-10.64,29.92-12.31,51.53-48.58,43.22c-36.27-8.3-57.67-37.09-60.88-72.69       c0,0-5.33-55.01,7.8-71.11C1183.76,2118.99,1282.05,2139.88,1282.05,2139.88z"/>
					
						<linearGradient id="SVGID_00000058557806307270207290000013390904930895188364_" gradientUnits="userSpaceOnUse" x1="4174.9663" y1="-364.9482" x2="4311.085" y2="-189.6962" gradientTransform="matrix(0.922 0.3871 -0.3871 0.922 -2786.261 786.7947)">
						<stop offset="0" style="stop-color:#2B3582"/>
						<stop offset="1" style="stop-color:#150E42"/>
					</linearGradient>
					<path style="fill:url(#SVGID_00000058557806307270207290000013390904930895188364_);" d="M1183.15,2190.11l4.27,1.79       c0,0-2.45-43.5,15.69-43.35c18.13,0.15,84.65,13.38,107-2.81c21.54-15.61,21.55-47.46,7.72-62.17       c-0.87-0.93-2.36-0.96-3.34-0.15l-2.53,2.07c-1.73,1.42-4.31,0.01-4.05-2.21l0,0c0.25-2.11-2.12-3.58-3.85-2.36       c-6.78,4.8-22.17,10.78-53.84,3.86c-44.93-9.81-79.59-4.51-92.37,24.03c-0.81,1.81-3.18,1.99-4.34,0.39       c-2.29-3.17-6.85-6.12-15.76-3.35c-15.49,4.82-21.29,31.77-4.82,62.85c0.78,1.48-0.01,3.34-1.65,3.63       c-5.79,1.05-15.54,5.25-1.9,22.03c13.95,17.16,25.03,20.58,29.47,21.24c1.2,0.18,2.34-0.5,2.74-1.64l9.14-26.2       c0.47-1.36,1.99-2.03,3.31-1.48L1183.15,2190.11z"/>
					
						<linearGradient id="SVGID_00000139284671762129210540000000589187600768589476_" gradientUnits="userSpaceOnUse" x1="4261.9272" y1="-298.5212" x2="4111.6084" y2="-183.5045" gradientTransform="matrix(0.922 0.3871 -0.3871 0.922 -2786.261 786.7947)">
						<stop offset="0" style="stop-color:#F9B776"/>
						<stop offset="1" style="stop-color:#F47960"/>
					</linearGradient>
					<path style="fill:url(#SVGID_00000139284671762129210540000000589187600768589476_);" d="M1181.96,2195.9       c0,0,5.69-39.46-14.45-36.18c-20.14,3.28-8.46,43.34,3.81,50.05L1181.96,2195.9z"/>
				</g>
			</g>
			<g>
				<g>
					
						<linearGradient id="SVGID_00000051374618348965430240000007427203649594493875_" gradientUnits="userSpaceOnUse" x1="9090.3174" y1="2938.678" x2="9376.5547" y2="2938.678" gradientTransform="matrix(-1 0 0 1 10758.1035 0)">
						<stop offset="0" style="stop-color:#9CFFFB"/>
						<stop offset="1" style="stop-color:#9BFFFA"/>
					</linearGradient>
					<path style="fill:url(#SVGID_00000051374618348965430240000007427203649594493875_);" d="M1655.33,3244.79       c1.64,0,3.31-0.32,4.92-0.99c6.32-2.63,9.24-9.73,6.52-15.85l-261.31-588.1c-2.72-6.12-10.04-8.94-16.37-6.31       c-6.32,2.63-9.24,9.73-6.52,15.85l261.31,588.1C1645.91,3242.06,1650.5,3244.79,1655.33,3244.79z"/>
					
						<linearGradient id="SVGID_00000167388522208462557500000013815851839120563893_" gradientUnits="userSpaceOnUse" x1="9123.3721" y1="2938.6768" x2="9409.6104" y2="2938.6768" gradientTransform="matrix(-1 0 0 1 10758.1035 0)">
						<stop offset="0" style="stop-color:#9CFFFB"/>
						<stop offset="1" style="stop-color:#9BFFFA"/>
					</linearGradient>
					<path style="fill:url(#SVGID_00000167388522208462557500000013815851839120563893_);" d="M1360.95,3244.79       c4.83,0,9.42-2.73,11.45-7.3l261.31-588.1c2.72-6.12-0.2-13.21-6.52-15.85c-6.32-2.63-13.65,0.19-16.37,6.31l-261.31,588.1       c-2.72,6.12,0.2,13.21,6.52,15.85C1357.64,3244.48,1359.31,3244.79,1360.95,3244.79z"/>
					
						<linearGradient id="SVGID_00000084517260235807424700000011135439243934537629_" gradientUnits="userSpaceOnUse" x1="9899.1895" y1="2938.678" x2="10185.4268" y2="2938.678" gradientTransform="matrix(-1 0 0 1 10758.1035 0)">
						<stop offset="0" style="stop-color:#9CFFFB"/>
						<stop offset="1" style="stop-color:#9BFFFA"/>
					</linearGradient>
					<path style="fill:url(#SVGID_00000084517260235807424700000011135439243934537629_);" d="M846.46,3244.79       c1.64,0,3.31-0.32,4.92-0.99c6.32-2.63,9.24-9.73,6.52-15.85l-261.31-588.1c-2.72-6.12-10.04-8.94-16.37-6.31       c-6.32,2.63-9.24,9.73-6.52,15.85l261.31,588.1C837.03,3242.06,841.63,3244.79,846.46,3244.79z"/>
					
						<linearGradient id="SVGID_00000104675794663761343790000009899596179642696338_" gradientUnits="userSpaceOnUse" x1="9932.2422" y1="2938.6768" x2="10218.4795" y2="2938.6768" gradientTransform="matrix(-1 0 0 1 10758.1035 0)">
						<stop offset="0" style="stop-color:#9CFFFB"/>
						<stop offset="1" style="stop-color:#9BFFFA"/>
					</linearGradient>
					<path style="fill:url(#SVGID_00000104675794663761343790000009899596179642696338_);" d="M552.08,3244.79       c4.83,0,9.42-2.73,11.45-7.3l261.31-588.1c2.72-6.12-0.2-13.21-6.52-15.85c-6.32-2.63-13.65,0.19-16.37,6.31l-261.31,588.1       c-2.72,6.12,0.2,13.21,6.52,15.85C548.77,3244.48,550.44,3244.79,552.08,3244.79z"/>
				</g>
				
					<linearGradient id="SVGID_00000183928546729774817840000018269180169695772800_" gradientUnits="userSpaceOnUse" x1="9022.8223" y1="2638.2585" x2="10236.8867" y2="2638.2585" gradientTransform="matrix(-1 0 0 1 10758.1035 0)">
					<stop offset="0" style="stop-color:#9CFFFB"/>
					<stop offset="1" style="stop-color:#9BFFFA"/>
				</linearGradient>
				<path style="fill:url(#SVGID_00000183928546729774817840000018269180169695772800_);" d="M521.43,2621.7      c-0.67-3.86,0.24-7.85,2.47-10.88c2.23-3.03,5.56-4.79,9.07-4.79h1188.78c4.62,0,8.91,2.63,11.4,6.99      c2.49,4.35,2.82,9.82,0.88,14.51l-12.88,31.21c-2.95,7.15-9.34,11.73-16.38,11.73H541.13c-6.54,0-12.17-5.19-13.41-12.39      L521.43,2621.7z"/>
			</g>
			<g>
				
					<linearGradient id="SVGID_00000081625132599898353860000001451849386672606133_" gradientUnits="userSpaceOnUse" x1="9578.4736" y1="3061.9602" x2="9339.5811" y2="3127.4343" gradientTransform="matrix(-0.9988 -0.0494 -0.0494 0.9988 10799.5723 -55.0327)">
					<stop offset="0" style="stop-color:#2B3582"/>
					<stop offset="1" style="stop-color:#150E42"/>
				</linearGradient>
				<path style="fill:url(#SVGID_00000081625132599898353860000001451849386672606133_);" d="M1131.64,2608.86      c0.23,0.01,0.45,0.02,0.68,0.02l296.5-0.32c7.33-0.01,13.26-5.95,13.26-13.28c-0.01-7.33-5.98-13.39-13.29-13.26l-296.5,0.32      c-7.33,0.01-13.26,5.95-13.26,13.28C1119.04,2602.72,1124.62,2608.51,1131.64,2608.86z"/>
				
					<linearGradient id="SVGID_00000134932452049761264160000009391585427382845579_" gradientUnits="userSpaceOnUse" x1="9353.4414" y1="2375.75" x2="9183.9365" y2="2554.9062" gradientTransform="matrix(-1 0 0 1 10758.1035 0)">
					<stop offset="0" style="stop-color:#2B3582"/>
					<stop offset="1" style="stop-color:#150E42"/>
				</linearGradient>
				<path style="fill:url(#SVGID_00000134932452049761264160000009391585427382845579_);" d="M1695.36,2339.65h-246.93      c-18.22,0-34.8,10.51-42.57,26.99l-114.15,242.06h306.87c11.74,0,22.29-7.17,26.6-18.09l88.52-223.99      C1718.82,2353.68,1709.28,2339.65,1695.36,2339.65z"/>
				
					<linearGradient id="SVGID_00000090996422185447311390000018166449963885872026_" gradientUnits="userSpaceOnUse" x1="9250.9678" y1="2420.3586" x2="9174.0576" y2="2536.177" gradientTransform="matrix(-1 0 0 1 10758.1035 0)">
					<stop offset="0" style="stop-color:#53D8FF"/>
					<stop offset="1" style="stop-color:#3840F7"/>
				</linearGradient>
				<path style="fill:url(#SVGID_00000090996422185447311390000018166449963885872026_);" d="M1521.4,2463.76      c-5.35,16.62-1.4,32.77,8.83,36.06c10.23,3.29,22.86-7.52,28.21-24.14c5.35-16.62,1.4-32.77-8.83-36.06      C1539.38,2436.33,1526.75,2447.14,1521.4,2463.76z"/>
			</g>
		</g>
		<g>
			
				<linearGradient id="SVGID_00000073698714316256774410000000089596664464419509_" gradientUnits="userSpaceOnUse" x1="11080.9512" y1="2503.3384" x2="10703.6924" y2="2718.6724" gradientTransform="matrix(-1 0 0 1 13326.4766 0)">
				<stop offset="0" style="stop-color:#F9B776"/>
				<stop offset="1" style="stop-color:#F47960"/>
			</linearGradient>
			<path style="fill:url(#SVGID_00000073698714316256774410000000089596664464419509_);" d="M2302.88,2854.38     c0.44-0.17,239.74-419.23,272.07-458.66c5.44-6.63,13.86-10.01,22.38-9l66.79,7.96l78.46,169.75l-130.72-76.13     c12.94,89.46-154.99,222.4-212.58,270.91c-5.85,4.92-6.32,13.74-1.05,19.27l22.99,24.07c-37.75,38.26-81.31,62.83-130.47,74.19     L2302.88,2854.38z"/>
			
				<linearGradient id="SVGID_00000049939437848739846100000005157566505424896897_" gradientUnits="userSpaceOnUse" x1="2201.4875" y1="2425.4053" x2="2548.6453" y2="3420.9299">
				<stop offset="0" style="stop-color:#53D8FF"/>
				<stop offset="1" style="stop-color:#3840F7"/>
			</linearGradient>
			<path style="fill:url(#SVGID_00000049939437848739846100000005157566505424896897_);" d="M2407.93,2789.56     c0,0,14.67,4.74,19.64,17.81c2.38,6.25-0.18,13.34-5.62,17.23c-24.16,17.31-103.87,73.2-140.65,84.15     c-3.01,0.9-5.88-1.83-5.21-4.9c1.89-8.54,7.99-25.61,27.66-50.58l-1.77,3.57c-2.23,4.52,2.69,9.22,7.07,6.74     C2333.67,2849.69,2383.78,2819.29,2407.93,2789.56z"/>
			
				<linearGradient id="SVGID_00000018197826107795432350000015285764255515092907_" gradientUnits="userSpaceOnUse" x1="11044.4561" y1="2557.041" x2="12335.249" y2="1748.9845" gradientTransform="matrix(-1 0 0 1 13326.4766 0)">
				<stop offset="0" style="stop-color:#F9B776"/>
				<stop offset="1" style="stop-color:#F47960"/>
			</linearGradient>
			<path style="fill:url(#SVGID_00000018197826107795432350000015285764255515092907_);" d="M2396.09,2957.23     c0.4-0.26,36.3-86.76,36.7-87.01c32.92-200.42,113.23-372.06,136.92-417.22c3.98-7.6,11.55-12.61,20.09-13.34l67.02-5.72     l111.19,150.35l-143.42-48.1c30.77,84.99-106.78,249.17-153.36,308.33c-4.73,6-3.41,14.74,2.88,19.08l27.39,18.92     c-29.22,45.11-66.91,77.98-112.75,99.06L2396.09,2957.23z"/>
			
				<linearGradient id="SVGID_00000046327873292149122260000007167951926946842759_" gradientUnits="userSpaceOnUse" x1="2255.3591" y1="2406.6196" x2="2602.5171" y2="3402.1453">
				<stop offset="0" style="stop-color:#53D8FF"/>
				<stop offset="1" style="stop-color:#3840F7"/>
			</linearGradient>
			<path style="fill:url(#SVGID_00000046327873292149122260000007167951926946842759_);" d="M2485.84,2872.49     c0,0,15.33,1.67,22.84,13.47c3.59,5.64,2.52,13.1-2.02,18.01c-20.16,21.84-86.9,92.71-120.71,110.87     c-2.77,1.49-6.13-0.6-6.09-3.75c0.12-8.75,2.65-26.7,16.85-55.14l-1.01,3.85c-1.27,4.88,4.5,8.49,8.29,5.17     C2425.29,2946.4,2468.21,2906.5,2485.84,2872.49z"/>
			<g>
				
					<linearGradient id="SVGID_00000062877710176527961220000002092852516281812892_" gradientUnits="userSpaceOnUse" x1="-1186.6451" y1="-2626.2324" x2="-1855.4332" y2="-3504.3362" gradientTransform="matrix(-1 0 0 1 5494.7764 0)">
					<stop offset="0" style="stop-color:#A737D5"/>
					<stop offset="1" style="stop-color:#EF497A"/>
				</linearGradient>
				<path style="fill:url(#SVGID_00000062877710176527961220000002092852516281812892_);" d="M2970.53,2402.27      c0,0,60.63,90.17,65.6,131.31c4.97,41.13-16.76,55.36-80.22,60.6c-188.84,15.61-281.92-40.98-281.92-40.98      c-12.92-82.36-22.11-103.32-129.99-148.1c0,0,136.46,10.83,163.92,0.18C2735.37,2394.62,2970.53,2402.27,2970.53,2402.27z"/>
			</g>
			<g>
				
					<linearGradient id="SVGID_00000060719113802131650110000007636871029179536299_" gradientUnits="userSpaceOnUse" x1="-4470.6929" y1="2120.595" x2="-4377.9243" y2="2353.3037" gradientTransform="matrix(0.9446 -0.3283 0.3283 0.9446 6190.9395 -1699.1722)">
					<stop offset="0" style="stop-color:#2B3582"/>
					<stop offset="1" style="stop-color:#150E42"/>
				</linearGradient>
				<path style="fill:url(#SVGID_00000060719113802131650110000007636871029179536299_);" d="M2728.76,1897.06      c0,0,42.23-49.96,87.12,11.34c8.13,11.1,39.36,1.94,50.81,25.18c5.91,12,18.68,18.81,31.83,16.39      c32.76-6.04,86.3-6.55,112.74,44.78c20.18,39.18,4.6,62.11-15.57,75.19c-14.82,9.6-20.1,29.1-11.14,44.31      c8.59,14.59,10.21,34.35-11.98,58.13c-49.72,53.29-148.15-33.82-148.15-33.82l-78.15-184.67L2728.76,1897.06z"/>
				
					<linearGradient id="SVGID_00000122701316404026706920000001209780104311618702_" gradientUnits="userSpaceOnUse" x1="2768.1785" y1="2369.6904" x2="3377.4365" y2="1491.5435">
					<stop offset="0" style="stop-color:#53D8FF"/>
					<stop offset="1" style="stop-color:#3840F7"/>
				</linearGradient>
				<path style="fill:url(#SVGID_00000122701316404026706920000001209780104311618702_);" d="M2806.57,2390.34      c0,0-70.6-67.23-105.35-111.75c-18.79-24.07-24.68-55.76-16-85.03c15.87-53.46,44.06-108.82,46.64-117.44      c3.94-13.21,83.1-12.66,83.1-12.66s155.78,101.1,216.98,272.35l-68.74,21.4c0,0-40.67-68.24-80.86-111.62      c0,0,69.54,91.86,71.99,129.47L2806.57,2390.34z"/>
				
					<linearGradient id="SVGID_00000121274957982350398320000013451206834214005432_" gradientUnits="userSpaceOnUse" x1="-2023.7333" y1="2379.2175" x2="-1647.9276" y2="2379.2175" gradientTransform="matrix(1 0 0 1 4930.0132 0)">
					<stop offset="0" style="stop-color:#F9B776"/>
					<stop offset="1" style="stop-color:#F47960"/>
				</linearGradient>
				<path style="fill:url(#SVGID_00000121274957982350398320000013451206834214005432_);" d="M2672.05,2416.87l53.05-57.72      l61.27,16.5c0,0,71.43,11.07,112.31,0c40.88-11.07,40.88-11.07,40.88-11.07l92.38-28.76l14.51,41      c3.68,10.41-0.02,21.97-9.02,28.37c-7.99,5.68-17.36,11.92-23.33,14.53c-12.17,5.32-280.25,1.68-280.25,1.68L2672.05,2416.87z"/>
				
					<linearGradient id="SVGID_00000078763106330392593510000004809481135487774083_" gradientUnits="userSpaceOnUse" x1="-3982.9602" y1="1813.7297" x2="-3964.5891" y2="1679.3325" gradientTransform="matrix(0.9974 -0.0717 0.0717 0.9974 6595.8838 105.0094)">
					<stop offset="0" style="stop-color:#F9B776"/>
					<stop offset="1" style="stop-color:#F47960"/>
				</linearGradient>
				<path style="fill:url(#SVGID_00000078763106330392593510000004809481135487774083_);" d="M2760.55,1968.28l53.21,98.94      c-3.51,21.6-57.91,22.21-66.31,9.31c-0.86-1.31-1.34-2.83-1.67-4.36l-31.83-66.11c-1.37-6.45,16.31-28.17,22.12-31.26      l21.15-11.26C2765.36,1959.21,2731.38,1958.86,2760.55,1968.28z"/>
				<g>
					
						<linearGradient id="SVGID_00000060736274197993816650000006649678670048534709_" gradientUnits="userSpaceOnUse" x1="-6137.6167" y1="2314.271" x2="-5964.6431" y2="2006.436" gradientTransform="matrix(0.5458 -0.8379 0.8379 0.5458 4176.8994 -4320.769)">
						<stop offset="0" style="stop-color:#F9B776"/>
						<stop offset="1" style="stop-color:#F47960"/>
					</linearGradient>
					<path style="fill:url(#SVGID_00000060736274197993816650000006649678670048534709_);" d="M2652.87,1945.06       c0,0-6.01,33.43,20.27,75.93c26.27,42.5,52.43,40.58,65.73,25.42c13.29-15.16,29.21-40.4,21.97-82.79       C2753.59,1921.24,2661.95,1902.44,2652.87,1945.06z"/>
					
						<linearGradient id="SVGID_00000030466376205179839480000012812579246918338450_" gradientUnits="userSpaceOnUse" x1="-6100.4209" y1="2046.1951" x2="-6013.9346" y2="2263.1436" gradientTransform="matrix(0.5458 -0.8379 0.8379 0.5458 4176.8994 -4320.769)">
						<stop offset="0" style="stop-color:#2B3582"/>
						<stop offset="1" style="stop-color:#150E42"/>
					</linearGradient>
					<path style="fill:url(#SVGID_00000030466376205179839480000012812579246918338450_);" d="M2729.03,1968.23       c0,0-42.54-55.88-75.2-7.17l0.55,16.83c0,0-42.47-1.99-37.87-41.13c4.61-39.15,39.28-65.89,87.35-52.51       c48.07,13.37,76.16,28.61,81.59,61.98c5.43,33.38-21.82,27.92-21.82,27.92s-10.41-23.03-22.98-24.6       c-12.57-1.57-8.03,16.64-8.03,16.64L2729.03,1968.23z"/>
					
						<linearGradient id="SVGID_00000106147059853554049220000012386888861895651506_" gradientUnits="userSpaceOnUse" x1="-6100.7959" y1="2334.9568" x2="-5927.8242" y2="2027.1254" gradientTransform="matrix(0.5458 -0.8379 0.8379 0.5458 4176.8994 -4320.769)">
						<stop offset="0" style="stop-color:#F9B776"/>
						<stop offset="1" style="stop-color:#F47960"/>
					</linearGradient>
					<path style="fill:url(#SVGID_00000106147059853554049220000012386888861895651506_);" d="M2738.79,1966.74       c0,0-22.04-28.6-1.98-34.53c20.06-5.94,19.31,28.02,18,40.65L2738.79,1966.74z"/>
				</g>
			</g>
			<g>
				
					<linearGradient id="SVGID_00000099622159449829191590000005557776124050615428_" gradientUnits="userSpaceOnUse" x1="-2117.0466" y1="2328.1221" x2="-2313.6421" y2="2382.0037" gradientTransform="matrix(0.9988 -0.0494 0.0494 0.9988 4888.5444 -55.0328)">
					<stop offset="0" style="stop-color:#53D8FF"/>
					<stop offset="1" style="stop-color:#3840F7"/>
				</linearGradient>
				<path style="fill:url(#SVGID_00000099622159449829191590000005557776124050615428_);" d="M2847.65,2439.71      c-0.19,0.01-0.37,0.01-0.56,0.01l-244-0.27c-6.03-0.01-10.92-4.9-10.91-10.93c0.01-6.03,4.92-11.02,10.93-10.91l244.01,0.27      c6.03,0.01,10.92,4.9,10.91,10.93C2858.02,2434.66,2853.42,2439.42,2847.65,2439.71z"/>
				
					<linearGradient id="SVGID_00000151539490604764134910000007284040174080222636_" gradientUnits="userSpaceOnUse" x1="8999.8975" y1="2343.2327" x2="10768.0684" y2="2194.4683" gradientTransform="matrix(1 0 0 1 -6621.0962 0)">
					<stop offset="0" style="stop-color:#2B3582"/>
					<stop offset="1" style="stop-color:#150E42"/>
				</linearGradient>
				<path style="fill:url(#SVGID_00000151539490604764134910000007284040174080222636_);" d="M2383.73,2218.17h203.21      c14.99,0,28.63,8.65,35.03,22.21l93.94,199.2h-252.53c-9.66,0-18.34-5.9-21.89-14.89l-72.85-184.33      C2364.43,2229.71,2372.28,2218.17,2383.73,2218.17z"/>
				
					<linearGradient id="SVGID_00000099653781240246357740000007973226139241730944_" gradientUnits="userSpaceOnUse" x1="-2391.3789" y1="2284.5857" x2="-2454.6721" y2="2379.8984" gradientTransform="matrix(1 0 0 1 4930.0132 0)">
					<stop offset="0" style="stop-color:#53D8FF"/>
					<stop offset="1" style="stop-color:#3840F7"/>
				</linearGradient>
				<path style="fill:url(#SVGID_00000099653781240246357740000007973226139241730944_);" d="M2526.9,2320.3      c4.4,13.68,1.15,26.97-7.27,29.68c-8.42,2.71-18.81-6.19-23.21-19.87c-4.4-13.68-1.15-26.97,7.27-29.68      C2512.1,2297.73,2522.49,2306.62,2526.9,2320.3z"/>
			</g>
		</g>
		<g>
			
				<linearGradient id="SVGID_00000069371941195475433480000013995561098253705632_" gradientUnits="userSpaceOnUse" x1="1484.6451" y1="1170.0663" x2="1552.4866" y2="958.0621" gradientTransform="matrix(0.9822 0.188 -0.188 0.9822 952.3442 -30.5627)">
				<stop offset="0" style="stop-color:#53D8FF"/>
				<stop offset="1" style="stop-color:#3840F7"/>
			</linearGradient>
			<path style="fill:url(#SVGID_00000069371941195475433480000013995561098253705632_);" d="M2112.15,807.74l-83.44,132.25     c0,0,5.88,239.94,245.77,364.52c239.89,124.58,367.23,20.1,367.23,20.1l106.82-197.04L2112.15,807.74z"/>
			
				<linearGradient id="SVGID_00000059998174532283594580000016797939658437131921_" gradientUnits="userSpaceOnUse" x1="1494.4058" y1="1027.7291" x2="1825.1095" y2="295.6592" gradientTransform="matrix(0.9822 0.188 -0.188 0.9822 952.3442 -30.5627)">
				<stop offset="0" style="stop-color:#53D8FF"/>
				<stop offset="1" style="stop-color:#3840F7"/>
			</linearGradient>
			<path style="fill:url(#SVGID_00000059998174532283594580000016797939658437131921_);" d="M2548.74,666.63l-539.26,30.04     c-27.77,1.55-42.59,33.43-25.85,55.64c81.64,108.34,266.11,359.42,327.02,495.03c6.52,14.51,22.08,22.69,37.74,19.92     l560.83-99.15c25.37-4.48,37.24-34.02,22-54.8c-80.35-109.55-285.62-384.74-359.91-439.96     C2564.81,668.52,2556.82,666.18,2548.74,666.63z"/>
			
				<linearGradient id="SVGID_00000139269194041164949380000002457675635904979847_" gradientUnits="userSpaceOnUse" x1="1923.4875" y1="1381.0798" x2="1855.6509" y2="951.4459" gradientTransform="matrix(0.9822 0.188 -0.188 0.9822 952.3442 -30.5627)">
				<stop offset="0" style="stop-color:#53D8FF"/>
				<stop offset="1" style="stop-color:#3840F7"/>
			</linearGradient>
			<path style="fill:url(#SVGID_00000139269194041164949380000002457675635904979847_);" d="M2479.78,926.54     c0,0,233,230.6,245.01,274.17c12.01,43.57-68.71,211.76-68.71,211.76c9.45,159.53-20.26,323.93-111.09,393.3     c0,0-45.14-217.01,12.9-291.45c58.04-74.44,80.86-105.17,80.86-105.17s76.47-181.4,71.47-210.86     C2710.21,1198.29,2454.42,932.28,2479.78,926.54z"/>
			<path class="st0" d="M2068.45,758.19l202.98,313.97l50.74,78.5l12.69,19.62l6.33,9.76c1.95,3,4.3,5.72,6.85,8.21     c10.29,9.97,25.08,15.08,39.45,13.36l185.91-19.58c1.8-0.19,3.41,1.11,3.6,2.91c0.19,1.79-1.1,3.39-2.88,3.6l-185.72,21.3     c-16.63,2.15-34.17-3.64-46.37-15.28c-3.04-2.91-5.84-6.1-8.17-9.62l-6.48-9.78l-12.87-19.5l-51.47-78.02l-205.89-312.08     c-2.05-3.11-1.19-7.29,1.92-9.35c3.11-2.05,7.29-1.19,9.35,1.92L2068.45,758.19z"/>
			<path class="st0" d="M2616.79,1500.34c-0.66,0.4-1.88,1.4-2.82,2.09l-2.99,2.58c-1.99,1.75-3.84,3.76-5.78,5.62l-5.39,6.17     c-1.73,2.13-3.33,4.38-5,6.57c-1.73,2.14-3.18,4.51-4.67,6.85c-1.47,2.35-3.04,4.64-4.45,7.04l-3.96,7.37     c-1.3,2.47-2.74,4.87-3.78,7.47l-3.41,7.68c-1.11,2.58-2.37,5.09-3.22,7.78c-1.86,5.31-3.82,10.59-5.62,15.93l-4.5,16.35     c-0.36,1.37-0.78,2.72-1.1,4.1l-0.83,4.17l-1.67,8.34c-2.58,11.06-3.53,22.43-5.12,33.7c-0.44,2.82-0.6,5.66-0.77,8.51     l-0.55,8.53c-0.34,5.69-0.79,11.38-1.04,17.08c0.02,11.42-0.2,22.85,0.02,34.29l1.86,34.3l0.01,0.13     c0.07,1.29-0.92,2.4-2.21,2.47c-1.27,0.07-2.35-0.89-2.46-2.14l-2.98-34.49c-0.59-11.53-0.74-23.09-1.12-34.66     c0.07-5.78,0.34-11.57,0.5-17.36l0.28-8.69c0.08-2.9,0.15-5.79,0.51-8.68c1.25-11.54,1.86-23.16,4.13-34.6l1.44-8.62l0.72-4.31     c0.28-1.43,0.67-2.84,0.99-4.26l4.11-17.04c1.69-5.6,3.55-11.17,5.32-16.76c0.81-2.83,2.03-5.51,3.11-8.25l3.32-8.18     c1.02-2.77,2.45-5.37,3.74-8.02l3.96-7.95c1.42-2.6,3.01-5.12,4.51-7.68c1.52-2.56,3-5.14,4.8-7.54c1.74-2.44,3.4-4.92,5.22-7.32     l5.74-7c2.12-2.2,4.11-4.48,6.37-6.6c2.32-2.17,4.38-4.11,7.47-6.3c3.04-2.15,7.26-1.44,9.41,1.61c2.16,3.04,1.44,7.26-1.61,9.41     c-0.12,0.09-0.25,0.17-0.38,0.25L2616.79,1500.34z"/>
			<path class="st0" d="M2610.06,1571.54l-4.85,22.17l-5.03,23.91l-9.87,47.91l-19.47,95.91c-0.4,1.99-2.33,3.28-4.31,2.88     c-1.95-0.39-3.22-2.27-2.9-4.21l16.44-96.51l8.37-48.24l4.29-24.13l2.21-12.08l1.17-6.09l0.61-3.06     c0.31-1.37,0.78-3.02,1.26-4.48c1.14-3.44,4.85-5.31,8.29-4.17c3.22,1.06,5.06,4.37,4.36,7.6L2610.06,1571.54z"/>
		</g>
	</g>
</g>
</svg>