<?xml version="1.0" encoding="utf-8"?>
<svg version="1.1" xmlns="http://www.w3.org/2000/svg" xmlns:xlink="http://www.w3.org/1999/xlink" x="0px" y="0px"
	 viewBox="0 0 1800 1122" style="enable-background:new 0 0 1800 1122;" xml:space="preserve">
<style type="text/css">
	.st0{fill:#FFFFFF00;}
	.st1{fill:#A3A4A7;}
	.st2{fill:#272425;}
	.st3{fill:none;}
</style>
<g id="Bg">
	<rect x="0" class="st0" width="1800" height="1122"/>
</g>
<g id="Object">
	<g>
		<g>
			<path class="st1" d="M243.72,1055.53c-0.5-4.62-6.6-34.15-6.93-38.6c-0.33-4.45-2.8-10.72-0.82-10.56c0,0,11.38,4.95,14.68,6.1
				c3.3,1.15,11.71,3.13,14.02,4.12c2.31,0.99,7.26,4.45,9.4,4.62c2.14,0.16,5.61-1.15,7.26-1.15c1.65,0,6.6,0,8.41,0.66
				c1.81,0.66,9.9,2.64,13.69,2.31c3.79-0.33,3.79,0.16,6.27-1.32c2.47-1.48,6.6-6.1,8.25-8.91c1.65-2.8,0.66-6.76,0-9.24
				c-0.66-2.47-11.22-35.14-12.21-39.92c-0.99-4.78-18.97-54.6-18.31-56.09c0.66-1.48,2.14-3.79,3.3-5.11
				c1.15-1.32,1.48-3.13,2.14-4.78c0.66-1.65,0.83-2.8,2.97-5.77c2.14-2.97,2.31-6.27,2.64-7.26c0.33-0.99,0.17-10.06,1.48-12.87
				c1.32-2.8,2.14-7.42,2.31-10.39c0.17-2.97,0.33-8.25,0.66-11.05c0.33-2.8,0.5-4.29,0.99-5.77c0.49-1.48,0.82-10.39,0.82-11.22
				c0-0.82-3.13-2.8-3.13-2.8s2.64-6.6,3.96-7.75c1.32-1.15,2.47-3.46,3.13-5.77c0.66-2.31,1.32-3.63,1.48-4.95
				c0.17-1.32-0.33-2.47-0.49-3.79c-0.16-1.32-2.64-5.28-2.64-5.28l-3.3-0.33c0,0-1.81-2.64-2.8-2.47c-0.99,0.16-3.3,0-3.3,0
				s-1.15-1.65-2.14-1.65c-0.99,0-2.31,0.16-2.8,0c-0.49-0.16-1.48-0.99-1.98-0.99c-0.49,0-1.98,0.33-1.98,0.33
				s-1.81,6.43-1.65,8.08s0.17,1.65,0.17,1.65l-1.98,0.66l1.65-5.77c0,0,2.8-4.62,0.83-5.94c0,0-3.13,3.13-4.45,4.45
				c-1.32,1.32-2.47,1.15-2.8,2.97c-0.33,1.81-0.33,4.12-0.99,5.94c-0.66,1.81-0.82,3.46,0,4.95c0.83,1.48,1.32,2.97,1.98,4.29
				c0.66,1.32,1.32,3.13,1.98,4.29c0.66,1.15,1.81,2.14,1.98,3.46c0.17,1.32,0,2.97,0,2.97L284.3,832c0,0-0.17,2.31,0,3.96
				c0.16,1.65,0.33,5.94,0,7.59c-0.33,1.65-1.15,3.13-1.98,4.12c-0.83,0.99-1.32,3.46-1.98,5.11c-0.66,1.65-1.81,4.62-3.3,7.59
				c-1.48,2.97-4.29,9.07-4.95,10.89c-0.66,1.81-2.8,3.96-2.8,6.6c0,2.64-0.33,3.3-1.48,5.77c-1.15,2.47-1.15,1.65-2.64,4.12
				c-1.48,2.47-1.65,2.31-2.64,2.8c-0.99,0.5-10.06,1.65-11.55,2.14c-1.48,0.49-5.11,0.82-5.44,1.48c-0.33,0.66,0.33,2.47-0.66,2.47
				c-0.99,0-5.94-1.15-6.93-0.33c-0.99,0.82-2.14,1.81-1.98,3.13c0.16,1.32,0.66,2.97,0.99,4.12c0.33,1.15-3.13,0.66-4.12,1.48
				c-0.99,0.82-1.48-2.64-3.46-2.31c-1.98,0.33-4.62,0-5.44,1.65c-0.83,1.65-1.65,2.97-2.14,2.8c-0.49-0.16-2.14,0.16-4.45,1.48
				c-2.31,1.32-5.11,2.47-7.42,3.13c-2.31,0.66-12.7,2.31-14.02,2.64c-1.32,0.33-1.32,0-4.78,0.5c-3.46,0.49-5.11,1.15-6.27-0.16
				c-1.15-1.32-2.64-0.99-2.8-2.64c-0.16-1.65-1.15-8.08-0.82-9.4c0.33-1.32-1.65-1.48-1.32-2.97c0.33-1.48,0-4.12,0.82-5.44
				c0.82-1.32,5.11-6.27,5.11-8.41c0-2.14,0-2.14,0-2.14s2.14,0.49,2.47-0.82c0.33-1.32,1.65-5.77,1.98-6.93
				c0.33-1.15,0.49-3.3,0.66-4.29c0.17-0.99,0.17-3.96-0.33-4.29c-0.49-0.33-2.14-0.17-1.65-0.83c0.49-0.66,4.12-3.46,5.11-3.96
				l9.9-5.28c0,0,2.62-1.34,4.97-2.66c1.42,5.02,2.52,15.48,2.06,18.64c-0.2,1.39-0.21,2.57-0.13,3.51
				c-1.12,0.22-1.97,1.21-1.97,2.39c0,0.66,0.27,1.27,0.7,1.71c-0.07,0.87-0.09,2.29,0.12,4.49c0.41,4.36,0.81,6.54,0.41,9.78
				c-0.41,3.24,0.07,3.95,0.68,5.83c0.61,1.89,0.95,2.77,0.95,2.95c0,0-0.07-3.18-0.81-4.83c0,0,1.49,1.06,1.97,3.42
				c0.47,2.36,0.75,1.77,0.75,1.77l1.63-0.53c0,0-0.14-2.42-0.2-2.83c-0.07-0.41,1.22,1.65,1.36,1.83c0.14,0.18,1.76,0.65,1.76,0.65
				s-1.76-2.71-1.97-3.71c-0.2-1,2.92,2.36,2.92,2.36s-1.56-2.95-1.83-4.01c0,0,2.24,1.83,2.58,3.53c0,0-0.75-3.53-2.37-5.71
				c-1.63-2.18-0.81-3.83-1.29-6.01c-0.47-2.18-0.81-4.89-1.36-6.6c-0.38-1.2-0.7-2.64-1.15-3.53c0.04-0.18,0.07-0.36,0.07-0.55
				c0-1.35-1.09-2.44-2.44-2.44c-0.06,0-0.11,0.01-0.17,0.02c0.02-2.08,0.7-5.16,0.51-10.12c-0.17-4.33-1.41-9.15-2.34-12.22
				c1.69-0.97,3.15-1.89,3.22-2.23c0.16-0.82-40.75-36.62-40.75-36.62l-51.3,30.02c0,0,4.95,4.29,5.94,4.95
				c0.99,0.66,9.57,9.24,10.72,10.23c1.15,0.99,5.28,4.78,5.28,4.78s-2.64,1.81-2.14,4.12c0.49,2.31,1.32,4.29,1.15,6.27
				c-0.16,1.98,0.83,3.3,1.65,4.29c0.82,0.99,2.64,1.15,2.64,1.15s1.32,3.79,1.65,5.61c0.33,1.81,1.15,4.95,0.99,6.1
				c-0.16,1.15,0.17,4.45,0.17,4.45l-5.11,8.74l2.31,2.8c0,0-4.62,1.48-5.94,2.14c-1.32,0.66-7.75,2.97-9.07,3.3
				c-1.32,0.33-10.39-5.61-12.54-5.61c-2.14,0-3.13,0.66-3.63-0.82c-0.49-1.48-0.66-1.32-1.65-1.98c-0.99-0.66-0.99-2.8-2.14-2.97
				c-1.15-0.17-2.8,0.82-3.46,1.65c-0.66,0.82-1.81,1.32-1.81,1.32s0-1.48-0.82-1.32c-0.82,0.17-2.8,0.99-4.12-0.16
				c-1.32-1.15-2.14-2.47-2.47-3.46c-0.33-0.99-0.66-2.47-1.98-2.64c-1.32-0.16-11.71-3.3-13.53-3.63
				c-1.81-0.33-4.62-9.57-4.45-10.39c0.16-0.82-1.81-2.97-2.8-2.97s-4.45-1.48-4.78-1.98c-0.33-0.5-5.61-13.36-9.07-18.48
				c-3.46-5.11-8.58-11.38-8.91-12.54c-0.33-1.15,0-2.64-0.66-3.63c-0.66-0.99-1.98-0.66-2.14-2.31c-0.17-1.65-1.48-4.78-1.65-5.77
				s-1.32-2.31-1.32-3.13c0-0.82-0.66-7.09-0.17-7.59c0.49-0.49,1.48-3.96,1.98-4.95c0.49-0.99,0.17-5.44,0.33-6.43
				c0.17-0.99,1.32-2.14,1.15-3.79c-0.17-1.65-0.82-5.28-0.99-6.27c-0.17-0.99-0.82-2.97-0.82-2.97l9.24-14.85l0.99,1.48
				c0,0-0.82,1.81-1.32,2.97c-0.49,1.15-1.65,4.78-1.32,6.1c0.33,1.32,0.82,3.46,1.48,4.29c0.66,0.82,2.97-1.98,2.97-2.64
				s1.32-3.46,1.32-4.62c0-1.15-1.32-3.79-1.32-5.28s0.33-3.79,1.15-4.12c0.82-0.33,5.94-2.97,6.43-3.96
				c0.49-0.99,0.33-1.65-0.33-2.47c-0.66-0.82-3.46-1.65-2.31-2.8c1.15-1.15,8.25-11.88,9.57-13.36c1.32-1.48,5.28-6.93,5.28-6.93
				L77.43,756l0.33-2.21c0,0-3.43-4.76-7.08-3.65l-18.04,28.44l-13.61,20.14c0,0-2.77-2.21-4.32-1.77
				c-1.55,0.44-2.55,1.99-1.99,3.87v1.22c0,0-2.66-0.44-3.54,1.11c-0.89,1.55-0.22,2.43-0.22,2.43s-1.88,0.66-2.88,2.32
				c-1,1.66,0.22,1.77-0.11,1.77c-0.33,0-1.88,1.44-2.43,2.32c-0.55,0.89-2.66,3.21-2.88,4.43c-0.22,1.22,0.55,3.1,1.11,3.76
				c0.55,0.66,1,0.66,1.44,1.88c0.44,1.22,0.77,3.1,1.55,3.98c0.77,0.89,1.44,2.43,2.21,3.1c0.77,0.66,1.88,2.1,2.66,2.99
				c0.77,0.89,1,1,1,1.99c0,1-0.22,3.21,0.22,3.76c0.44,0.55,0.55,0.55,0.55,1.33c0,0.77-0.55,4.32-0.44,5.98
				c0.11,1.66,1.44,3.76,1.66,5.53c0,0-0.54,10.96-0.37,21.18c0.17,10.23,2.14,25.57,2.64,40.91c0.49,15.34,1.98,26.72,4.29,35.96
				c2.31,9.24,5.94,34.64,9.57,44.21c3.63,9.57,8.91,19.96,12.04,21.61c3.13,1.65,4.62,2.31,6.6,1.15c1.98-1.15,4.78-1.81,6.6-1.98
				c1.81-0.17,10.56-0.17,13.03-0.49c2.47-0.33,7.59-3.13,8.91-3.79c1.32-0.66,4.95-2.8,6.6-3.63c1.65-0.82,2.64-0.99,4.45-2.97
				c1.81-1.98,3.96-8.08,5.28-8.41c1.32-0.33,1.32-0.33,1.32-0.33s0.66,11.05,0,17.16c-0.66,6.1-0.49,17.32-0.33,22.6
				c0.17,5.28,0.82,9.24,2.14,13.36c1.32,4.12,1.65,6.76,2.31,8.41c0.66,1.65,1.98,3.96,2.14,5.28c0.16,1.32,0.16,3.96,0.33,5.94
				c0.17,1.98,0.82,11.88,1.48,23.42c0.04,0.66,0.07,1.31,0.1,1.95h127.69C247.3,1079.35,244.09,1058.92,243.72,1055.53z
				 M59.41,783.86c0.25-0.64,2.13-2.45,2.13-2.45c0.53-0.39,0.25,1.35,0.14,1.95c-0.11,0.6-0.57,1.24-0.89,1.81
				c-0.32,0.57-1.17,1.59-1.28,1.56c-0.11-0.04-0.39-0.43-0.64-0.89C58.63,785.39,59.16,784.5,59.41,783.86z M60.05,793.89
				c0.04,0.64-0.39,1.98-0.46,2.76c-0.07,0.78-0.28,1.56-0.67,2.55c-0.39,0.99-1.03,1.17-1.03,1.17s-0.11-0.53-0.25-1.28
				c-0.14-0.74,0.35-0.78,0.57-1.59c0.21-0.82,0.47-3.94,0.57-4.18C58.88,793.08,60.01,793.25,60.05,793.89z"/>
			<path class="st1" d="M576.59,1100.83c0,0,8.26,5.63,9.58,8.45c0,0,2.63,0.38,7.51-3.94c4.88-4.32,16.15-15.78,17.84-16.9
				c1.69-1.13,8.64-11.83,9.58-11.27c0.94,0.56,7.89,4.51,8.83,4.7c0.94,0.19,7.51-5.63,9.2-12.4c1.69-6.76,7.1-18.23,5.63-18.59
				c-0.75-0.19-1.5-0.75-3.76-0.75c-2.25,0-7.14-4.51-12.77-5.45c-5.63-0.94-20.85-3.01-23.29-3.38c-2.44-0.38-5.07-2.44-6.2-2.44
				c-1.13,0-8.83-0.94-8.83-1.69s3-3.94,3.57-5.45c0.56-1.5,0.38-2.44,0.94-4.32c0.56-1.88,0.56-2.82,1.88-4.51
				c1.32-1.69,1.5-2.44,1.5-4.7c0-2.25,1.5-1.32,3-4.88c1.5-3.57-0.94-5.26-1.88-5.45c-0.94-0.19-1.69-2.07-1.69-2.07
				s2.82-3.01,2.25-2.82c-0.56,0.19,1.69-1.32,1.69-1.32l2.44-5.07l5.07-1.88l-2.82-2.25l4.7-7.32l-1.5-1.69l18.59-34.75
				c0,0-6.57-4.88-12.21-5.45l-26.86,52.21l-4.51,0.56l0.56,6.76l-3.38,6.76c0,0-0.56-2.07-2.82-1.88
				c-2.25,0.19-4.13,1.31-4.32,3.38c0,0-5.82-11.08-7.14-14.09c0,0,10.33,2.63,14.46-0.19c0,0-11.08,2.25-17.65-4.51
				c0,0,16.15,2.82,22.73-1.5c0,0-18.03,5.82-24.23-2.25l-2.82-5.63c0,0,13.33-0.56,19.16,5.07c0,0-11.08-11.83-23.29-15.96
				c0,0,4.51,0.94,8.45-0.75c0.17-0.07,0.31-0.13,0.45-0.19c-1.43-0.04-7.91-0.41-13.23-3.56c0,0,3.38,1.5,10.14-0.75
				c0,0-8.45-0.19-13.34-2.82c-4.88-2.63-9.39-4.88-9.39-4.88s5.07-0.56,11.64,2.25c6.57,2.82,19.35,7.51,22.91,11.08
				c3.57,3.57,6.39,4.51,6.39,4.51s-7.7-15.03-29.3-18.22c0,0,19.91-1.5,27.42,3.01c0,0,12.58,5.26,17.47,3.57
				c0,0-6.95,0.38-16.15-5.26c0,0,14.65-3.19,17.47-4.88c0,0-16.15,0.75-23.85-1.31c0,0,11.64-1.13,16.9-4.7
				c0,0-18.03,2.25-24.6,2.07c0,0,8.08-3.76,10.71-8.64c0,0-6.01,7.14-15.78,8.08l-8.08-0.75c0,0,4.59-0.24,9.46-1.49
				c-0.81-0.38-1.51-0.76-2.15-1.14c-4.78,0.77-10.32,1.39-14.07,0.94c0,0,4.63-1.14,10.24-3.24c-0.51-0.26-1.05-0.5-1.63-0.69
				c-4.94,1.6-10.57,2.64-16.69,2.43c0,0,3.94-2.63,11.27-3c2.38-0.12,4.04,0.12,5.42,0.58c0.53-0.17,1.05-0.35,1.57-0.53
				c-3.4-1.43-8.04-2.38-14.13-1.55c0,0,1.69-0.75,4.51-5.26c0,0-4.13,6.2-9.95,5.45l-3.76-1.69c0,0,4.7-0.56,5.82-4.32
				c0,0-4.7,7.51-10.71,0.94l-2.82-4.7c0,0,19.16,3.76,25.54-2.44c0,0-11.64,6.01-26.67-1.13c0,0,0.38-1.5,2.63-9.2
				c2.25-7.7-6.39-13.71-10.71-18.41c-4.32-4.7-8.45-10.14-8.64-11.64c-0.19-1.5-0.38-8.83-1.88-9.58c-1.5-0.75-8.26-0.94-8.26-0.94
				s-1.69-5.07-12.77-5.45c-11.08-0.38-14.09,4.32-15.96,5.26c-1.88,0.94-16.34,6.39-18.59,0.56c-2.25-5.82,4.51-9.02,9.95-6.57
				c0,0-7.89-4.7-11.64,3.57c0,0-0.94,9.02,10.33,7.89c0,0-0.19,5.82-2.07,6.39c-1.88,0.56-12.21,5.45-12.77-5.63
				c0,0,3.76-6.2,1.5-9.02c0,0,0.38,6.76-4.13,9.39c-4.51,2.63-5.26,10.52-0.94,17.28c4.32,6.76,9.2,10.89,10.89,11.46
				c1.69,0.56,0,7.89,2.82,15.21c2.82,7.32,2.82,7.32,2.82,7.32s-3,1.69-3.19,0.19c-0.19-1.5-3.38-8.83-5.45-11.27
				c-2.07-2.44-3.01-2.44-4.51-7.7c-1.5-5.26-4.13-8.45-6.76-11.08c-2.63-2.63-2.82-0.75-3.94-4.88
				c-1.13-4.13-7.7-25.17-10.14-29.11c-2.44-3.94-4.51-8.64-4.7-9.95c-0.19-1.31-3.01-24.6-3.57-34.18
				c-0.56-9.58-0.56-31.93,0.56-34.75c1.13-2.82,3.94-6.01,4.51-9.2c0.56-3.19,0-5.63,2.07-9.02c2.07-3.38,5.26-7.32,6.76-9.95
				c1.5-2.63,2.25-5.45,2.44-6.2c0.19-0.75-2.25-3.01-6.57,1.69c-4.32,4.7-4.88,8.45-8.45,8.83c-3.57,0.38-6.01,1.13-6.95,0
				c-0.94-1.13-4.88-5.07-4.88-5.63c0-0.56,3.38-7.7,2.82-9.2c-0.56-1.5-2.63-2.44-2.82-0.56c-0.19,1.88-1.31,3.19-1.88,4.13
				c-0.56,0.94-0.56,0.94-0.56,0.94s-4.13-3.57-4.13-5.26c0-1.69,1.13-9.39-0.56-11.46s-2.63-1.31-2.63-1.31l-0.56,3.76
				c0,0-0.94-9.2-5.82-7.51c-0.56,0.19,0.94,4.7,0.94,4.7s-1.88,0.19-1.5,1.31c0.38,1.13,1.31,3.76,1.31,6.2
				c0,2.44,1.13,3.94,1.5,7.32c0.38,3.38,2.44,5.82,2.82,8.45c0.38,2.63,0.56,6.39,1.31,8.26c0.75,1.88,3.38,7.89,3.19,9.58
				c-0.19,1.69,1.13,5.63,1.31,8.26c0.19,2.63,0.19,4.32-0.19,6.39c-0.38,2.07,0,5.26,0,8.26c0,3-1.13,18.97-1.5,26.67
				c-0.38,7.7-2.07,17.09-2.07,17.09s-4.32,14.65-5.07,18.41c-0.75,3.76-0.38,7.89,1.13,11.83c1.5,3.94,12.58,37.56,14.84,43.76
				c2.25,6.2,7.14,17.65,7.14,18.97c0,1.31-0.75,2.63-1.13,3.94c-0.38,1.31-2.44,6.76-1.13,10.14c1.31,3.38,2.25,4.88,2.44,6.2
				c0.19,1.31,3.38,4.32,3.94,4.32c0.56,0-2.25,4.7-2.25,4.7s3,2.82,5.07,2.63c2.07-0.19,2.07-0.19,2.07-0.19s2.63,0.94,2.25,4.13
				c-0.38,3.19-1.5,4.88-1.32,6.39c0.19,1.5,0.38,4.51,0.19,6.01c-0.19,1.5-0.94,3.57-0.94,4.7c0,1.13,1.69,3.01,1.69,3.01
				s0.56,4.7,0.56,10.14c0,5.45,1.13,8.83,1.13,8.83s-1.88,3.94-0.75,6.39c0,0-0.56,6.2,0,7.7c0.56,1.5,4.7,6.01,6.39,6.57
				c1.69,0.56,6.39,0.75,6.39,0.75s1.13,6.57,3.57,9.58c0,0-1.31,3.76,0.94,9.77c2.25,6.01,3.38,9.58,3.19,12.02
				c-0.19,2.44-0.75,11.64-1.13,15.21c-0.38,3.57-1.13,10.71-0.56,14.46c0.56,3.76,0.75,5.82,0.75,5.82s-0.34,8.66-0.4,14.36h140.48
				C579.43,1108.38,576.59,1100.83,576.59,1100.83z"/>
			<path class="st1" d="M688.86,1111.75c-0.09-3.02-1.79-10.24-3.05-15.24c-1.26-5-3.8-12.86-3.8-12.86s1.94-3.74,1.86-4.34
				c-0.08-0.6-1.79-20.71-2.3-25.81c-0.51-5.09-2.93-24.81-4.34-33.28c-1.41-8.47-2.09-21.89-2.09-21.89s3.59-6.24,5.23-9.94
				c1.64-3.7,6.32-12.06,9.05-15.6c2.73-3.54,3.73-5.19,5.26-7.36c1.54-2.17,4.21-8.44,7-17.31c2.79-8.86,2.78-18.27,3.73-19.15
				c0.95-0.88,3.53-3.19,5.33-5.7c1.8-2.51,5.56-8.62,5.56-8.62s0.05-0.77-0.65-3.86c-0.71-3.1,1.12-4.24,2.72-8.25
				c1.6-4,2.62-5.5,2.62-5.5s-2.28-1.22-4.39-1.1c-2.11,0.12-5.09,0.51-5.09,0.51s0.15-3.51-0.08-4.09
				c-0.23-0.58,0.21-10.05-0.11-10.16c-0.32-0.11,0.91-8.16,0.91-8.16s-0.84-4.14-0.53-5.24c0.31-1.1,0.97-3.01,2.52-2.76
				c0.47,0.08,1.01-0.01,1.54-0.17c1.24,1.55,3.8,3.87,3.8,3.87c0.58-3.72,9.16-5.44,9.16-5.44l18.35,6.87l-3.47-46.45l-25.09-11.4
				c-0.52-1.93-1.02-4.01-1.43-6.14c-1.59-8.15,0.97-10.87,1.71-13.36c0.74-2.48,5.74-4.86,9.57-4.96
				c3.83-0.1,7.48,13.62,9.69,15.32c0.3,0.23,0.6,0.43,0.88,0.62c-0.07,0.26-0.09,0.54-0.06,0.82c0.15,1.14,1.19,1.94,2.33,1.79
				c0.22-0.03,0.43-0.1,0.62-0.19c0.65,0.82,1.92,2.2,2.41,2.8c0.65,0.8,1.16,1.33,2.32,2.26c1.16,0.93,1.46,0.99,1.99,1.66
				c0.53,0.67,1.41,3.61,1.63,5.36c0.23,1.74,1.33,2.29,1.33,2.29c-0.58-0.32-0.69-3.02-0.69-3.02c-0.05-1.72-1.23-4.87-1.46-5.39
				c0.18,0.26,0.9,0.96,1.45,1.5c0.62,0.61,2.11,2.24,2.5,4.41c0.38,2.17,1.74,2.78,1.74,2.78c-0.57-0.22-0.67-1.74-1.15-3.94
				c-0.48-2.2-3.24-5.2-2.84-4.76c0.4,0.44,1.95,0.58,2.89,1c0.94,0.42,2.48,0.91,2.28,2.76s1.5,2.47,1.5,2.47
				c-0.98-1.1-0.59-1.11-0.54-2.64c0.05-1.53-1.45-2.42-1.45-2.42c1.53,0.05,2.57,1.98,2.57,1.98c-0.46-2.01-1.3-2.79-2.16-2.58
				c-0.86,0.21-1.59-1.62-3.01-2.71c-1.42-1.1-2.27-3.05-6.02-5.38c-2.59-1.6-3.83-1.5-4.35-1.28c-0.4-0.74-1.21-1.19-2.09-1.08
				c-0.52,0.07-0.96,0.33-1.29,0.69c-6.24-5.22-4.23-22.3-17.79-14.11c-6.38,3.85-6.54,13.22-4.56,22.77l-9.24-4.2
				c-1.4,3.22,0.2,16.67,0.2,16.67l-7.02,3.19c-1.57,3.09-0.67,18.15,3.01,25.41c0.26,0.5,0.53,0.98,0.81,1.45
				c-0.72,0.75-1.41,1.65-1.78,2.05c-0.72,0.78-2.08,2.39-2.46,4.21c-0.38,1.82-0.89,7.83-0.89,7.83l-4.72,0.96
				c0,0-0.04,1.3,0.07,2.11c0.11,0.81,0.01,4.3,0.26,5.64c0.24,1.33,0.11,4.02,0,6.28c-0.11,2.27-2.62,8.74-3.38,9.18
				c-0.76,0.44-1.3,2.08-1.87,2.43c-0.57,0.35-2.82,5.08-3.61,6.34c-0.79,1.26-4.51,10.97-5.94,13.14s-7.94,15.04-8.43,15.51
				c-0.48,0.47-1.52,0.88-3.6,1.7c-2.08,0.82-4.73,3.55-5.5,3.93c-0.77,0.37-2.18,0.08-3.29-0.12c-1.12-0.2-2.66,0.55-3.41,1.06
				c-0.75,0.51-0.68,1.59-1.08,3.21c-0.4,1.62-3.14,9.97-3.12,10.65c0.02,0.68,0.25,4,0.42,4.79c0.17,0.8-1.64,2.06-3.79,2.88
				c-2.15,0.83-8.16,7.07-8.68,7.28c-0.52,0.2-1.59-0.68-1.59-0.68s0.54-0.07,0.14-1.52c-0.39-1.45-2.93-7.81-3.09-8
				c-0.16-0.18-1.01-0.96-1.01-0.96s0.05-0.69,0.18-1.25c0.13-0.56-0.25-4,0.24-4.95c0.49-0.95,0.43-3.54,0.81-4.27
				c0.38-0.73,0.95-3.74,0.95-3.74s0.86-0.25,1.43-0.53c0.58-0.28,1.67-0.83,2.25-1.59c0.58-0.76,0.13-1.59-0.15-3.26
				c-0.29-1.67,0.28-3.11-0.03-4.91c-0.3-1.8-1.9-3.03-1.9-3.03s0.22-0.44,0.15-1.45c-0.06-1.02,0.02-3.01,0.39-4.35
				c0.37-1.35,0.23-0.85,0.32-1.75c0.09-0.9,0.32-1.75,0.58-2.4c0.26-0.65-0.56-1.7-1.31-2.7c-0.74-1-0.72-0.79-1-1.92
				c-0.28-1.12-0.41-1.04-0.79-1.88c-0.38-0.84-1.4-1.32-2.27-2.23s-1.23,0.02-1.77-1c-0.54-1.02-0.92-0.77-1.52-1.17
				c-0.6-0.4-2.31-1.47-2.65-1.5c-0.34-0.02-2.3-1.95-2.3-1.95s0.48,1.58,0.08,1.63c-0.4,0.05-2.69-2.79-2.69-2.79
				c-2.8-2.64-6.03-2.22-6.03-2.22c2.03,0.35,2.94,1.05,2.74,1.08c-0.2,0.03-3.47,0.11-3.47,0.11c-3.97-1.67-6.45-0.25-6.45-0.25
				c3.03-0.87,4.54,0.77,3.74,0.95c-0.8,0.17-3.51,0.32-4.89,0.71c-1.38,0.39-3.26,1.18-4.74,1.91c-1.47,0.74-2.04,1.15-2.78,1.73
				c-0.74,0.58-0.51,1.36-0.77,1.94c-0.27,0.58-2.69,2.95-3.32,3.37c-0.63,0.42-1.14,2.27-1.43,2.65c-0.29,0.38-1.82,4.88-1.82,4.88
				l-0.51,1.3c0,0,0.74-0.1,0.67,0.39c-0.07,0.49-0.21,1.53-0.21,1.53l1.33-1.81l-0.25,1.26c0,0-0.29,1.95-0.02,2.46
				c0.27,0.51,0.37,1.8,0.35,2.14c-0.02,0.34-0.01,2.05,0.17,2.37c0.18,0.32,0.83,1.67,0.93,2.41c0.1,0.74,0.73,1.95,0.41,2.06
				c-0.33,0.11-1.11,3.01-1.22,3.78c-0.11,0.77,0.19,1.96,0.68,2.58c0.49,0.62,0.66,2.44,0.8,2.97c0.14,0.53,1.15,3.06,2.43,3.44
				c1.28,0.38,2.51-1.21,2.35-0.85c-0.16,0.36,2.47,5.83,3.15,6.35c0.68,0.53,1.05,4.37,1.05,4.37s-0.58,0.83-1.12,1.38
				c-0.54,0.55-3.43,7.76-3.43,7.76s0.65-0.29,0.64,0.19c-0.01,0.48,0.37,4.39-0.46,4.29c-0.83-0.1-6.66,1.28-6.66,1.28l-1.05-0.75
				c0,0-2.89,0.38-5.38,0.63c-2.49,0.26-2.28,1.87-2.28,1.87s-4.67,1.91-13.57,4.91c-8.9,3-16.18,15.29-18.68,19.1
				c-2.51,3.81-7.79,19.87-8.2,20.94c-0.41,1.08-1.18,7.73-1.53,11.88c-0.35,4.14-1.91,14.73-1.91,14.73s-10.96,2.38-11.42,3.06
				c-0.46,0.67,1.43,10.47,1.43,10.47s-4.77,0.62-4.95,0.78c-0.18,0.16-6.53,0.17-7.96,0.22c-1.43,0.05-1.07,3.35-0.15,6.17
				c0.91,2.82,7.2,8.62,8.21,9.04s2.79,1,3.95,0.99c1.16-0.01,9.5,2.18,9.88,2.47c0.38,0.29,0.61,0.47,0.93,2.41
				c0.32,1.94,3.32,10.29,3.51,10.68c0.19,0.39,0.83,4.26,1.16,5.72c0.33,1.46,1.06,12.29,1.53,12.78c0.47,0.48,3.09,0.62,3.68,1.02
				c0.6,0.4,0.52,2.39,0.23,3.32c-0.17,0.54-0.45,4.57-0.64,8.19h136.83C688.94,1117.82,688.92,1113.84,688.86,1111.75z
				 M584.52,1058.79c0.29,1.19-0.78,5.57-1.56,9.49c-0.79,3.93-4.97,25.78-5.73,28.34c-0.76,2.56-3.83,18.8-3.8,20.1
				c0.03,1.21-0.66,2.4-1.1,4.16c-0.36-2.6-0.88-5.44-1.35-6.71c-0.84-2.28-6.18-7.6-6.18-7.6l1-1.22c0,0-0.32-5.08-0.42-6.37
				c-0.1-1.28,1.36-3.73,2.14-4.51c0.79-0.79,0.35-1.48,0.43-4.02c0.08-2.54-0.54-11.47-0.26-11.92c0.28-0.45,2.44-5.37,3.14-7.38
				c0.7-2,0.44-5.52,1.27-6.52c0.83-1,5.13-4.15,6.13-4.83c1-0.68,4.86-6.71,5.22-7.1c0.36-0.39,0.72-0.78,1.34-0.18
				C585.43,1053.14,584.23,1057.6,584.52,1058.79z"/>
			<path class="st1" d="M795.41,920.43c0,0-0.08,0.67-0.17,1.63c0.09,0.02,0.17,0.03,0.26,0.05
				C795.53,921.56,795.63,920.87,795.41,920.43z"/>
			<path class="st1" d="M795.5,922.11c-0.09-0.02-0.17-0.04-0.26-0.05c0,0.01,0,0.03,0,0.04c0.06,0.04,0.15,0.1,0.26,0.19
				C795.5,922.23,795.5,922.17,795.5,922.11z"/>
			<path class="st1" d="M795.14,922.03c0,0,0.04,0.03,0.1,0.06c0-0.02,0-0.03,0-0.04C795.21,922.05,795.18,922.04,795.14,922.03z"/>
			<path class="st1" d="M809.95,926.73c-0.63,0.08-1.2,0.19-1.62,0.33C807.24,927.43,808.37,927.2,809.95,926.73z"/>
			<path class="st1" d="M1018.18,1115.75c-1.76-9.28-8.9-23.58-12.17-29.47c-3.26-5.89-6.15-20.32-10.91-23.58
				c0,0,5.02,2.76,6.4-2.51c0,0,1.13-4.01-3.01-6.65c0,0-2.13-4.01-5.14-5.89c-3.01-1.88-2.51-0.63-3.01-1.88
				c-0.5-1.25,0-1.63,0.13-3.26c0.13-1.63-0.75-0.88,0-2.76c0.75-1.88,2.01-4.39,2.38-6.02c0.38-1.63,0.25-3.01,0.5-4.14
				s0.88-1.63,1.38-2.88c0.5-1.25,0.88-2.88,1-3.89c0.13-1,1.76-2.13,1.38-2.76c-0.38-0.63-1.13-2.38-0.38-3.39
				c0.75-1,5.77-4.39,6.15-6.77c0.38-2.38,4.64-25.59,3.39-37.75c-1.25-12.17-2.01-19.44-2.01-19.44s6.27-10.28,6.9-11.79
				c0.63-1.5,0.63-1.13,1.76-2.01c1.13-0.88,2.01-0.75,2.13-1.38c0.13-0.63-0.38-7.9-1-10.91c-0.63-3.01-2.88-11.41-4.26-15.18
				c-1.38-3.76-10.28-17.31-11.41-20.44c-1.13-3.14-5.52-11.16-5.52-11.91c0-0.75-0.75-0.38-0.63-0.75
				c0.13-0.38-1.88-1.88-1.63-5.14c0.25-3.26,2.63-10.41,2.63-11.91c0-1.51-0.88-2.01-1-3.14c-0.13-1.13,0-3.26-0.13-4.77
				c-0.13-1.51-0.63-2.38-1.25-3.64c-0.63-1.25-2.76-5.77-2.88-6.9c-0.13-1.13-2.01-1.38-3.26,0.5l0.13,1.76c0,0-1,1,0,2.13
				l0.13,4.14c0,0-1.13-3.89-2.76-3.39c-1.63,0.5-1.5,3.26-1,6.02c0.5,2.76,0.5,4.26,0.13,5.39c-0.38,1.13-1.13,2.51-1.38,3.14
				c-0.25,0.63-0.38,1.63-0.75,2.01c-0.38,0.38-3.64,1.63-4.26,1.88c-0.63,0.25-2.76,0-2.76,0s-5.77-5.02-8.9-5.02
				s-3.51,1.38-3.51,1.38s2.51,1.88,3.39,3.51c0.88,1.63,2.26,1.76,3.14,2.63c0.88,0.88,2.63,2.51,3.01,3.39
				c0.38,0.88,3.14,3.51,5.02,4.01c1.88,0.5,4.39,3.14,4.52,4.26c0.13,1.13,0.63,2.01,0.63,2.01l-0.63,0.88c0,0,1.5,2.01,2.13,3.14
				c0.63,1.13,1.25,6.4,1.63,7.27c0.38,0.88,1,2.51,0.88,3.14c-0.13,0.63,0.63,3.01,0.63,3.64c0,0.63,0.25,3.51,0.13,6.27
				c-0.13,2.76-0.13,6.15,0,7.02c0.13,0.88-1.63,1.25-0.63,3.51c1,2.26,1.76,2.51,1.63,4.39c-0.13,1.88-2.13,3.39-1.51,4.39
				c0.63,1,1.63,2.51,2.01,3.89c0.38,1.38,0.13,3.64-0.25,4.26c-0.38,0.63-1-0.13-1.76,1.38c-0.75,1.51-0.88,2.01-2.51,2.76
				c-1.63,0.75-1.25,0.25-2.51,1.25c-1.25,1-1.76,0-3.14,1c-1.38,1-1.63,2.38-2.26,2.88c-0.63,0.5-2.13,2.01-2.88,2.38
				c-0.75,0.38-2.13,1.63-3.01,2.01c-0.88,0.38-1.63-0.25-3.01,1c-1.38,1.25-6.02-0.5-7.4,0.63c-1.38,1.13-2.01,1.76-2.13,3.51
				c-0.13,1.76-0.75,5.14-1.13,5.27c-0.38,0.13-2.51,0.75-4.39,2.51c-1.88,1.76-3.14,1.76-3.76,3.76c-0.63,2.01-1.5,3.39-1.88,3.14
				c-0.38-0.25-1.38-0.63-1.76-0.63c-0.38,0-0.63,3.89-2.01,4.89c-1.38,1-2.26,0.13-3.89-0.88c-1.63-1-4.89-3.76-4.77-4.89
				c0.13-1.13-0.38-2.88-0.63-3.51c-0.25-0.63-0.25-1.5,0.13-1.25c0.38,0.25,1.63,0.88,1.76,0.5c0.13-0.38,1-2.38,1-3.26
				c0-0.88-0.63-1.5-1.13-3.89c-0.5-2.38,0.25-5.02,0.13-6.65c-0.13-1.63-0.25-3.39-0.88-4.64c-0.63-1.25-2.26-3.26-2.51-4.26
				c-0.25-1-0.75-2.38-0.75-2.38l2.76,1.13c0,0-1-2.13-2.76-3.01c-1.76-0.88,3.64,0.38,3.64,0.38s-2.88-2.51-4.14-2.63
				c-1.25-0.13-5.27-1.63-5.27-1.63s3.26-1.38,5.39-0.75c0,0-1.25-1.88-6.4-1.38c0,0,1.25-1.88,3.39-1.38c2.13,0.5,0-0.5,0-0.5
				s-2.95,0-5.15,0.3c-1.58,0.47-2.71,0.69-1.62,0.33c0.42-0.14,0.99-0.25,1.62-0.33c1.16-0.34,2.56-0.82,3.52-1.3
				c2.26-1.13,0.25-0.5,0.25-0.5s-3.89,1.13-5.52,1.13c-1.63,0,4.64-2.88,4.77-3.39c0,0-4.92,2.47-6.52,2.6c0,0,2.04-3.65,3.98-4.21
				c0,0-2.68,0.77-3.85,2.37c0,0,0.67-2.41,1.87-3.04c0,0-2.54,1.34-3.51,3.48c0,0-0.2-3.01,0.43-4.11c0,0-3.24,5.75-3.44,7.86
				c0,0,0.5-6.05,0.03-7.86c0,0-0.74,6.05-1.17,7.32c0,0,0.54-2.78-0.53-5.15c0,0,0,3.34-0.4,3.34c-0.16,0-1.26-2.51-4.36-3.17
				c0,0.06,0,0.12,0,0.18c0.85,0.64,2.87,2.42,1.75,4.3c-1.4,2.34-1,1.51-1.07,0.57c-0.07-0.94-0.07-3.95-0.5-4.25
				c-0.14-0.1-0.18-0.33-0.18-0.62c-0.11-0.08-0.2-0.15-0.26-0.19c-0.11,1.3-0.23,3.11-0.13,4.45c0.17,2.34-0.27,1.87-0.27,1.87
				s-1.97-5.79-3.88-6.29c0,0,1.47,1.64,2.14,4.21c0,0-1.87-4.58-3.55-4.72c0,0,2.73,3.03,2.19,6.36c0,0-4.06-1.38-6.78,1
				c0,0-1.11,0.15-1.38-0.27c0,0,0.5,0.84,0.96,0.77c0.46-0.08,1.42-0.8,2.64-0.88c1.17-0.07-2.01,1.42-3.34,1.66
				c0.01,0.01,0.02,0.02,0.02,0.02c0.65-0.02,2.7-0.09,4.2-0.18c1.8-0.11,1.95,0.27,2.37,0.54c0.42,0.27-2.6,1.88-4.52,1.03
				c-0.93-0.41-1.6-0.94-2.05-1.38c-0.13,0-0.21,0.01-0.21,0.01c0.05-0.01,0.12-0.02,0.18-0.03c-0.46-0.46-0.68-0.81-0.68-0.81
				s0.84,1.57,2.18,3.56c1.34,1.99,1.03,1.61,1.03,1.61s-1.42,0.92-3.1,0.88c-1.68-0.04-2.91-0.31-2.91-0.31s4.02,1.07,4.67,1.91
				c0.65,0.84,0.04,0.88,0.04,0.88s-2.99-1.49-4.86-0.34c0,0,1.95-0.27,2.53,0.04c0,0-0.8,0.27-1.95,1.26c0,0,2.53-1.3,3.48-0.23
				c0.96,1.07,0.61,1.03,0.04,1c-0.57-0.04-2.49-0.34-3.64,0.15l1.19-0.04c0,0-1.53,1-2.49,2.11c0,0,1.76-1.15,2.49-1.23
				c0.73-0.08,0.84,1.42,0.04,1.91c-0.8,0.5-3.03,1.42-4.02,2.53c0,0,1.72-0.77,2.6-0.73c0.88,0.04,0.88,0.04,0.88,0.04
				s-3.22,1.53-3.83,2.8c0,0,2.07-1.3,2.72-1.23c0.65,0.08,0.65,0.08,0.65,0.08s-1.8,1.65-2.53,3.03c0,0,1.19-1,1.76-1
				c0.57,0,0,1.19-0.42,2.03c-0.42,0.84-1.68,3.33-1.61,5.17c0,0,0.38-1.76,0.96-2.37c0,0-1.19,2.76-0.65,4.37
				c0,0,0.27-2.57,0.65-2.99c0,0,0.23,1.68,0.34,4.21c0.11,2.53,0.23,2.49,1.34,4.21c0,0-0.65-1.99-0.65-3.37
				c0,0,0.92,3.1,2.22,4.98c0,0,1.99,2.53,4.14,4.4c2.14,1.88,3.56,2.57,4.44,3.25c0.88,0.69,1.46,1.11,1.91,1.42
				c0.46,0.31,0.61,0.54,0.61,0.54s-0.27,5.97-0.23,6.7c0.04,0.73,0.23,0.46,0,0.54c-0.23,0.08-12.67,10.26-15.16,11.83
				c0,0-2.08,0.72-3.96,1.71c-1.88,0.99-3.95,2.12-4.52,2.35c-0.56,0.24-1.13,0-1.6,0.52c-0.47,0.52-2.59,3.01-3.2,3.62
				c-0.61,0.61-1.36,0.47-1.51,1.6c-0.14,1.13-0.61,0.89-1.18,2.26c-0.56,1.36-1.18,0.66-1.03,2.77c0.14,2.12,0.05,2.73-0.47,5.17
				c-0.52,2.45-0.94,3.95-1.13,7.01c-0.19,3.06-1.08,7.38-1.13,16.56c0,0-0.28,14.24,0.85,19.13c1.13,4.89,3.51,14.05,3.51,15.3
				s-0.13,2.38,1.13,4.39c1.25,2.01,1.63,1.88,2.01,3.89c0.38,2.01-0.13,1.63,1.38,3.89c1.5,2.26,2.26,4.01,4.77,6.15
				c2.51,2.13,3.64,6.52,3.64,6.52s1.88-0.88,2.88-0.88c1,0,0.13,2.51,3.39,3.64c3.26,1.13,4.01,0.13,5.89,1.38
				c1.88,1.25,3.89,1.63,5.64,3.39c1.76,1.76,4.01,2.76,4.39,3.01c0.34,0.23-0.13,9.08,1.05,14.78h110.76
				C1019.02,1119.88,1018.57,1117.77,1018.18,1115.75z"/>
			<path class="st1" d="M783.87,930.29c-0.01-0.01-0.02-0.02-0.02-0.02c-0.06,0.01-0.13,0.02-0.18,0.03
				C783.66,930.29,783.74,930.29,783.87,930.29z"/>
			<path class="st1" d="M1123.39,1109.5c0.11-4.41-0.34-17.51,0.11-18.59c0.45-1.07,2.26-1.41,3.11-1.19
				c0.85,0.23,3.45,2.66,4.12,2.88c0.68,0.23,2.54-0.11,2.71-0.28c0.17-0.17,1.47-4.63,1.3-5.37c-0.17-0.73-2.2-3.79-2.03-4.24
				c0.17-0.45,2.37-2.82,2.54-3.73c0.17-0.9,0.62-2.32,0.51-3.22c-0.11-0.9-0.17-6.5-0.68-7.23c-0.51-0.73-1.19-0.85-0.96-1.69
				c0.23-0.85,0.45-1.75,0.62-2.26c0.17-0.51,1.3-0.85,1.86-0.96c0.56-0.11,3.05-0.79,3.33-3.11c0.28-2.32,0.4-6.05,0.96-6.67
				c0.56-0.62,2.94-4.24,3.73-5.54c0.79-1.3,4.35-5.37,4.46-6.04c0.11-0.68,0.23-3.28,0.56-4.01c0.34-0.73,0.73-1.41,0.96-1.69
				c0.23-0.28,8.3-9.43,9.27-11.98c0.96-2.54,1.64-5.42,1.36-6.38c-0.28-0.96-1.24-8.47-1.47-10.4c-0.23-1.92-1.47-11.81-1.86-13.67
				c-0.4-1.86-0.79-5.03-1.07-5.59c-0.28-0.56-2.49-2.26-6.84-3.16l-0.85-0.51c0,0-10.34-20.28-10.28-23.9
				c0.06-3.62,0.73-5.2,0.17-7.46c-0.56-2.26-0.85-3.45-0.28-3.84c0.57-0.4,2.99-2.15,2.49-3.28c-0.51-1.13-0.96-1.36-2.43-0.45
				c-1.47,0.9-2.03,1.47-3.16,1.41c-1.13-0.06-2.49-0.51-2.49-0.68s-0.06-3.5-0.79-4.18c-0.73-0.68-2.37-1.13-2.66,0.23
				c-0.28,1.36-0.56,3.28-1.02,3.16c-0.45-0.11-1.58,0.73-2.99-1.19c-1.41-1.92-3.11-4.29-4.29-4.07c-1.19,0.23-2.15,0.23-0.9,3.67
				c0,0-4.86-2.77-6.89-5.48c-2.03-2.71-3.62-1.98-4.46-1.19s1.19,2.15,1.81,2.88c0.62,0.73,2.88,3.79,3.45,4.35
				c0.56,0.56,2.77,3.05,2.94,3.22c0.17,0.17-2.66-1.02-4.07-2.66c-1.41-1.64-4.69-2.37-5.93-1.41s-1.13,1.64,0.73,1.92
				c1.86,0.28,2.37,2.2,2.99,2.66c0.62,0.45,3.28,2.03,3.67,2.43c0.4,0.4,2.66,3.33,3.33,4.18c0.68,0.85,2.77,4.24,3.39,4.91
				c0.62,0.68,2.77,3.22,2.77,3.22s14.12,33.05,13.9,33.78c-0.23,0.73-8.53,6.33-10.68,10.17c-2.15,3.84-5.37,9.49-5.65,9.49
				c-0.28,0-4.41,0.96-4.97,0.73c-0.56-0.23-4.69-0.4-5.71,0.96c-1.02,1.36-2.71,5.31-2.66,6.5c0.06,1.19-0.85,3.56-1.02,4.01
				c-0.17,0.45-3.67,2.03-3.67,2.03s-1.75-1.75-1.81-4.86c-0.06-3.11-0.17-7.57-0.17-7.57s0.9,5.54,1.19,7.51
				c0,0-0.11-5.37-1.19-8.98c0,0-0.56-4.41-0.56-6.95c0-2.54,0-2.54,0-2.54s1.3,3.95,2.43,5.82c0,0-2.2-5.08-2.15-11.13
				c0.06-6.04-3.33-14.69-14.18-19.49c-10.85-4.8-12.15-6.33-19.38-5.37c-7.23,0.96-8.47,4.46-9.38,4.63
				c-0.9,0.17-2.71-1.19-4.63-0.56c-1.92,0.62-8.87,3.39-11.81,6.84c-2.94,3.45-5.59,7.91-5.99,8.93c-0.4,1.02-2.49,3.95-2.82,5.42
				c-0.34,1.47-2.26,7.51-0.62,12.09c1.64,4.58,4.52,6.33,5.03,6.95c0.51,0.62,4.12,9.83,4.69,10.62c0.56,0.79,1.36,3.39,1.53,4.46
				c0.17,1.07-0.28,4.18-0.17,5.42s0.11,2.2,0.11,2.2s-12.88-1.41-15.03-4.46c-2.15-3.05-3.45-5.08-4.35-4.69
				c-0.9,0.4-1.24,1.41-2.09,0.9c-0.85-0.51-0.51-1.75-2.15-1.64c-1.64,0.11-1.69,0.4-2.49,0.73c-0.79,0.34-1.98,0.34-4.52-4.29
				c-2.54-4.63-8.19-12.2-9.38-13.62c-1.19-1.41-10.56-18.36-11.47-21.36c-0.9-2.99-1.58-9.04-2.03-10.28
				c-0.45-1.24-0.96-2.94-0.96-2.94s-1.19-16.95-0.85-18.02c0.34-1.07,1.07-3.67,2.37-6.27c1.3-2.6,0.68-4.12,0.73-4.86
				c0.06-0.73-0.17-5.93-0.17-6.67c0,0,7.57-6.84,7.57-6.67s10.9,10.11,10.9,10.11s2.49,3.79,11.36-0.68
				c8.87-4.46,18.53-13.5,19.89-23.39c0,0-0.34-3.45-2.49-5.08c-2.15-1.64-12.99-10.9-12.99-10.9s3.84-26.44,3.95-26.33
				c0.03,0.03-2.85,2.65-7.13,6.49c-1.98-5.29-4.27-17.17,13.15-20.86c16.38-3.47,19.38-1.5,23.62-2.27
				c0.56,1.23,1.8,2.09,3.25,2.09c1.42,0,2.64-0.84,3.22-2.04c1.42,0.75,3.65,0.67,4.68,0.63c1.97-0.08,2.67-3.07,4.09-2.91
				c1.42,0.16,1.73,3.46,0.16,6.68c-1.57,3.22-0.55,7.86,0.08,8.8c0.63,0.94,2.83,1.57,1.02,5.74c-1.81,4.17-0.47,6.92-0.47,6.92
				c-0.08-4.01,2.28-6.21,2.28-6.21c-0.39,6.05,1.73,7.23,1.73,7.23c-0.63-1.02-0.94-2.04-0.39-7c0.23-2.07,0.13-3.65-0.06-4.79
				c0.56,0.97,1.24,1.73,1.24,1.73c1.57,2.04,0.39,4.01,0.39,4.01c1.49-1.89,0.55-3.69,0.55-3.69c-2.52-3.07-1.34-7.31,1.1-13.6
				c2.44-6.29-3.14-10.06-7.31-11.4c-4.17-1.34-8.16,0.85-9.43,3.07c-0.14,0.25-0.26,0.48-0.37,0.71c-0.65-0.63-1.53-1.02-2.5-1.02
				c-1.98,0-3.58,1.6-3.58,3.58c0,0.34,0.06,0.66,0.15,0.96c-1.47,0.33-3.09,0.49-4.71,0.25c-5.27-0.79-23.35,1.97-28.14,5.42
				c-4.48,3.23-7.79,9.62-4.42,18.59c-12.23,11.01-34.5,30.91-34.5,30.91l-4.07,22.2c0,0-1.53-0.06-2.43,0.85
				c0,0-2.88-1.69-3.79-0.9c-0.9,0.79-1.58,1.13-1.58,1.13s-1.07-3.45-2.43-3.11c-1.36,0.34-2.09,1.19-1.19,4.18
				c0.9,2.99-0.06,5.08,0.23,6.55c0.28,1.47,0.51,4.8,0.79,6.1c0.28,1.3,1.75,5.03,1.92,6.44c0.17,1.41,0.9,7.46,0.11,14.69
				c-0.79,7.23-0.17,10.56-0.11,10.4c0.06-0.17-1.07,1.13-0.96,3.67c0.11,2.54,0.34,5.03,0.4,8.64c0.06,3.62,1.36,13.62,3.05,16.21
				c1.69,2.6,1.47,2.94,1.47,2.94s-2.71,3.56-1.58,8.59c1.13,5.03,1.02,21.41,2.49,25.99c1.47,4.58,3.9,11.41,6.21,13.22
				s7.23,4.8,9.43,4.97c2.2,0.17,1.58-0.06,2.77,0.73c1.19,0.79,11.86,3.33,14.97,3.28c3.11-0.06,4.63,0.85,5.14-0.28
				c0.51-1.13,0.79-2.37,1.13-2.32c0.34,0.06,0.11,4.01,0.79,6.21c0.68,2.2,0.4,8.93,1.19,11.41c0.79,2.49,1.86,2.71,2.6,4.97
				c0.73,2.26,3.5,8.53,0.96,9.94c-2.54,1.41-5.59,3.45-5.54,5.71c0.06,2.26,2.82,3.95,5.31,3.84s3.39-0.23,3.39-0.23
				s-0.3,1.21-0.71,3.05h95.65C1123.18,1116.29,1123.34,1111.55,1123.39,1109.5z"/>
			<g>
				<path class="st1" d="M1420.69,1114.67c0.31-1.55,2.64-19.73,1.86-25.63c-0.78-5.9-4.66-21.13-5.28-27.19
					c-0.62-6.06-2.8-22.68-3.88-26.25c-1.09-3.57-5.13-27.81-6.84-34.33c-1.71-6.52-9.79-33.87-14.76-39.61c0,0,1.09-7.3,0.78-9.94
					c-0.31-2.64-0.16-20.82-0.16-25.79c0-4.97-0.16-12.58,0-14.91c0.16-2.33,1.71-8.39,1.86-10.41c0.16-2.02,1.55-11.03,2.02-12.89
					s2.02-8.08,2.02-10.72c0-2.64,0.31-30.14,1.09-31.85c0.78-1.71,2.18-5.13,2.8-4.82l14.91,18.02c0,0,3.26,3.42,6.52,0.47
					c0,0,4.97-3.88-0.31-9.32c-5.28-5.44-13.67-16.62-13.67-16.62l-1.71-2.02c0,0,0.62-3.73-0.16-5.13
					c-0.78-1.4-2.17-2.64-2.64-2.95c-0.47-0.31,0.16-1.86-0.93-2.8c-1.09-0.93-1.55-0.93-2.17-1.4c-0.62-0.47-1.24-2.17-2.18-2.64
					c-0.93-0.47-1.55-0.78-2.49-1.4c-0.93-0.62-1.24-1.09-2.02-0.78c-0.78,0.31-1.71,0.93-2.17,0.93c-0.47,0-2.95-3.11-2.95-3.11
					s0.62-1.86-0.16-2.33c-0.78-0.47-1.71,0.16-1.71,0.16s-3.11-4.19-4.35-4.51c-1.24-0.31-4.51-0.47-6.06,3.73l-0.93,1.4l4.97,6.06
					c0,0-1.24,5.75-1.4,6.84c-0.16,1.09,1.55,3.88,2.33,5.59c0.78,1.71,2.8,6.21,3.11,6.99c0.31,0.78,0.47,1.86,0.16,3.73
					c-0.31,1.86-0.47,7.77-0.78,10.41c-0.31,2.64-2.17,14.91-3.11,20.82c-0.93,5.9-2.8,12.27-3.42,19.42
					c-0.62,7.15-1.24,10.56-1.24,12.12c0,1.55-1.24,5.13-1.4,7.77c-0.16,2.64-2.64,8.86-3.26,12.27
					c-0.62,3.42-1.86,14.91-2.17,18.18s-0.16,5.13-0.16,5.13s-7.61,3.57-7.77,4.04c-0.16,0.47-0.47,3.57-0.47,3.57
					s-4.19,2.95-5.13,3.57c-0.93,0.62-2.02,1.71-2.17,2.49c-0.16,0.78-0.16,2.33-0.16,2.33s-0.62,0.93-1.09,1.24
					c-0.47,0.31-1.71,4.66-1.71,4.66s-1.71,2.49-0.31,3.73c1.4,1.24,2.33,4.51,2.33,4.51s-2.49,2.64-2.64,1.71
					c-0.16-0.93,0.16-2.17,0.47-3.42c0,0-0.47-3.11-1.24-3.88c-0.78-0.78-1.86-1.24-0.93-2.33c0.93-1.09,2.33-2.33,1.86-3.57
					c-0.47-1.24-0.16-1.71,0.62-2.95c0.78-1.24,1.86-3.42,1.4-4.97c-0.47-1.55-0.62-2.64-0.16-3.57c0.47-0.93,0.62-0.93,0-2.49
					c-0.62-1.55-1.24-3.88-0.78-4.04c0.47-0.16,0.78-0.31,0.16-1.86c-0.62-1.55-1.55-3.11-1.09-4.04c0.47-0.93-0.16-2.64-1.09-3.57
					c-0.93-0.93-1.24-1.86-2.17-3.57c-0.93-1.71,0.78-1.71-0.31-1.86c-1.09-0.16-1.24-0.16-1.71-0.47
					c-0.47-0.31-2.33-1.09-2.02-1.71c0.31-0.62,0.16-8.54,0.16-8.54l18.46-9.83l0.03,1.5c-1.18,0.26-2.07,1.31-2.07,2.58
					c0,0.63,0.23,1.2,0.6,1.65c-0.37,1.01-0.81,2.82-0.64,5.57c0.28,4.58,0.51,10.33-0.09,13.85c-0.6,3.52-0.97,5-0.46,7.04
					c0,0,0-3.47,0.6-5.56c0,0-0.69,3.89,0.51,7.83c0,0,0.14,1.85,0.05,3.2c0,0,0.42-1.76,0.46-4.31c0.05-2.55,0.23-5,0.23-5.46
					c0,0,0.19,3.98,0.42,6.39c0.23,2.41-0.14,3.89-0.14,4.35c0,0,0.37-2.92,0.42-4.82c0.05-1.9,0.37-3.06,0.37-3.06
					s0.28,3.1,0.74,4.63c0,0,0.37,1.34,0.19,1.95c0,0,0.56-1.62,0.23-3.29c-0.32-1.67-0.23-3.52-0.23-3.52s1.33,2.63,1.58,3.84
					c-0.12-0.73-0.5-3.04-0.84-4.12c-0.42-1.3-0.19-3.38-0.19-3.38s1.39,3.15,1.71,5.93c0,0-0.09-4.68-0.93-6.81
					c-0.83-2.13,0.05-5.42-0.05-7.13c-0.09-1.71,0.28-2.69,0.14-4.72c-0.14-2.04,0.09-2.13,0.05-3.7c-0.05-1.57,0.37-2.04,0.23-3.2
					c-0.05-0.45-0.15-1-0.25-1.52c0.36-0.45,0.58-1.01,0.58-1.63c0-1.3-0.94-2.37-2.17-2.59c-0.02-0.58-0.04-1.27-0.05-2.02
					l9.43-5.02c0,0-26.1-13.83-32.16-16.16c-6.06-2.33-19.73-10.25-20.51-10.72c0,0-50.96,25.63-55.3,28.12c0,0-0.62,1.09,0.31,1.4
					c0.93,0.31,23.92,12.43,26.1,13.52c2.18,1.09,3.26,2.02,3.26,2.02l0.31,6.84c0,0-1.71,2.8-1.86,4.97
					c-0.16,2.17,0.47,6.06,1.55,6.84c0,0-2.02,1.55-1.55,2.64c0.47,1.09,0.62,1.71,1.71,4.04c1.09,2.33,1.55,5.9,2.49,7.61
					c0.93,1.71,1.86,3.11,2.33,2.95c0.47-0.16,2.17,0.78,2.17,0.78s0,2.64,1.24,5.59c1.24,2.95,4.51,7.46,6.52,8.85
					c2.02,1.4,5.75,4.35,5.75,4.82c0,0.47-0.62,5.59-0.62,5.59s-4.04-0.62-5.59-0.31c-1.55,0.31-4.82-2.95-6.06-3.26
					c-1.24-0.31-4.35-1.71-4.51-2.8c-0.16-1.09,2.64-3.73,2.49-5.13c-0.16-1.4-15.07-15.85-15.54-17.09
					c-0.47-1.24,0.31-3.11,0.16-3.73c-0.16-0.62-4.04-4.66-5.13-4.66c-1.09,0-6.68-4.35-7.46-4.82c-0.78-0.47-2.8,0.47-3.11,0
					c-0.31-0.47-0.47-1.4-1.24-1.71c-0.78-0.31-2.8,0-2.8,0s-10.72-13.52-12.58-18.33c-1.86-4.82-6.68-16-8.85-18.8
					c-2.18-2.8-4.51-7.77-5.44-9.94c-0.93-2.17-10.56-18.18-9.63-20.66c0.93-2.49,4.35-6.84,4.97-8.23c0.62-1.4,0.78-0.78,0.62-2.64
					c-0.16-1.86-1.24-3.26-1.24-4.35c0-1.09,0.47-2.64-2.17-3.26c-2.64-0.62-4.19-2.49-4.82-2.18c-0.62,0.31-1.09,0.47-1.09,0.93
					c0,0.47-1.71-0.62-2.8,0.62c-1.09,1.24-0.47,0.62-1.09,1.24c-0.62,0.62-2.8-0.16-3.73,1.09c-0.93,1.24-0.16,2.33-0.78,2.33
					c-0.62,0-1.55-0.16-2.49,0.47c-0.93,0.62-0.3,2.29-0.77,3.24c0,0-2.27-0.38-2.97,1.96c-0.69,2.34-0.32,4.04-0.32,5.87
					c0,1.83,0.13,4.17,1.33,5.3c1.2,1.14,3.79,2.9,5.11,5.37c1.33,2.46,5.62,14.65,8.08,21.27c2.46,6.63,4.29,12.63,5.37,14.2
					c1.07,1.58,4.36,8.21,6.94,11.8c2.59,3.6,4.8,7.13,5.37,8.21c0.57,1.07,2.15,4.29,3.09,7.32c0.95,3.03,2.84,10.29,4.73,13.38
					c1.89,3.09,4.36,9.6,4.61,10.16c0.25,0.57-0.69,2.65-0.95,4.92c-0.25,2.27-2.97,12.5-3.03,15.34
					c-0.06,2.84-3.03,22.6-3.35,25.44c0,0-5.13,27.81-7.78,38.99c-2.64,11.19-6.21,33.71-6.84,51.11
					c-0.39,10.89-0.29,15.21,0.1,17.86h155.42c-0.11-2.16-0.17-3.42-0.17-3.42s1.4,1.24,2.33,2.64c0.17,0.25,0.39,0.51,0.63,0.78
					h25.76C1419.37,1118.48,1420.51,1115.56,1420.69,1114.67z"/>
				<path class="st1" d="M1365.96,944.86c0.02,0.09,0.03,0.16,0.04,0.23C1366,945.09,1365.98,945.01,1365.96,944.86z"/>
			</g>
			<path class="st1" d="M1732.05,1002.18c-1,1.36-1.3,6.67-1.3,6.67c-1.92,3.31-1.65,10.66-1.65,10.66s0,0-1.1,0.22
				c-0.55,0.11-1.95,1.53-3.21,2.94c-2.81-2.41-6.26-3.38-8.98-6.09c0,0-9.14-12.74-13.85-19.66c-4.71-6.92-9.69-17.45-10.8-20.22
				c-1.11-2.77-12.46-12.46-15.79-14.4c-3.32-1.94-3.6-2.22-5.54-2.49c-1.94-0.28-8.59-5.26-9.69-5.54
				c-1.11-0.28-9.42-5.26-9.42-5.26s-0.31-6.26-0.71-7.14c-0.4-0.88-1.04-1.6-1.04-1.6s0.4-1.44,0.32-1.76
				c-0.08-0.32,4.88-9.6,5.2-11.44c0,0,0.64,1.6,2.16,1.68c1.52,0.08,3.44-2,4.08-3.44c0.64-1.44,2.48-5.92,2.48-7.6
				s-0.96-2.48-2.16-2.72c-1.2-0.24-2,0.08-2,0.08s1.28-3.44,1.44-6.4c0.16-2.96,0.8-7.12,1.04-7.12c0.21,0,19.91-8.65,25.66-11.47
				c0.11,1.24,0.38,3.77,0.95,6.89c0.81,4.47,2.03,6,5.9,8.44c3.86,2.44,1.73,5.69,1.73,5.69s0,0-1.63,0.61
				c-1.63,0.61-0.51,2.03-0.61,2.44c-0.1,0.41-0.31,3.25-0.81,5.29c-0.51,2.03,1.42,7.22,1.42,7.22c-0.41-1.83-0.51-6-0.51-6
				c1.02,0.91,2.13,7.52,2.13,7.52c2.34-2.03-0.1-7.93-0.1-7.93c1.02,1.12,1.42,4.37,1.42,4.37c0.51-1.32-0.31-2.95-0.92-4.47
				c-0.61-1.52,0-4.17,1.22-5.69c1.22-1.52-0.92-3.15-0.92-3.15c1.83-4.68-2.64-6.51-5.9-9.96c-2.65-2.82-2.8-9.28-2.77-11.57
				c0.41-0.21,0.71-0.37,0.85-0.47c0,0-0.8-1.12-1.2-1.36c-0.4-0.24-47.37-26.17-48.17-26.57c-0.8-0.4-3.2,1.84-5.2,2.64
				c-2,0.8-40.09,14.64-40.65,15.2c-0.56,0.56-0.32,1.52,0.32,1.92c0.64,0.4,22.49,13.52,22.49,13.52s-1.28,6.08-1.44,7.36
				c-0.16,1.28-0.64,4.32-0.56,5.12c0.08,0.8,0.16,1.76,0.16,1.76s-1.76-0.8-3.44,1.12c-1.68,1.92-0.96,3.28-0.96,5.6
				c0,2.32-0.48,4.4-0.24,4.72c0.24,0.32,1.84,4.24,3.92,4.16c2.08-0.08,2.64-0.64,2.64-0.64s0.8,2.08,0.8,2.32s-3.84,5.36-4.8,7.2
				c-0.96,1.84-3.52,3.76-4,4.4c-0.48,0.64-2.16,0-2.16,0s-8.8-2.16-10.64-1.84c0,0-7.2-2.72-8.4-3.12c-1.2-0.4-3.68-1.36-3.92-2
				c-0.24-0.64-1.28-3.36-1.12-4c0.16-0.64,1.6-1.68,1.12-4.64c-0.48-2.96-2.16-5.92-2.16-5.92s-4.88-0.8-7.6-0.8
				s-5.92,1.52-7.04-1.44c-1.12-2.96-3.28-11.6-4.64-13.76c-1.36-2.16-6.8-9.36-6.32-11.6c0.48-2.24,0.08-9.04,0-12.56
				c0,0,2.88,0.72,3.2-5.68c0.32-6.4-0.32-11.44,0.64-12.32c0.96-0.88,4.32-4.08,4.56-5.76s0.08-7.28,0.88-8.88
				c0.8-1.6,0.96-4.96,1.6-5.92c0.64-0.96,3.92-4,5.84-5.44c1.92-1.44,3.28-3.44,3.6-3.76c0.32-0.32,1.04-2.08,0.64-5.2
				c-0.4-3.12,0.4-4.48,0.24-4.88c-0.16-0.4-0.8-1.04-0.64-1.44c0.16-0.4,2.24-3.76,2-5.68c-0.24-1.92-4.48-2.24-5.44-1.28
				c-0.96,0.96-0.96,0.96-0.96,0.96s-3.28-1.68-4.24-1.6c-0.96,0.08-3.68-0.16-4.88,0.72c-1.2,0.88-1.92,2-1.92,2
				s-2.56-0.96-3.76-0.48c-1.2,0.48-2.48,1.6-2.8,1.52c-0.32-0.08-2.56,0.08-3.44,0.8s-2.08,4.08-2.48,5.76
				c-0.4,1.68-1.19,7.73-1.19,7.73s-3.16-0.86-6.33,6.91c0,0-3.45,3.74-8.06,6.33c-4.6,2.59-17.84,7.77-22.44,21
				c-4.6,13.24-7.48,19.85-9.49,21.87c-2.01,2.01-9.78,14.1-13.81,25.32c-4.03,11.22-7.77,17.84-7.77,17.84s-4.32,0.58-4.89,3.16
				c-0.58,2.59,0.58,13.52-0.58,17.84c-1.15,4.32-3.45,9.49-4.32,11.8c-0.86,2.3-0.58,8.63,0,10.36c0.58,1.73,0.29,12.37,4.03,14.39
				c3.74,2.01,18.41,6.33,23.02,6.33c4.6,0,6.62-0.58,15.25,4.32s18.13,4.32,23.59,3.74c5.47-0.58,10.93-1.44,10.93-1.44
				s7.77,10.93,7.48,15.25c-0.29,4.32-1.73,19.85-4.6,30.21c-2.88,10.36-7.77,32.8-11.8,41.43c-4.03,8.63-10.36,21.58-12.66,36.25
				c-0.05,0.33-0.11,0.69-0.16,1.05h142.59c0.42-5.63,1.68-20.92,3.24-27.63c1.94-8.31,4.98-14.68,3.05-25.2
				c0,0,8.03,2.49,9.97,6.92c1.94,4.43,1.38,15.79,10.8,19.39c0,0,8.08,1.35,12.74-5.38c0,0,13.29,7.04,16.06,7.59
				c2.77,0.55,11.37-3.97,6.19-20.53c-1.18-3.78-3.42-14-2.59-17.6c0.28-1.23,0.96-3.54,1.64-6.49c2.31-2.87,4.68-5.76,5.78-7.05
				c0.09-0.11,0.2-0.24,0.3-0.36v-44.18C1733.34,1001.03,1732.53,1001.53,1732.05,1002.18z"/>
			<path class="st1" d="M622.93,660.47c0.96-2,0.72-3.04,0.72-4.96s0.88-4.16,0.64-6.24c-0.24-2.08,0.88-8.64,0.88-8.64
				c-0.8,0.8-1.68,2.72-2.08,3.92c-0.4,1.2-1.04,3.44-0.8,5.28c0.24,1.84-1.04,7.6-1.04,7.6c0.72-2.8,0-4.8,0.08-6.56
				c0.08-1.76,0.4-5.68,1.04-7.2c0.64-1.52,1.44-2.96,1.44-2.96l-2.16-1.2c0,0-1.68,0.08-2.08,0.32c-0.4,0.24-0.72,2.16-0.8,3.2
				c-0.08,1.04-1.52,5.44-1.52,5.44s0.32-2,0.72-3.76c0.4-1.76,0.88-4.88,0.88-4.88s-1.44-0.48-1.36-0.24
				c0.08,0.24-1.44,3.28-1.6,4.8c-0.16,1.52-2.08,3.2-2.88,5.92c-0.8,2.72,0.24,10,0.24,10c-1.04-1.44-1.84-7.36-1.84-7.36
				c0.08,1.12-0.16,5.2,1.04,7.52c1.2,2.32,0.88,5.12,0.24,7.6c-0.39,1.53-0.39,3.84-0.34,5.4c-1.32,0.33-2.29,1.51-2.29,2.93
				c0,1.02,0.51,1.92,1.29,2.47c-0.01,0.02-0.02,0.04-0.03,0.07c-1.71,3.63-9.05,11.42-16.84,17.03
				c-5.59,4.03-9.72,10.81-11.88,14.77c-1.33-6.21-5.84-28.57-6.37-30.26l-11.77,3.72l1.68,1.8l1.44,8.64c0,0-12.85,1.44-14.05,1.8
				c-1.2,0.36-3.72,1.92-4.68,2.28c-0.96,0.36-8.16,5.16-7.08,5.52c1.08,0.36,3.12,1.44,3.36,1.8c0.24,0.36,0.12,4.32,0.96,6.24
				c0.84,1.92,1.32,6,1.8,7.56c0.48,1.56,1.92,4.44,2.4,5.28s2.28,3.96,2.52,5.16c0.24,1.2,1.56,4.92,1.44,6.36
				c-0.12,1.44-0.36,6.6,0.6,7.44c0.96,0.84,2.52,0.24,2.52,0.24l1.2,1.8c0,0,5.04-1.08,6.84-1.32c1.8-0.24,12.01-2.4,12.01-2.4
				s0.96,5.4,0.96,6.48s-0.12,3.12-0.12,3.12l11.65-0.24c0,0,0.6-4.08,0-6.24c-0.57-2.06-6.03-29.21-6.87-32.87
				c0.91-2.05,2.4-5.28,5.43-9.27c4.56-6,10.56-10.08,14.17-12.49c3.32-2.21,8.87-10.33,9.73-11.59c0.23,0.06,0.47,0.09,0.71,0.09
				c1.6,0,2.9-1.25,3.01-2.82c1.29-1.31,2.94-3.23,3-3.81c0.08-0.8,0.64-4.4,1.36-6.56c0.72-2.16,8.48-10.16,8.48-10.16
				C625.89,657.43,621.97,662.47,622.93,660.47z"/>
			<path class="st1" d="M821.51,779.19l2.49-0.22l17.79,13.96l-32.21-36.61c3.54-2,8.97-4.06,14.17-5.66
				c3.97-1.23,7.5,1.14,9.76,3.34c-0.67,0.63-1.06,1.54-0.97,2.52c0.1,1.16,0.84,2.11,1.84,2.55c0.84,1.31,4.44,0.99,5.48,1.62
				c1.12,0.68,2.26,1.5,4.95,3.04c2.69,1.53,5.71,5.24,5.71,5.24c-0.02-1.77-3.23-5.25-2.94-5.13c0.29,0.12,2.52,1.98,3.04,3.06
				c0.52,1.09,0.99,1.61,2.04,1.45c1.05-0.16,2.42-0.71,2.42-0.71s-1.45-1.93-1.22-1.74c0.23,0.19,1.37,1.01,1.37,1.01l1.05-1.72
				l-0.58-0.16c0,0-2.05-1.31-3.42-2.14c0.93,0.4,2.14,0.87,2.69,1.07c0.95,0.34,1.65,0.21,1.65,0.21s-3.03-1.36-4.52-2.22
				c-1.5-0.86-1.69-2.26-4.12-4.1c-2.43-1.84-3.75-0.73-5.77-0.27c-1.38,0.32-2.75-0.49-3.48-1.04c0.02-0.19,0.02-0.38,0.01-0.57
				c-0.15-1.71-1.66-2.97-3.37-2.82c-0.25,0.02-0.49,0.08-0.71,0.16c-0.62-1.16-1.81-2.39-4.45-3.48
				c-7.78-2.98-16.65,2.85-20.85,6.21l-5.19-5.9l-32.72-29.68l13.57,20.1c-8.55,2.51-25.54,17.31-25.54,17.31l4.36,3.88
				c0,0,8.21-0.73,8.98-0.55s-5.41,3.99-5.41,3.99s5.15,4.31,7.49,5.35c2.35,1.04,32.64,25.93,32.64,25.93L821.51,779.19z"/>
			<g>
				<path class="st1" d="M1134.22,556c2.25,0.1,3.5,0.21,3.5,0.21C1137.22,556.03,1135.97,555.97,1134.22,556z"/>
				<path class="st1" d="M1022.85,539.83c0.02,0,0.05-0.01,0.07-0.02C1022.87,539.82,1022.85,539.83,1022.85,539.83z"/>
				<path class="st1" d="M1026.33,541.94c1.93,2.77,4.65,2.57,6.04,2.45s8.82-0.34,9.7,0.01c0.64,0.25,4.03-0.65,6.06-0.87
					c0.17,0.65,0.48,1.27,0.92,1.82c1.4,1.74,3.74,2.29,5.71,1.49c0.3,0.38,0.63,0.76,1.02,1.14c4.48,4.43,13.85,7.66,20.88,7.21
					c7.41-0.48,8.98,2.88,9.27,3.87c-1.82,0.32-3.66,0.67-5.51,1.05c-30.09,6.21-43.82,12.24-43.82,12.24l23.46-5.3l5.5,5.01
					l4.33,23.35l13.38-1.33l1.13-5.92l3.56,4.8c0,0,15.11,0.82,22.95-8.13c0,0-2.28-21.17-7.13-26.11c0,0,21.58-2.56,30.44-2.73
					c-7.4-0.34-25.68-0.68-46.4,2.75c-0.31-1.18-1.98-5.06-11.02-4.48c-7.11,0.46-16.6-3.9-20.23-7.48
					c-0.22-0.22-0.4-0.45-0.56-0.67c0,0,0.01-0.01,0.01-0.01c2.14-1.72,2.47-4.84,0.76-6.97c-1.06-1.31-2.65-1.94-4.21-1.84
					c-0.93-0.73-2.14-1.41-3.72-1.78c-4.59-1.08-11.42-1.41-15.66-2.17c-4.24-0.76-4.29-3.85-4.7-5.72c0,0-0.34,1.62,0.54,3.39
					c0.88,1.78,3.24,3.66,3.33,3.58c0,0-3.44-0.57-5.19-3.98c-1.75-3.41-1.56-1.88-3.25-2.56c0,0,2.08,0.91,2.52,2.39
					c0.45,1.48,2.39,4.09,3.92,5c1.53,0.91,3.69,2.25,3.8,2.31c0.1,0.07-6.36,1.24-9.16-1.38c-2.8-2.62-3.97-2.22-4.75-2.2
					c0,0,5.18,2.74,6.66,4.63c1.47,1.9,2.64,2.55,4.66,2.76c0,0-2.9,1.59-5.19-0.65c-2.17-2.11-3.02-1.32-3.47-1.15
					C1023.25,539.72,1024.65,539.52,1026.33,541.94z"/>
			</g>
			<g>
				<path class="st1" d="M1331.53,791.19l3.25,0.09c0,0,4.8-9.62,4.6-16.34c-0.2-6.73,0.55-12.06,0.55-12.06s-17.49-2.1-31.78-3.14
					c-0.02-0.04-0.03-0.07-0.05-0.11c-3.86-9.07-6.56-15.05-9.16-17.76c0.24-0.56,0.32-1.19,0.18-1.83
					c-0.22-0.99-0.91-1.76-1.79-2.11c-0.77-1.58-4.59-8.08-12.96-0.71c-9.45,8.31-5.83,10.9-3.56,15.03
					c2.27,4.13,0.74,6.39,0.13,7.2c0,0,3.51-2.02,0.59-8.04c0,0,2.8,4.46,4,5.78c1.09,1.2,0.57,4.46-0.04,5.47
					c0.79-1.1,3.96-6.03,0.25-9.58c-0.29-0.28,0.11-3.08,0.08-4.2c0,0,2.43,5.34,3.1,7.34c0.67,2,3.03,0.91,4.27,0.41
					c0,0-3.61,0.01-4.77-3.69c-1.16-3.7-0.25-3.67,0.17-4.33c0.42-0.66,0.22-2.08,0.34-3.58c0.12-1.5,0.73-3.33,1.93-3.03
					c1.06,0.26,2.54,2.02,3.86,1.27c0.63,0.37,1.38,0.51,2.15,0.34c0.68-0.15,1.25-0.52,1.66-1.02c0.75,0.82,1.65,1.97,2.51,3.49
					c1.6,2.82,4.98,9.37,6.9,13.66c-8.47-0.61-15.77-0.84-17.57-0.02c0,0-4.12,11.24-4.82,13.17c-0.7,1.93-1.88,20.58-1.88,20.58
					l12.5-0.36c0,0,3.35,7.81,5.76,9.21c2.41,1.4,17.92,5.86,21.23,6.25c3.31,0.39,3.31,0.39,3.31,0.39L1331.53,791.19z"/>
				<path class="st1" d="M1285.47,762.64c-0.1,0.15-0.17,0.23-0.17,0.23C1285.36,762.82,1285.42,762.73,1285.47,762.64z"/>
			</g>
		</g>
		<g>
			<path class="st2" d="M175.12,868.85l-0.21-0.42C174.91,868.43,174.95,868.68,175.12,868.85z"/>
			<path class="st2" d="M285.65,1121.92c0.41-0.82,1.65-0.82,2.06-1.24c0.41-0.41-1.1-3.16-1.79-4.12c-0.69-0.96-0.14-1.92,0.14-3.3
				c0.27-1.37-0.14-3.02-0.69-2.75c-0.55,0.27,10.03-9.75,13.19-12.23c3.16-2.47,5.77-7.28,2.06-10.99
				c-3.71-3.71-7.97-1.51-7.97-1.51s-13.33,14.15-13.88,14.01c-0.55-0.14-2.2-2.34-2.2-2.34c0.41-3.02,4.81-18.68,4.81-18.68
				s1.92-0.82,3.02-0.96c1.1-0.14,2.61-0.41,3.43-0.96c0.82-0.55,4.95-1.24,4.95-1.24s-1.37-4.12-0.69-4.26
				c0.69-0.14,11.54-0.82,11.54-0.82s-0.41-4.12-0.27-5.36c0.14-1.24-0.27-5.77,0.14-7.56c0.41-1.79-0.82-5.91-0.69-7.83
				c0.14-1.92-1.1-7.56-1.65-8.66c-0.55-1.1-0.27-5.91,0-8.79c0.27-2.89,2.75-9.07,4.4-10.72c1.65-1.65,2.06-3.16,2.34-5.5
				c0.27-2.34,0.69-4.4,0.55-7.01c-0.14-2.61-2.47-10.03-3.57-13.05c-1.1-3.02-3.57-11.82-6.18-15.94
				c-2.61-4.12-7.14-9.48-8.38-10.58c-1.24-1.1-8.11-6.05-10.44-7.42c-2.34-1.37-14.56-5.36-15.11-5.22
				c-0.55,0.14-5.36-0.27-6.73-0.82c-1.37-0.55-1.79-2.34-3.3-3.02c-1.51-0.69-10.03-8.93-11.27-9.62c-1.24-0.69-1.1-2.06-1.1-2.06
				s-5.36-5.77-7.01-6.46c-1.65-0.69-2.75-1.37-4.26-1.92c-1.51-0.55-5.08-4.4-5.08-4.4s-1.65-0.41-2.2-0.82
				c-0.55-0.41,1.92-2.61,2.75-3.02c0.82-0.41,3.16-5.22,4.26-7.14c1.1-1.92,0.96-4.4,0.96-4.4s2.34-1.37,3.71-2.06
				c1.37-0.69,3.43-3.71,3.98-4.26c0.55-0.55,2.75-2.06,5.36-3.16c2.61-1.1,6.05-5.08,6.05-5.08s2.34,0.55,3.57,0.69
				c1.24,0.14,2.61,0.27,3.3,0.55c0.69,0.27,2.47,1.79,4.4,2.75c1.92,0.96,5.36,1.79,7.42,2.2c2.06,0.41,1.24-2.47,0.82-2.75
				c-0.41-0.27-3.98-2.89-5.22-3.43c-1.24-0.55-6.18-4.81-6.18-4.81s2.34,0.69,3.02,0.96c0.69,0.27,3.98,2.47,4.4,2.89
				c0.41,0.41,3.98,3.16,4.26,3.71c0.27,0.55,3.71,3.57,5.22,3.57c1.51,0,1.92-1.92,1.92-1.92s-1.51-2.61-2.61-3.3
				c-1.1-0.69-1.79-2.89-2.47-3.71c-0.69-0.82-2.2-3.02-3.16-3.85c-0.96-0.82-3.57-3.02-4.12-3.98c-0.55-0.96,0.82-0.55,1.51-0.41
				c0.69,0.14,2.61,2.06,3.3,2.61c0.69,0.55,2.89,1.65,3.57,2.34c0.69,0.69,4.4,4.95,6.04,5.36c1.65,0.41,3.3-1.37,3.3-1.37
				s-1.37-1.37-2.2-2.34c-0.82-0.96-2.61-4.95-3.57-5.63c-0.96-0.69-5.22-5.5-5.22-5.5s5.63,1.51,8.24,1.79
				c2.61,0.27,2.75-2.47,2.2-2.89c-0.55-0.41-4.26-2.34-5.08-2.89c-0.82-0.55-3.02-1.37-4.26-1.37c-1.24,0-7.56-2.89-8.52-2.89
				c-0.96,0-6.87,0.82-8.79,1.24c-1.92,0.41-9.2,1.24-10.17,0.82c-0.96-0.41-3.16,2.2-4.53,3.57c-1.37,1.37-4.13,2.95-4.13,2.95
				c0.18-0.33,1.03-3.11,1.41-4.77c0.38-1.67,0.1-2.8-0.46-4.95c-0.56-2.16-1.15-3.46-1.28-4.65s-0.15-1.26-0.08-2.18
				c0.08-0.92-0.31-4.16-0.56-5.93c-0.26-1.77-4.44-6.65-4.93-7.55c-0.49-0.9-1.46-2.75-3.34-5c-1.87-2.26-5.72-3.49-6.49-4.16
				s-5.11-0.82-6.06-0.92c-0.95-0.1-2.39-0.31-2.8-0.8c-0.41-0.49-0.44-1.57-0.44-1.57c-0.69,0.56-0.23,1.16-0.33,1.49
				c-0.1,0.33-1.1,0.13-1.77,0.05c-0.67-0.08-3.31,0.69-2.64,0c0.67-0.69,0.15-2.16,0.15-2.16c0.05,0.72-0.64,0.95-1.51,1.57
				c-0.87,0.62-1.33,1.67-2.05,1.64c-0.72-0.03-0.44-0.82-0.44-0.82c0.85-1.26-0.26-2.34-0.26-2.34c0.36,0.31,0.56,1.67,0,1.87
				c-0.56,0.21-0.64,0.56-0.9,0.8c-0.26,0.23-2.31,0.8-2.59,0.8s-1.28-0.44-0.26-0.64c1.03-0.21,0.82-1.08,0.82-1.08
				c-0.05,0.49-0.39,0.49-1.69,0.9c-1.31,0.41-1.1,1.23-1.1,1.23c-0.92-0.82-0.44-3.13-0.44-3.13c-0.87,0.38-0.21,2.54-0.56,3.16
				c-0.36,0.62-1,1.05-1.54,1.21c-0.54,0.15-1.67,0.1-1.67,0.1c0.31-0.87-1.03-0.98-1.03-0.98c0.51,0.44,0.74,0.95,0.46,1.1
				c-0.28,0.15-0.9,1-1,1.21c-0.1,0.21-0.9,0.8-0.9,0.8c-0.18-0.62,0.51-1.49,0.51-1.49c-0.64,0.03-0.92,1.36-1.03,1.69
				c-0.1,0.33-0.51,0.46-1.03,0.69c-0.51,0.23-1.26,0.28-1.49,0.51c-0.23,0.23-0.67,0.41-1.1,0.54c-0.44,0.13-0.56,0.46-1.18,1.15
				c-0.62,0.69-0.9,1.23-0.9,1.23c0.38-1.15-1-1.67-1-1.67c0.33,0.44,1.03,1.21,0.72,1.57c-0.31,0.36-0.46,0.62-0.67,0.95
				c-0.21,0.33-0.46,0.85-0.54,1.03c-0.08,0.18-0.85,0.05-0.85,0.05c-0.21-0.95-1.41-1.03-1.41-1.03s0.92,0.44,0.98,1.1
				c0.05,0.67-0.15,0.77-0.41,0.98c-0.26,0.21-0.41,1-0.41,1c-0.64,0.41-0.49-0.59-0.49-0.59c-0.44,0.59,0.36,1.03,0.39,1.49
				c0.03,0.46-0.36,0.49-0.72,0.72c-0.36,0.23-0.59-0.08-1.49,0.33c-0.9,0.41-0.49,2-0.49,2c-0.62-0.46-0.59-1.8-0.59-1.8
				c-0.28,0.39-0.23,1.49-0.13,1.92s-0.26,0.72-0.72,1.15c-0.46,0.44-0.56,0.26-0.74,1.05c-0.18,0.8,0.08,1.51,0.38,2.16
				c0.31,0.64,0.14,1.89,0.14,1.89c-0.19,0.31-0.43,0.22-0.64,0l0.8,1.24c0,0,0.16,0.62-0.78,1.09c-0.45,0.23-0.72,0.12-0.88-0.04
				l0.41,0.82c0,0,0.47,1.71-0.31,2.64c-0.78,0.93-1.24,4.66-1.24,5.6c0,0.93,0.62,3.42,1.09,3.89c0.47,0.47,0.62,0.93,1.55,2.02
				s0,0.78-0.31,2.64c-0.31,1.87,0.62,1.09,0.93,2.33c0.31,1.24,1.87,3.26,2.33,3.89c0.47,0.62,0,1.55,0,1.55
				c-4.28-0.35-4.7,4.2-9.46,4.56c-4.76,0.37-6.59,1.47-14.65-0.18c-8.06-1.65-6.59-1.1-14.84,0.73c-8.24,1.83-4.03,3.48-11.36,7.14
				c-7.33,3.66-3.11,10.99-6.05,13.37c-2.93,2.38-2.93,2.93-5.31,4.95c-2.38,2.02-4.76,1.28-7.88,2.02
				c-3.11,0.73-5.86,2.01-11.91,5.13c-6.05,3.11-7.33,16.12-7.14,22.16c0.18,6.04,17.04,13.56,17.59,14.84
				c0.55,1.28,0.37,3.66-0.37,5.5c-0.73,1.83-2.38,3.85-3.48,5.86c-1.1,2.02-4.58,23.26-6.78,30.41c-2.2,7.14-0.55,23.81-0.73,26.93
				c-0.18,3.11-0.55,4.76-1.65,10.44c-1.1,5.68-0.73,28.21-1.1,31.32c-0.37,3.11-1.28,6.23-3.85,10.99
				c-2.56,4.76-7.14,18.32-8.24,22.53c-0.86,3.3-0.83,6.26-1.74,9.06h166.59c-0.16-3.79-0.31-6.68-0.31-6.68s3.16-1.37,3.98-1.37
				c0.82,0,2.06,0.27,2.61,1.79c0.55,1.51,3.57,3.85,4.4,3.57c0.82-0.27,5.08-0.96,5.08-0.96s-1.1,1.37-1.24,2.47
				c-0.06,0.51-0.22,0.88-0.45,1.18h24.32C285.63,1121.97,285.64,1121.94,285.65,1121.92z"/>
			<path class="st2" d="M175.97,866.56l-0.6-0.93C175.37,865.63,175.65,866.24,175.97,866.56z"/>
			<path class="st2" d="M534.28,1054.32c-0.54-6.79-7.61-51.64-12.5-56.26c-4.89-4.62-21.74-13.59-21.74-13.59l-1.9-2.72l-5.98-2.45
				l-2.17,0.54c0,0-7.34-5.98-8.15-6.25c-0.82-0.27-2.17,0.82-3.53,0.54c-1.36-0.27-4.08,0.54-4.08,0.54v-1.9h2.45
				c0,0-1.09-7.61-0.27-8.7c0.82-1.09,6.79-9.24,8.7-12.5c1.9-3.26,3.53-7.07,3.8-8.42c0.27-1.36,1.63-4.89,0.27-12.77
				c-1.36-7.88-6.52-13.32-7.88-16.31c-1.36-2.99-3.53-6.52-1.63-6.52c0,0-2.55-0.64-2.76,0.73c-0.08-1.46-0.11-4.97,1.4-4.54
				c0,0-4.08-1.63-7.61,1.09c0,0-3.26-5.44-9.51-4.89c-6.25,0.54-7.61,4.62-10.33,5.44c-2.72,0.82-5.71,1.9-8.15,3.8
				c-2.45,1.9-10.6,2.17-11.41,0.54c0,0,2.17,4.62,6.79,4.08c0,0-4.35,10.06-4.89,14.68c-0.54,4.62,0,7.07-0.54,7.88
				c-0.54,0.82-1.63,2.45-2.45,4.62c-0.82,2.17-2.99,5.98,0,5.98c2.99,0,4.62-0.82,4.62-0.82s-1.09,3.26,0.27,5.16
				c1.36,1.9,2.72,0.27,1.36,1.9c-1.36,1.63-2.45,4.35-2.45,4.35l-6.25-0.54c0,0-11.69-12.77-14.95-15.49c0,0,0.54-2.99-1.9-6.25
				c-2.45-3.26-2.72-4.08-3.8-4.35c-1.09-0.27-2.99-2.17-2.99-2.17s1.09-1.63-0.54-4.62c-1.63-2.99-5.98-15.22-10.6-18.48
				c0,0-1.36-8.15-2.17-10.33c-0.82-2.17-1.36-22.83-2.45-29.35c-1.09-6.52-2.99-13.32-2.99-14.4c0-1.09-2.72-11.14-2.45-13.04
				c0.27-1.9-1.09-5.44-1.09-6.25c0-0.82,0.54-7.61,0.54-7.61s-0.27-5.98,0.82-7.34c1.09-1.36-0.82-4.89-0.82-4.89
				s-0.27-9.24,2.99-10.6s5.16-4.89,7.07-5.71c1.9-0.82,6.25-5.71,7.61-8.7c1.36-2.99,0.54-4.08,2.17-5.16
				c1.63-1.09,2.17-3.8,4.89-4.89c2.72-1.09,4.89-2.72,5.71-4.08c0.82-1.36-0.47-5.99-5.44-2.94c0,0-2.94,0.11-4.33-0.27
				c-1.39-0.37-6.2-1.02-7.01-1.12c-0.8-0.11-1.98-0.64-2.51-0.86c-0.53-0.21-0.91-0.21-0.48-0.8c0.43-0.59,3.1-2.57,5.3-2.67
				c2.19-0.11,4.01-0.86,7.17-2.14c3.16-1.28,4.01-1.77,4.12-2.94c0.11-1.18-0.16-2.89-1.82-2.14c-1.66,0.75-3.26,1.02-3.96,1.02
				c-0.7,0-3.05,0.48-4.01,0.75c-0.96,0.27-2.3,0.75-2.89,0.8c-0.59,0.05-1.44,0.43-2.03,0.43s-1.12,0.05-2.03,0.27
				c-0.91,0.21-1.5-0.11-1.5-0.11s0.86-0.91,2.03-1.44c1.18-0.54,1.23-1.18,1.55-1.28c0.32-0.11,4.07-0.37,5.56-0.86
				c1.5-0.48,2.41-1.98,2.35-2.57c-0.05-0.59-0.7-1.1-0.7-1.1s-2.79,0.08-4.23,0c-1.44-0.08-2.62,0.17-3.89,0.76
				c-1.27,0.59-4.99,1.86-6,2.03c-1.01,0.17-1.86,1.18-2.71,2.71c-0.85,1.52-3.04,7.36-4.48,8.03c-1.44,0.68-3.97,1.35-4.65,2.28
				c-0.68,0.93-1.18,3.55-1.52,5.58c-0.34,2.03-2.62,15.81-3.8,19.02c-1.18,3.21-3.3,6.17-4.65,8.29c-1.35,2.11-0.59,3.38-1.01,5.58
				c-0.42,2.2-0.42,2.2-0.42,2.2s-0.93,0.93-1.44,2.62c-0.51,1.69-2.79,9.89-2.79,10.48s-1.01,0.51-1.1,2.2
				c-0.08,1.69-1.44,6.6-3.3,9.89c-1.86,3.3-1.78,6.17-1.69,8.03c0.08,1.86-0.76,4.48-2.2,7.02c-1.44,2.54-2.87,8.79-3.8,15.05
				c-0.93,6.26-2.2,8.2-4.57,13.53c-2.37,5.33-3.8,6-3.04,12.68c0,0,3.9,19.96,4.89,28.66c1,8.7,3.44,24.1,2.9,30.08
				c-0.54,5.98-0.82,6.25,0.09,10.24c0,0,0.72,7.34,1.27,14.95c0.54,7.61,3.53,11.69,4.89,16.31c1.36,4.62,3.8,13.04,6.25,17.94
				c2.45,4.89,4.89,8.97,4.89,8.97s-0.54,7.07,2.72,12.77c3.26,5.71,7.61,8.15,7.61,8.15s-4.08,11.14-4.62,19.02
				c-0.54,7.88-1.09,16.58-0.27,22.01c0.82,5.44,0.54,15.49-3.26,27.99c-1.01,3.32-2.43,8.17-3.97,13.6h189.09
				C547.36,1103.27,534.73,1059.96,534.28,1054.32z"/>
			<path class="st2" d="M721.78,1110.37c-1.27-0.84-1.27-2.95-0.21-3.59c1.05-0.63,12.24-4.85,13.71-5.48
				c1.48-0.63,0.84-0.21,3.8-1.27c2.95-1.05,7.81-6.33,8.23-8.02c0.42-1.69,1.27-5.7,1.27-5.7l-11.81-2.32c0,0,1.48-3.59,2.11-3.8
				c0.63-0.21,6.33-3.59,6.33-3.59l16.03-9.49c0,0-4.47-8.15-4.04-18.28c0.42-10.13,22.42-46.78,23.68-51.42
				c1.27-4.64-1.79-19.68-1.37-23.69c0.42-4.01-4.2-10.65-5.47-12.76c-1.27-2.11-6.28-10.44-7.34-12.76
				c-1.05-2.32,0.42-3.16-1.05-3.59c-0.3-0.08-1.14,0.13-2.32,0.52c-0.07-0.46-0.14-0.93-0.22-1.44
				c-1.64-10.19-14.19-45.93-14.82-48.29c-0.64-2.36-1.36-3.46-1.91-6c-0.55-2.55,0.73-8.37,1-10.37c0.04-0.27,0.04-0.61,0.01-0.98
				l27.62-3.16c0,0,3.82-6.66-0.17-11.3l-1.66,0.61l-0.5-1.21l-28.07,4.36c-1.21-1.55-3.14-2.24-3.14-2.24
				c-0.73,0.09-3.09,0.82-3.55,0.82c-0.45,0-1.91-0.55-2.46-0.73c-0.55-0.18-1.36-0.55-2-0.27c-0.64,0.27-1.55,1.09-2.36,0.55
				c-0.82-0.55-1.64-0.45-2.55-0.18c-0.91,0.27-2.55,1.36-3,1.46c-0.45,0.09-1.36-0.91-2.55-0.45c-1.18,0.45-2.54,2.15-2.54,2.15
				c-0.47,0.71-0.73,1.68-0.83,2.78l-1.73,0.27l-26.52,3.4l-0.5,1.21l-2.83,1.61c0,0-2.99,5.65,2.16,7.47l29.33-3.88
				c0.05,0.9,0.3,1.67,0.91,1.96c0.92,0.44,1.91,1.08,2.83,1.51c2.32,3.53,6.33,8.98,7.98,12.27c2.09,4.19,3.49,8.02,4.19,19.18
				c0.43,6.95,1,21.99,1.37,32.37c-0.1,0-0.22-0.02-0.31-0.02c-2.11,0-14.09,26.97-16.62,25.91c-2.53-1.05-7.38-4.43-8.02-4.64
				c-0.63-0.21,3.16,1.05,6.96,0.42c0,0-8.02-2.32-11.6-6.75c0,0,11.39,6.54,14.56,5.91c0,0-11.39-5.91-12.87-9.07
				c0,0,10.34,6.12,14.77,5.7c0,0-15.82-8.23-18.77-11.6c0,0,13.92,3.16,15.61,2.95c0,0-18.56-7.59-23.84-16.03
				c-5.27-8.44-13.08-19.2-16.45-23.21c-3.38-4.01-7.81-11.18-9.49-13.5c-0.97-1.33-2.91-3.85-4.83-5.99l6.52,5.99
				c0,0-6.54-15.4-18.35-14.98c0,0-11.39-4.01-20.67,2.32c0,0-6.12,4.01-8.23,5.06c-2.11,1.05-3.8,2.95-5.91,4.43
				c-2.11,1.48-4.43,4.01-5.06,4.64c-0.63,0.63-8.02-3.8-8.02-4.85c0-1.05-1.27-9.91-1.69-11.6c-0.42-1.69-0.63-2.53-0.63-2.53
				s9.92-24.47,14.56-32.28c4.64-7.81,9.91-9.92,12.24-10.34c2.32-0.42,5.91-4.01,7.59-7.17c1.69-3.16,3.59-5.27,3.38-6.54
				c-0.21-1.27,0.42-7.38,0.63-8.23c0.21-0.84-1.9-2.74-4.85,2.95c-2.95,5.7-2.74,6.96-2.74,6.96s-4.43-0.63-5.27-0.63
				c-0.84,0-1.48-2.53-0.84-4.64c0.63-2.11,0.42-5.27,1.9-7.38c1.48-2.11,4.01-6.96,5.7-8.23c1.69-1.27,4.43-2.95,4.64-3.59
				c0.21-0.63,2.11-2.11-0.42-2.95c-2.53-0.84-6.75,3.16-10.13,5.48c-3.38,2.32-4.85,4.01-4.85,4.01s-2.11-2.11,4.01-5.91
				c6.12-3.8,8.86-6.12,5.7-8.23c0,0-5.91,2.11-8.23,4.43c0,0-3.38,0.21-5.06,0.84c-1.69,0.63-5.06,2.53-5.7,2.95
				c-0.63,0.42-4.22,8.65-5.27,10.34c-1.05,1.69-0.42,3.59,0,4.85c0.42,1.27,3.38,6.54,2.11,8.44c-1.27,1.9-2.53,2.32-3.59,4.64
				c-1.05,2.32-7.81,9.49-9.28,11.18s-7.59,7.81-7.59,7.81s-0.21-2.32-1.05-2.74c-0.84-0.42,0-7.38-2.74-9.7
				c-2.74-2.32-11.18-7.38-19.41-6.54c-8.23,0.84-22.99,0.84-25.31,0.84c-2.32,0-7.59-0.42-7.59-0.42s-9.28,14.77-8.86,17.72
				c0.42,2.95-0.21,5.27-0.42,7.59c-0.21,2.32,0.63,9.07,0.84,10.76c0.21,1.69,1.27,10.76,1.05,14.13
				c-0.21,3.38,0.84,13.5,1.69,16.88c0.84,3.38,2.53,5.7,4.43,8.02c1.9,2.32,2.95,4.01,5.06,6.96c2.11,2.95,3.8,5.06,3.38,6.54
				c-0.42,1.48-1.05,6.54,0.21,10.34c1.27,3.8,3.16,7.59,4.22,10.34c1.05,2.74,2.11,3.38,2.53,7.17c0.42,3.8,4.01,12.02,5.7,17.3
				c1.69,5.27,3.59,6.75,4.85,9.7c1.27,2.95,2.32,1.05,2.32,4.64c0,3.59-0.21,4.43,1.48,4.64c1.69,0.21,2.74,1.48,2.74,1.48
				s4.85,8.23,5.91,9.49c1.05,1.27,4.64,3.16,6.33,4.85c1.69,1.69,3.16,1.48,3.16,1.48s-12.45,24.05-13.71,34.17
				c-1.27,10.13-1.9,13.92-0.63,27.85c1.27,13.92,2.11,25.1-0.21,35.02c-1.1,4.7-2.34,10.92-3.21,17.53h163.63
				C726.19,1117.22,722.88,1111.11,721.78,1110.37z"/>
			<g>
				<path class="st2" d="M1102.12,1114.89c-1.93-3.86-3.58-23.85-4.41-27.57c-0.83-3.72-2.21-9.37-2.21-9.37s12.41,4.41,14.34,4.55
					c1.93,0.14,3.86,1.65,7.17,1.38c3.31-0.28,11.3-1.24,19.3-5.38s13.23-4.96,14.33-8.82c0,0-7.31-11.85-15.85-17.64
					c-8.55-5.79-24.67-16.13-30.05-18.33l0.55-2.62c0,0,2.62,1.65,3.86,1.65c1.24,0,4.55-0.69,5.93-0.83
					c1.38-0.14,5.38,0.14,5.79-0.14c0.41-0.28,7.44-8.41,7.86-13.09c0.41-4.69-1.1-8.96,0.83-11.03
					c1.93-2.07,12.27-12.27,15.02-13.78c2.76-1.52,3.45-1.1,4.55-4.55c1.1-3.45,2.34-8.82,1.1-13.23c-1.24-4.41-3.45-9.1-4.27-10.06
					c-0.83-0.96-13.37-19.16-14.75-22.33c-1.38-3.17-1.79-3.86-2.21-3.45c-0.41,0.41-8.13-13.51-17.37-23.98
					c-9.23-10.48-15.44-20.68-17.23-25.91c-1.79-5.24-1.79-11.85-4.82-16.68c-3.03-4.82-8.13-14.75-8.68-14.47
					c0,0-3.17-8.68-4.96-8.55c0,0,0.69-2.21-2.48-0.96c-3.17,1.24,0.14,13.51,1.52,18.47c0,0-3.17-6.89-4.69-11.03
					c0,0-5.1-3.03-1.65,9.92c3.45,12.96,4,13.78,3.86,14.47c-0.14,0.69,0.14,4.82,0.14,4.82l-1.52,0.14c0,0-2.62-6.2-5.51-9.24
					c-2.89-3.03-7.31-3.58-6.2-0.28c1.1,3.31,1.79-1.1,3.72,7.17c1.93,8.27,2.62,6.34,3.45,8.82c0.83,2.48,5.1,5.38,7.17,6.89
					c2.07,1.52,6.75,2.76,10.34,7.17c3.58,4.41,7.58,10.89,9.79,15.16s8.27,13.78,10.48,21.23c2.21,7.44,2.48,8.55,2.62,10.2
					c0.14,1.65,1.1,3.58,0.96,4.14c-0.14,0.55-1.52,1.93-1.52,2.89c0,0.96,0.83,2.07,0.83,2.07s-5.38-0.96-8.41,1.24
					c0,0-5.51-3.31-7.86-2.21c-2.34,1.1-4.96,6.48-5.93,6.62c-0.96,0.14-3.03,0.55-3.03,0.55s-3.03,2.21-4.82,2.62
					c-1.79,0.41-7.86,1.65-10.06,3.03c-2.21,1.38-4.69,2.76-6.34,3.03c-1.65,0.28-2.07,0.14-3.45,0.14c-1.38,0-4.41-1.38-5.51-1.65
					c-1.1-0.28-3.58-0.14-4-0.28c-0.41-0.14-4-1.65-5.1-2.48c-1.1-0.83-3.17-1.38-2.21-3.03c0.96-1.65,3.17-4.82,3.72-6.2
					c0.55-1.38-0.28-1.79,1.1-3.72c1.38-1.93,4.96-3.45,5.79-4.55c0.83-1.1,8.27-5.24,7.31-13.23c-0.96-7.99-2.34-6.89-2.34-6.89
					s0.41-5.79-0.69-9.1s0.28-7.99-0.28-8.55c-0.55-0.55-3.86-3.72-4.14-4.27c-0.28-0.55-6.75-11.44-8.13-12.82
					c-1.38-1.38-4.14-2.21-5.93-2.34c-1.79-0.14-4.14-0.55-4.82-1.1c-0.69-0.55-5.65-3.72-7.44-3.58c-1.79,0.14-3.17-0.14-4.69,0.69
					c-1.52,0.83-3.45,1.79-4.69,1.79c-1.24,0-3.03-0.28-4.55,0c-1.52,0.28-1.38,0.28-3.17,1.1c-1.79,0.83-5.93,2.07-5.93,2.07
					l2.89-45.21c0,0,0.96-4.27-11.85-1.79l-0.69,1.65l-0.83-1.52c0,0-1.93,19.99-1.65,27.29c0.28,7.31-0.41,13.78-0.28,14.89
					c0.14,1.1-0.83,10.06-1.24,13.51c-0.41,3.45-1.24,4-1.24,4.69c0,0.69-0.69,2.34-1.24,3.72c-0.55,1.38-1.52,1.65-0.83,2.34
					c0.69,0.69,0.69,1.79,0.83,2.34c0.14,0.55,0,1.65,0,1.65s-1.65-0.69-2.48,0.41c-0.83,1.1-3.86,7.86-4.96,9.79
					c-1.1,1.93-1.93,4.41-1.93,4.41s-1.93,1.93-1.79,3.58c0.14,1.65,0.83,6.06,1.24,9.37c0.41,3.31,0.69,9.24,0.83,11.85
					c0.14,2.62-0.41,4.27-0.69,6.06c-0.28,1.79-1.1,1.52-0.96,2.62c0.14,1.1,0.14,4.41,0,5.24c-0.14,0.83-6.06,1.65-7.86,2.48
					c-1.79,0.83-3.72,0.96-4.41,1.93c-0.69,0.96-1.38,4-1.93,4.55c-0.55,0.55-4.96,5.24-5.51,7.86c-0.55,2.62-3.72,11.72-3.31,32.53
					c0.41,20.81,2.34,19.43,1.52,29.36s-1.65,15.3-2.76,21.36c-1.1,6.06-4.27,25.91-4.55,29.36c-0.21,2.6-1.35,10.97-2.14,16.07
					h32.77c2.07-4.09,4.29-8.46,4.52-8.77c0.41-0.55-0.14,3.17,0.28,6.62c0.06,0.5,0.11,1.24,0.15,2.15h122.48
					C1103.33,1118.6,1102.67,1115.99,1102.12,1114.89z M995.68,974.62l-7.79,1.15c0,0,0,0,0.13-1.41c0.13-1.41,0.26-3.07,1.15-6.26
					c0.89-3.19,1.92-4.47,1.92-4.47c1.79,2.17,4.6,9.07,4.86,9.45C996.19,973.47,995.68,974.62,995.68,974.62z"/>
			</g>
			<path class="st2" d="M1381.31,1112.82c0.94,0.56,7.89,4.51,8.83,4.7c0.94,0.19,7.52-5.64,9.21-12.4
				c1.69-6.76,7.11-18.23,5.64-18.6c-0.75-0.19-1.5-0.75-3.76-0.75s-7.14-4.51-12.78-5.45c-5.64-0.94-20.86-3.01-23.3-3.38
				c-2.44-0.38-5.07-2.44-6.2-2.44c-1.13,0-8.83-0.94-8.83-1.69c0-0.75,3.01-3.95,3.57-5.45c0.56-1.5,0.38-2.44,0.94-4.32
				s0.56-2.82,1.88-4.51s1.5-2.44,1.5-4.7s1.5-1.32,3.01-4.89c1.5-3.57-0.94-5.26-1.88-5.45c-0.94-0.19-1.69-2.07-1.69-2.07
				s2.82-3.01,2.25-2.82c-0.56,0.19,1.69-1.32,1.69-1.32l2.44-5.07l5.07-1.88l-2.82-2.25l4.7-7.33l-1.5-1.69l18.6-34.76
				c0,0-6.58-4.89-12.21-5.45l-26.87,52.23l-4.51,0.56l0.56,6.76l-3.38,6.76c0,0-0.56-2.07-2.82-1.88
				c-2.25,0.19-4.13,1.32-4.32,3.38c0,0-5.82-11.09-7.14-14.09c0,0,10.33,2.63,14.47-0.19c0,0-11.09,2.25-17.66-4.51
				c0,0,16.16,2.82,22.74-1.5c0,0-18.04,5.82-24.24-2.25l-2.82-5.64c0,0,13.34-0.56,19.17,5.07c0,0-11.09-11.84-23.3-15.97
				c0,0,4.51,0.94,8.46-0.75c0.17-0.07,0.31-0.13,0.46-0.19c-1.43-0.04-7.91-0.41-13.23-3.56c0,0,3.38,1.5,10.15-0.75
				c0,0-8.46-0.19-13.34-2.82c-4.89-2.63-9.39-4.89-9.39-4.89s5.07-0.56,11.65,2.25c6.58,2.82,19.35,7.52,22.92,11.09
				c3.57,3.57,6.39,4.51,6.39,4.51s-7.7-15.03-29.31-18.23c0,0,19.92-1.5,27.43,3.01c0,0,12.59,5.26,17.47,3.57
				c0,0-6.95,0.38-16.16-5.26c0,0,14.66-3.19,17.47-4.89c0,0-16.16,0.75-23.86-1.32c0,0,11.65-1.13,16.91-4.7
				c0,0-18.04,2.25-24.61,2.07c0,0,8.08-3.76,10.71-8.64c0,0-6.01,7.14-15.78,8.08l-8.08-0.75c0,0,4.6-0.24,9.47-1.49
				c-0.81-0.38-1.51-0.76-2.15-1.14c-4.78,0.77-10.32,1.39-14.08,0.94c0,0,4.63-1.14,10.24-3.24c-0.51-0.26-1.05-0.5-1.63-0.69
				c-4.94,1.6-10.58,2.64-16.7,2.43c0,0,3.95-2.63,11.27-3.01c2.38-0.12,4.04,0.12,5.42,0.58c0.53-0.17,1.06-0.35,1.57-0.53
				c-3.4-1.43-8.05-2.38-14.13-1.55c0,0,1.69-0.75,4.51-5.26c0,0-4.13,6.2-9.96,5.45l-3.76-1.69c0,0,4.7-0.56,5.82-4.32
				c0,0-4.7,7.52-10.71,0.94l-2.82-4.7c0,0,19.17,3.76,25.55-2.44c0,0-11.65,6.01-26.68-1.13c0,0,0.38-1.5,2.63-9.21
				c2.25-7.7-6.39-13.72-10.71-18.41c-4.32-4.7-8.46-10.15-8.64-11.65c-0.19-1.5-0.38-8.83-1.88-9.58c-1.5-0.75-8.27-0.94-8.27-0.94
				s-1.69-5.07-12.78-5.45c-11.09-0.38-14.09,4.32-15.97,5.26c-1.88,0.94-16.35,6.39-18.6,0.56c-2.25-5.83,4.51-9.02,9.96-6.58
				c0,0-7.89-4.7-11.65,3.57c0,0-0.94,9.02,10.33,7.89c0,0-0.19,5.82-2.07,6.39c-1.88,0.56-12.21,5.45-12.78-5.64
				c0,0,3.76-6.2,1.5-9.02c0,0,0.38,6.76-4.13,9.39c-4.51,2.63-5.26,10.52-0.94,17.29c4.32,6.76,9.21,10.9,10.9,11.46
				c1.69,0.56,0,7.89,2.82,15.22c2.82,7.33,2.82,7.33,2.82,7.33s-3.01,1.69-3.19,0.19c-0.19-1.5-3.38-8.83-5.45-11.27
				c-2.07-2.44-3.01-2.44-4.51-7.7c-1.5-5.26-4.13-8.46-6.76-11.09c-2.63-2.63-2.82-0.75-3.95-4.89
				c-1.13-4.13-7.7-25.18-10.15-29.12c-2.44-3.95-4.51-8.64-4.7-9.96s-3.01-24.61-3.57-34.2c-0.56-9.58-0.56-31.94,0.56-34.76
				c1.13-2.82,3.95-6.01,4.51-9.21c0.56-3.19,0-5.64,2.07-9.02c2.07-3.38,5.26-7.33,6.76-9.96c1.5-2.63,2.25-5.45,2.44-6.2
				c0.19-0.75-2.25-3.01-6.58,1.69c-4.32,4.7-4.89,8.46-8.46,8.83c-3.57,0.38-6.01,1.13-6.95,0c-0.94-1.13-4.89-5.07-4.89-5.64
				c0-0.56,3.38-7.7,2.82-9.21c-0.56-1.5-2.63-2.44-2.82-0.56c-0.19,1.88-1.32,3.19-1.88,4.13c-0.56,0.94-0.56,0.94-0.56,0.94
				s-4.13-3.57-4.13-5.26s1.13-9.39-0.56-11.46c-1.69-2.07-2.63-1.32-2.63-1.32l-0.56,3.76c0,0-0.94-9.21-5.82-7.52
				c-0.56,0.19,0.94,4.7,0.94,4.7s-1.88,0.19-1.5,1.32c0.38,1.13,1.32,3.76,1.32,6.2c0,2.44,1.13,3.95,1.5,7.33
				c0.38,3.38,2.44,5.83,2.82,8.46c0.38,2.63,0.56,6.39,1.32,8.27c0.75,1.88,3.38,7.89,3.19,9.58c-0.19,1.69,1.13,5.64,1.32,8.27
				c0.19,2.63,0.19,4.32-0.19,6.39c-0.38,2.07,0,5.26,0,8.27c0,3.01-1.13,18.98-1.5,26.68c-0.38,7.7-2.07,17.1-2.07,17.1
				s-4.32,14.66-5.07,18.41c-0.75,3.76-0.38,7.89,1.13,11.84c1.5,3.95,12.59,37.58,14.84,43.78c2.25,6.2,7.14,17.66,7.14,18.98
				c0,1.32-0.75,2.63-1.13,3.95c-0.38,1.32-2.44,6.76-1.13,10.15c1.32,3.38,2.25,4.89,2.44,6.2c0.19,1.32,3.38,4.32,3.95,4.32
				s-2.25,4.7-2.25,4.7s3.01,2.82,5.07,2.63c2.07-0.19,2.07-0.19,2.07-0.19s2.63,0.94,2.25,4.13c-0.38,3.19-1.5,4.89-1.32,6.39
				c0.19,1.5,0.38,4.51,0.19,6.01c-0.19,1.5-0.94,3.57-0.94,4.7c0,1.13,1.69,3.01,1.69,3.01s0.56,4.7,0.56,10.15
				s1.13,8.83,1.13,8.83s-1.88,3.95-0.75,6.39c0,0-0.56,6.2,0,7.7c0.56,1.5,4.7,6.01,6.39,6.58c1.69,0.56,6.39,0.75,6.39,0.75
				s1.13,6.58,3.57,9.58c0,0-1.32,3.76,0.94,9.77c2.25,6.01,3.38,9.58,3.19,12.03c-0.18,2.4-0.73,11.3-1.11,15h170.61
				C1376.34,1118.58,1380.59,1112.39,1381.31,1112.82z"/>
			<path class="st2" d="M1583.5,1115.65c-0.9-4.15-6.5-22.93-8.94-32.23c-2.44-9.3-10.02-35.21-12.28-41.17
				c-2.26-5.96-9.57-27.26-14.35-38.01s-10.56-21.67-15.26-24.01c-4.69-2.35-20.31-12.01-27.99-13.45
				c-7.67-1.44-8.03-4.97-8.67-5.24c-0.63-0.27-2.89-0.72-3.43-1.26c-0.54-0.54-0.45-1.62-0.45-1.62s2.17,0.63,2.98,0.99
				s1.62,0.36,2.53,0.81c0.9,0.45,1.44,1.08,1.72,0.99c0.27-0.09-0.99-3.52-3.07-5.15c-2.08-1.62-4.6-3.43-4.78-4.87
				c-0.18-1.44-1.17-3.97-2.08-4.42c-0.9-0.45-1.9-0.9-1.9-0.9s-1.9-8.76-1.44-12.19c0.45-3.43,0.72-4.33,0.72-4.33
				s3.16,0.45,3.88-0.36c0.72-0.81,0-1.08-0.36-1.72c-0.36-0.63-2.53-2.08-2.17-3.16c0.36-1.08,1.08-10.92-0.54-14.71
				c-1.62-3.79-1.62-4.51-4.06-7.49c-2.44-2.98-3.7-6.14-4.15-6.86c-0.45-0.72-1.44-1.72-1.99-2.98c-0.54-1.26-1.17-2.17-1.99-4.06
				c-0.81-1.9-0.45-2.62-1.53-4.33c-1.08-1.72-1.62-2.62-2.71-3.34c-1.08-0.72-5.87-2.71-5.87-2.71s2.8-22.39,3.52-23.56
				c0.72-1.17,8.03-15.98,8.31-16.61c0.27-0.63-5.33-4.51-5.51-5.15c-0.18-0.63,2.71-11.83,3.79-13.81s7.22-10.56,8.31-19.05
				c1.08-8.49,1.08-11.83,1.35-12.28c0.27-0.45,3.25-6.68,4.15-7.22c0.9-0.54,4.33-2.44,4.78-2.89c0.45-0.45,1.62-1.99,0.72-2.53
				c-0.9-0.54-4.06-0.27-6.32,0.72c-2.26,0.99-5.78,2.26-6.41,2.71c-0.63,0.45-1.62-0.54-0.63-2.44c0.99-1.9,8.76-12.82,9.48-13.81
				c0.72-0.99,1.99-2.62,0.27-4.15c-1.72-1.53-4.51,3.43-5.51,3.97c-0.99,0.54-2.62,2.89-3.34,3.7c-0.72,0.81-5.33,5.24-6.05,6.14
				c-0.72,0.9-1.44,1.81-1.44,1.81s0.45-6.05,1.35-7.49c0.9-1.44,6.41-12.01,6.68-13.63c0.27-1.62-0.09-2.62-1.99-2.44
				c-1.9,0.18-3.25,2.98-4.33,4.69c-1.08,1.72-5.15,8.03-6.14,9.12c-0.99,1.08-1.81,1.81-1.99,3.07c-0.18,1.26-0.54,2.98-0.54,2.71
				c0-0.27-1.08-2.8-0.9-4.15c0.18-1.35,0.81-5.51,1.08-6.59s1.62-4.69,1.62-5.6c0-0.9,1.32-4.38-2.77-3.59
				c-1.94,0.37-2.05,3.91-3.35,6.24c-1.3,2.33-1.4,5.4-2.14,7.27c-0.75,1.86-1.49,3.54-0.93,5.59c0.56,2.05,1.4,4.75,1.68,7.27
				c0.28,2.52,0.47,7.45,0.47,9.6c0,2.14,0.28,8.48-0.19,13.88c-0.47,5.4-0.47,8.48-1.21,9.6c-0.75,1.12-2.52,3.91-3.91,8.11
				c-1.4,4.19-2.89,8.76-2.89,8.76s-2.33,0.75-2.89,3.26c-0.56,2.52-7.36,16.4-8.48,18.45c-1.12,2.05-3.17,7.27-3.91,8.48
				c-0.75,1.21-2.7,5.78-2.89,6.71c-0.19,0.93-5.59,8.85-7.27,10.62c-1.68,1.77-7.73,6.62-7.45,6.52c0.28-0.09,1.3,2.14,1.49,3.73
				c0.19,1.58-0.47,3.17,0.09,4.94c0.56,1.77,0.75,2.89,0.75,2.89s-2.33,5.22-3.17,14.16c-0.84,8.95-1.21,12.02-1.21,13.14
				c0,1.12-0.09,2.98-0.09,2.98s-2.98,3.17-4.47,6.24c0,0-16.4,12.49-20.03,22.64c0,0-0.65,2.7,1.03,4.66c0,0-0.37,2.7,1.4,6.62
				c1.77,3.91,3.07,4.19,3.45,4.57c0.37,0.37,4.47,3.35,5.12,4.47c0.65,1.12-0.09,1.96,0.19,3.07c0.28,1.12,0.47,0.93,0.65,1.58
				c0.19,0.65-0.47,3.73-0.47,4.29c0,0.56-1.3,3.35-0.93,5.4c0.37,2.05,1.12,3.35,0.75,4.19c-0.37,0.84-1.21,1.86-0.75,6.52
				c0.47,4.66,1.12,6.43,1.68,7.64c0.56,1.21,0.56,1.4,0.47,2.14s0.47,6.06,0.93,7.83c0.47,1.77-0.47,5.03-0.28,9.5
				c0.19,4.47-0.56,9.22,1.3,14.35c1.86,5.12,3.91,7.45,4.47,8.48c0.56,1.02-0.65,2.8,0.28,4.94c0.93,2.14,1.4,3.35,1.4,5.59
				c0,2.24,0.19,4.1,1.49,5.78c1.3,1.68,2.52,3.73,2.7,4.47c0.19,0.75-0.37,8.2,0.09,13.6c0.47,5.4,1.58,9.32,1.3,18.54
				c-0.2,6.67-0.53,17.53-0.74,23.17h164.65C1584.32,1119.08,1583.73,1116.71,1583.5,1115.65z"/>
			<path class="st2" d="M1636.56,892.86c-0.95,0.13-1.81,0.29-2.44,0.5C1632.5,893.9,1634.19,893.56,1636.56,892.86z"/>
			<path class="st2" d="M1614.35,885.81c0,0,0.06,0.04,0.15,0.1c0-0.02,0-0.04,0.01-0.07
				C1614.45,885.83,1614.4,885.81,1614.35,885.81z"/>
			<path class="st2" d="M1614.75,883.4c0,0-0.12,1.01-0.25,2.44c0.13,0.02,0.26,0.05,0.39,0.08
				C1614.93,885.09,1615.08,884.06,1614.75,883.4z"/>
			<path class="st2" d="M1749.44,1095.58c0,0,7.52,4.14,9.59-3.76c0,0,1.69-6.02-4.52-9.97c0,0-3.2-6.02-7.71-8.84
				c-4.52-2.82-3.76-0.94-4.52-2.82c-0.75-1.88,0-2.45,0.19-4.89c0.19-2.45-1.13-1.32,0-4.14c1.13-2.82,3.01-6.58,3.57-9.03
				c0.56-2.45,0.38-4.51,0.75-6.21c0.38-1.69,1.32-2.45,2.07-4.33c0.75-1.88,1.32-4.33,1.51-5.83c0.19-1.51,2.63-3.2,2.07-4.14
				c-0.56-0.94-1.69-3.57-0.56-5.08c1.13-1.51,8.65-6.58,9.22-10.16c0.56-3.57,6.96-38.38,5.08-56.62
				c-1.88-18.25-3.01-29.16-3.01-29.16s9.41-15.43,10.35-17.68c0.94-2.26,0.94-1.69,2.63-3.01c1.69-1.32,3.01-1.13,3.2-2.07
				c0.19-0.94-0.56-11.85-1.5-16.37c-0.94-4.51-4.33-17.12-6.4-22.76c-2.07-5.64-15.43-25.96-17.12-30.66
				c-1.69-4.7-8.28-16.74-8.28-17.87c0-1.13-1.13-0.56-0.94-1.13c0.19-0.56-2.82-2.82-2.45-7.71c0.38-4.89,3.95-15.61,3.95-17.87
				c0-2.26-1.32-3.01-1.5-4.7c-0.19-1.69,0-4.89-0.19-7.15c-0.19-2.26-0.94-3.57-1.88-5.46c-0.94-1.88-4.14-8.65-4.33-10.35
				c-0.19-1.69-3.01-2.07-4.89,0.75l0.19,2.63c0,0-1.5,1.5,0,3.2l0.19,6.21c0,0-1.69-5.83-4.14-5.08c-2.45,0.75-2.26,4.89-1.5,9.03
				c0.75,4.14,0.75,6.4,0.19,8.09c-0.56,1.69-1.69,3.76-2.07,4.7c-0.38,0.94-0.56,2.45-1.13,3.01c-0.56,0.56-5.46,2.45-6.4,2.82
				c-0.94,0.38-4.14,0-4.14,0s-8.65-7.52-13.36-7.52s-5.27,2.07-5.27,2.07s3.76,2.82,5.08,5.27c1.32,2.45,3.39,2.63,4.7,3.95
				c1.32,1.32,3.95,3.76,4.51,5.08c0.56,1.32,4.7,5.27,7.52,6.02c2.82,0.75,6.58,4.7,6.77,6.4c0.19,1.69,0.94,3.01,0.94,3.01
				l-0.94,1.32c0,0,2.26,3.01,3.2,4.7c0.94,1.69,1.88,9.59,2.45,10.91c0.56,1.32,1.51,3.76,1.32,4.7c-0.19,0.94,0.94,4.51,0.94,5.46
				c0,0.94,0.38,5.27,0.19,9.41c-0.19,4.14-0.19,9.22,0,10.53c0.19,1.32-2.45,1.88-0.94,5.27c1.5,3.39,2.63,3.76,2.45,6.58
				c-0.19,2.82-3.2,5.08-2.26,6.58c0.94,1.51,2.45,3.76,3.01,5.83c0.56,2.07,0.19,5.46-0.38,6.4c-0.56,0.94-1.51-0.19-2.63,2.07
				c-1.13,2.26-1.32,3.01-3.76,4.14c-2.45,1.13-1.88,0.38-3.76,1.88c-1.88,1.5-2.63,0-4.7,1.5c-2.07,1.5-2.45,3.57-3.39,4.33
				c-0.94,0.75-3.2,3.01-4.33,3.57c-1.13,0.56-3.2,2.45-4.51,3.01c-1.32,0.56-2.45-0.38-4.52,1.5c-2.07,1.88-9.03-0.75-11.1,0.94
				c-2.07,1.69-3.01,2.63-3.2,5.27c-0.19,2.63-1.13,7.71-1.69,7.9c-0.56,0.19-3.76,1.13-6.58,3.76c-2.82,2.63-4.7,2.63-5.64,5.64
				c-0.94,3.01-2.26,5.08-2.82,4.7c-0.56-0.38-2.07-0.94-2.63-0.94c-0.56,0-0.94,5.83-3.01,7.34c-2.07,1.5-3.39,0.19-5.83-1.32
				c-2.45-1.5-7.34-5.64-7.15-7.34c0.19-1.69-0.56-4.33-0.94-5.27c-0.38-0.94-0.38-2.26,0.19-1.88c0.56,0.38,2.45,1.32,2.63,0.75
				c0.19-0.56,1.5-3.57,1.5-4.89c0-1.32-0.94-2.26-1.69-5.83c-0.75-3.57,0.38-7.53,0.19-9.97c-0.19-2.45-0.38-5.08-1.32-6.96
				c-0.94-1.88-3.39-4.89-3.76-6.4c-0.38-1.51-1.13-3.57-1.13-3.57l4.14,1.69c0,0-1.5-3.2-4.14-4.51c-2.63-1.32,5.46,0.56,5.46,0.56
				s-4.33-3.76-6.21-3.95c-1.88-0.19-7.9-2.45-7.9-2.45s4.89-2.07,8.09-1.13c0,0-1.88-2.82-9.59-2.07c0,0,1.88-2.82,5.08-2.07
				c3.2,0.75,0-0.75,0-0.75s-4.42,0-7.72,0.44c-2.37,0.71-4.07,1.04-2.44,0.5c0.63-0.21,1.49-0.37,2.44-0.5
				c1.74-0.52,3.84-1.23,5.27-1.95c3.39-1.69,0.38-0.75,0.38-0.75s-5.83,1.69-8.28,1.69c-2.45,0,6.96-4.33,7.15-5.08
				c0,0-7.37,3.7-9.78,3.9c0,0,3.06-5.47,5.97-6.32c0,0-4.01,1.15-5.77,3.56c0,0,1-3.61,2.81-4.56c0,0-3.81,2.01-5.27,5.22
				c0,0-0.3-4.52,0.65-6.17c0,0-4.87,8.63-5.17,11.79c0,0,0.75-9.08,0.05-11.79c0,0-1.1,9.08-1.76,10.99c0,0,0.8-4.16-0.8-7.73
				c0,0,0,5.02-0.6,5.02c-0.24,0-1.89-3.76-6.53-4.76c0,0.09,0,0.18,0,0.27c1.28,0.96,4.31,3.64,2.62,6.44
				c-2.11,3.51-1.51,2.26-1.61,0.85c-0.1-1.4-0.1-5.92-0.75-6.37c-0.22-0.15-0.27-0.5-0.27-0.93c-0.17-0.13-0.3-0.22-0.39-0.28
				c-0.17,1.96-0.34,4.67-0.2,6.68c0.25,3.51-0.4,2.81-0.4,2.81s-2.96-8.68-5.82-9.43c0,0,2.21,2.46,3.21,6.32
				c0,0-2.81-6.87-5.32-7.07c0,0,4.1,4.54,3.28,9.55c0,0-6.09-2.07-10.17,1.49c0,0-1.67,0.23-2.07-0.4c0,0,0.75,1.26,1.44,1.15
				c0.69-0.11,2.12-1.21,3.96-1.32c1.75-0.11-3.02,2.13-5.01,2.48c0.01,0.01,0.03,0.02,0.04,0.03c0.97-0.03,4.05-0.13,6.29-0.28
				c2.7-0.17,2.93,0.4,3.56,0.8c0.63,0.4-3.91,2.81-6.78,1.55c-1.39-0.61-2.4-1.41-3.08-2.08c-0.19,0.01-0.31,0.01-0.31,0.01
				c0.08-0.01,0.18-0.03,0.28-0.04c-0.69-0.69-1.02-1.22-1.02-1.22s1.26,2.35,3.27,5.34c2.01,2.99,1.55,2.41,1.55,2.41
				s-2.13,1.38-4.65,1.32c-2.53-0.06-4.36-0.46-4.36-0.46s6.03,1.61,7.01,2.87c0.98,1.26,0.06,1.32,0.06,1.32s-4.48-2.24-7.29-0.52
				c0,0,2.93-0.4,3.79,0.06c0,0-1.21,0.4-2.93,1.9c0,0,3.79-1.95,5.23-0.34c1.44,1.61,0.92,1.55,0.06,1.49
				c-0.86-0.06-3.73-0.52-5.46,0.23l1.78-0.06c0,0-2.3,1.49-3.73,3.16c0,0,2.64-1.72,3.73-1.84c1.09-0.11,1.26,2.13,0.06,2.87
				c-1.21,0.75-4.54,2.13-6.03,3.79c0,0,2.58-1.15,3.91-1.09c1.32,0.06,1.32,0.06,1.32,0.06s-4.82,2.3-5.74,4.19
				c0,0,3.1-1.95,4.08-1.84c0.98,0.11,0.98,0.11,0.98,0.11s-2.7,2.47-3.79,4.54c0,0,1.78-1.49,2.64-1.49c0.86,0,0,1.78-0.63,3.04
				c-0.63,1.26-2.53,5-2.41,7.75c0,0,0.57-2.64,1.44-3.56c0,0-1.78,4.14-0.98,6.55c0,0,0.4-3.85,0.98-4.48c0,0,0.34,2.53,0.52,6.32
				c0.17,3.79,0.34,3.73,2.01,6.32c0,0-0.98-2.99-0.98-5.05c0,0,1.38,4.65,3.33,7.47c0,0,2.99,3.79,6.2,6.6
				c3.22,2.81,5.34,3.85,6.66,4.88c1.32,1.03,2.18,1.67,2.87,2.13c0.69,0.46,0.92,0.8,0.92,0.8s-0.4,8.96-0.34,10.05
				c0.06,1.09,0.34,0.69,0,0.8c-0.34,0.11-19.01,15.39-22.74,17.75c0,0-3.12,1.08-5.94,2.57c-2.82,1.48-5.93,3.17-6.77,3.53
				c-0.85,0.35-1.69,0-2.4,0.78c-0.71,0.78-3.88,4.52-4.8,5.43c-0.92,0.92-2.05,0.71-2.26,2.4c-0.21,1.69-0.92,1.34-1.76,3.39
				c-0.85,2.05-1.76,0.99-1.55,4.16c0.21,3.17,0.07,4.09-0.71,7.76c-0.78,3.67-1.41,5.93-1.69,10.51
				c-0.28,4.59-1.62,11.08-1.69,24.83c0,0-0.42,21.35,1.27,28.69c1.69,7.34,5.27,21.07,5.27,22.95s-0.19,3.57,1.69,6.58
				c1.88,3.01,2.45,2.82,3.01,5.83c0.02,0.1,0.03,0.18,0.05,0.27h191.66C1758.48,1112.01,1754.74,1099.21,1749.44,1095.58z"/>
			<path class="st2" d="M1614.89,885.92c-0.13-0.03-0.26-0.06-0.39-0.08c0,0.02,0,0.04-0.01,0.07c0.09,0.06,0.22,0.16,0.39,0.28
				C1614.88,886.1,1614.88,886.01,1614.89,885.92z"/>
			<path class="st2" d="M1597.44,898.19c-0.01-0.01-0.03-0.02-0.04-0.03c-0.1,0.02-0.19,0.04-0.28,0.04
				C1597.13,898.19,1597.25,898.19,1597.44,898.19z"/>
			<path class="st2" d="M278.45,594.71c-0.68-2.25-2.7-1.58-2.7-1.58s-18.79,5.4-36.66,10.48c2.47-6.9,6.02-12.85,8.39-16.39
				c0.51,0.28,1.08,0.45,1.7,0.45c1.97,0,3.57-1.6,3.57-3.57c0-0.52-0.12-1.01-0.32-1.45c1.18-0.91,2.61-2.11,3.97-3.42
				c2.44-2.35-0.09-5.14,1.22-6.97c1.31-1.83,2.79-2.96,4.27-5.14c1.48-2.18,3.4-4.53,5.14-7.58c1.74-3.05,0.87-7.92,0.87-7.92
				c-1.13,5.4-3.74,7.49-3.74,7.49c1.48-1.65,2.87-7.92,2.87-7.92l-1.31-1.31c-2.26,1.48-6.88,12.37-6.44,10.89
				c0.44-1.48,2.09-5.83,3.05-7.05c0.96-1.22,2.53-4.62,2.53-4.62l-2.26-1.74l-1.65,2.61c0,0,0.96-2.7,0.61-3.31
				c-0.35-0.61-1.31-0.96-1.31-0.96s0.44-0.61-0.7,0.78c-1.13,1.39-2,7.23-2,7.23c-0.96-3.22,0.35-8.36,0.35-8.36
				c-1.22,2.7-1.83,5.31-1.65,8.36c0.17,3.05-2.61,8.01-2.61,8.01c-0.7,2.87-2.09,6.36-2.61,7.92c-0.52,1.57-0.26,3.05-0.17,4.18
				s-0.09,1.83-1.05,3.4c-0.58,0.95-0.97,2.39-1.19,3.37c-1.7,0.28-2.99,1.74-2.99,3.51c0,1.26,0.65,2.35,1.63,2.99
				c-4.83,6.24-7.77,11.93-9.51,16.91c-12.79,3.63-24.84,7.02-28.83,8.04c-9.68,2.48-14.41,4.95-14.41,4.95
				c3.15,26.56,14.63,72.25,14.63,72.25c2.25-2.03,22.73-6.98,23.86-6.98c1.13,0,5.85,1.13,6.75,0.9c0.9-0.23,1.8,1.13,13.51-1.35
				c11.7-2.48,16.43-10.35,16.43-10.35c3.15-0.9,23.63-7.2,23.63-7.2S279.13,596.96,278.45,594.71z"/>
			<path class="st2" d="M500.16,583.17c-2.66-0.72-1.93-2.66-1.93-2.66l6.76-3.14c0,0,7.97,3.62,10.39,6.28
				c2.42,2.66,2.42,1.45,2.42,1.45s0.48-1.69-0.97-3.62c-1.45-1.93-1.45-4.83-1.93-7.01c-0.48-2.17-1.69-7.73-3.14-7.73
				c-1.45,0-10.87-2.17-13.29-2.66c-2.42-0.48-3.62-4.59-6.04-7.73c-2.42-3.14-12.32-17.15-13.29-18.36
				c-0.97-1.21-4.11-5.8-5.56-6.52c0,0-9.92,12.58-20.11,25.52c-0.64-9.11,0.79-20.1,8.76-28.41c7.24-7.56,10.49-12.63,11.82-16.44
				c0.09,0,0.17,0.01,0.26,0.01c4,0,7.25-3.24,7.25-7.25c0-0.46-0.05-0.91-0.13-1.35c0.71-0.85,1.44-1.81,2.17-2.86
				c2.62-3.79,1.94-4.45,2.33-7.87c0.39-3.43,0.78-4.74,0.68-7.07c-0.1-2.33,0.39-4.59,0.97-6.63c0.58-2.04,0.39-3.86,0.68-5.91
				c0.29-2.04,1.55-4.23,2.03-5.32c0.48-1.09,0.97-2.77,1.26-3.86c0.29-1.09-0.39-3.35-0.39-3.35s-0.29,1.09-0.97,3.94
				c-0.68,2.84-1.36,2.11-2.23,2.99c-0.87,0.87-1.45,2.11-1.65,3.65c-0.19,1.53-3.78,10.21-3.1,8.31c0.68-1.9,1.07-4.45,1.36-6.27
				c0.29-1.82,1.74-4.67,2.81-6.49s1.74-5.83,1.26-6.42c-0.48-0.58-3.88-0.73-3.88-0.73s-2.33,4.59-2.33,4.23
				c0-0.36,1.36-4.3,1.36-4.3l-1.36-0.15c0,0-1.55-0.15-1.84,0.8c-0.29,0.95-0.19,10.43-0.19,10.43l-0.78,0.36
				c-0.1-0.29-0.78-1.39-0.1-4.52c0.68-3.13-0.68-6.78-0.68-6.78s0.19,1.6-0.1,4.45c-0.29,2.84-1.36,2.99-1.65,5.1
				c-0.21,1.52,0.33,4.44,0.66,5.96c-0.37-0.7-1.17-1.56-2.11-4.13c-1.36-3.72,0.39-6.49,0.39-6.49c-1.36,1.39-2.81,1.02-0.97,5.54
				c1.84,4.52,4.36,16.26-0.87,24.13c-0.95,1.43-1.69,2.69-2.27,3.79c-2.83,0.99-4.86,3.67-4.86,6.84c0,3.29,2.19,6.06,5.19,6.95
				c-1.29,3.48-3.46,7.43-7.12,11.17c-9.12,9.35-13.94,17.06-12.19,34.65c-6.99,8.87-14.03,17.79-18.01,22.85
				c-9.9,12.56-7.97,15.94-6.28,19.33c1.69,3.38,16.43,31.4,23.67,34.79l13.05-17.15c0,0,6.76,1.45,12.08-0.48
				c5.31-1.93,11.35-4.35,14.01-5.56c2.66-1.21,8.7-3.62,11.11-4.83c2.42-1.21,11.84-12.8,13.29-14.25
				c1.45-1.45,2.66-1.69,2.66-1.69S502.82,583.89,500.16,583.17z"/>
			<path class="st2" d="M686.95,404.48c-1.36-15.85-0.91-18.11-0.91-18.11s-7.92-3.17-11.55-2.72c0,0-5.43-21.28-6.11-24
				c-0.68-2.72-1.81-4.3-2.26-1.36c0,0-20.17,9.66-37.3,18.32c-12.43-13.68-7.3-22.08-3.74-25.54c0.43,0.57,1.11,0.95,1.88,0.95
				c1.3,0,2.36-1.06,2.36-2.36c0-0.09-0.02-0.17-0.03-0.26c1.21-1.16,2.85-2.64,4.45-3.28c2.56-1.03,8.36-10.1,7.39-9.59
				c-0.97,0.51-1.93,2.34-2,2.64c-0.07,0.29-7.18,5.56-7.18,5.56s0.97-0.88,1.8-1.83c0.83-0.95,1.38-1.98,1.73-2.93
				c0.35-0.95,2.28-2.34,3.45-3c1.17-0.66,1.11-2.86,1.11-2.86c-0.35,0.15-1.93,1.24-2.63,1.9c-0.69,0.66-1.66,1.68-2.07,2.12
				c-0.41,0.44-1.93,1.24-1.93,1.24c0.9-0.81,0.76-0.95,2.63-3.15c1.87-2.2,2.97-2.34,2.9-2.56c-0.07-0.22-1.31-2.05-1.31-2.05
				s-1.66,0.07-2.28,0.44c-0.62,0.37-0.62,1.83-1.24,2.78c-0.62,0.95-2.83,3.81-2.83,3.81c0.07-0.51-0.55-1.98,0.41-2.42
				s2.28-4.17,2.28-4.17s-2.76,3.22-3.45,4.32c-0.69,1.1-0.9,3-1.17,4.69c-0.28,1.68-1.17,3.29-2.28,4.54
				c-0.47,0.53-0.73,1.22-0.89,1.85c-0.9,0.33-1.55,1.19-1.55,2.21c0,0.23,0.04,0.45,0.11,0.66c-4.25,2.59-4.72,8.17-5.1,11.81
				c-0.24,2.29,3.67,8.65,8.16,15c-11.75,5.96-21.82,11.33-22.55,12.61c-1.81,3.17-0.45,4.07-0.45,4.07l2.49,9.73
				c0,0,15.39,59.09,16.53,62.71c0,0,0.45,1.81,3.85-0.68c3.4-2.49,33.96-16.53,38.94-19.92c4.98-3.4,19.92-9.96,19.92-9.96
				l-1.81-7.92C684.69,427.79,688.31,420.32,686.95,404.48z"/>
			<path class="st2" d="M1102.16,510.86c1.53-3.18,1.14-4.83,1.14-7.88c0-3.05,1.4-6.61,1.02-9.91c-0.38-3.3,1.4-13.73,1.4-13.73
				c-1.27,1.27-2.67,4.32-3.3,6.23c-0.64,1.91-1.65,5.46-1.27,8.39c0.38,2.92-1.65,12.07-1.65,12.07c1.14-4.45,0-7.62,0.13-10.42
				c0.13-2.8,0.64-9.02,1.65-11.44c1.02-2.41,2.29-4.7,2.29-4.7l-3.43-1.91c0,0-2.67,0.13-3.3,0.51c-0.64,0.38-1.14,3.43-1.27,5.08
				c-0.13,1.65-2.41,8.64-2.41,8.64s0.51-3.18,1.14-5.97c0.64-2.8,1.4-7.75,1.4-7.75s-2.29-0.76-2.16-0.38
				c0.13,0.38-2.29,5.21-2.54,7.62c-0.25,2.41-3.3,5.08-4.57,9.4c-1.27,4.32,0.38,15.89,0.38,15.89
				c-1.65-2.29-2.92-11.69-2.92-11.69c0.13,1.78-0.25,8.26,1.65,11.95c1.91,3.69,1.4,8.13,0.38,12.07c-0.63,2.43-0.63,6.1-0.53,8.57
				c-2.09,0.52-3.64,2.4-3.64,4.65c0,1.62,0.81,3.05,2.04,3.92c-0.02,0.04-0.03,0.07-0.05,0.11c-2.71,5.76-14.38,18.13-26.74,27.04
				c-8.88,6.4-15.43,17.17-18.86,23.45c-2.11-9.86-9.28-45.36-10.12-48.04l-18.68,5.91l2.67,2.86l2.29,13.73
				c0,0-20.4,2.29-22.3,2.86c-1.91,0.57-5.91,3.05-7.43,3.62c-1.53,0.57-12.96,8.2-11.25,8.77c1.72,0.57,4.96,2.29,5.34,2.86
				c0.38,0.57,0.19,6.86,1.53,9.91c1.33,3.05,2.1,9.53,2.86,12.01c0.76,2.48,3.05,7.05,3.81,8.39c0.76,1.33,3.62,6.29,4,8.2
				c0.38,1.91,2.48,7.82,2.29,10.1s-0.57,10.48,0.95,11.82c1.52,1.33,4,0.38,4,0.38l1.91,2.86c0,0,8.01-1.72,10.87-2.1
				c2.86-0.38,19.06-3.81,19.06-3.81s1.53,8.58,1.53,10.29c0,1.72-0.19,4.96-0.19,4.96l18.49-0.38c0,0,0.95-6.48,0-9.91
				c-0.91-3.27-9.58-46.39-10.91-52.19c1.44-3.25,3.81-8.39,8.62-14.72c7.24-9.53,16.78-16.01,22.49-19.83
				c5.27-3.51,14.09-16.4,15.45-18.41c0.37,0.09,0.74,0.15,1.13,0.15c2.54,0,4.6-1.98,4.77-4.48c2.05-2.08,4.67-5.14,4.76-6.04
				c0.13-1.27,1.02-6.99,2.16-10.42c1.14-3.43,13.47-16.14,13.47-16.14C1106.86,506.03,1100.64,514.04,1102.16,510.86z"/>
			<path class="st2" d="M1236.78,558l-7.32-16.85l-58.35,30.64c0,0,11.39,26.1,17.6,40.38c-3.73,6.22-5.97,13.41-4.09,20.88
				c4.06,16.21,7.98,31.73,9.15,39.93c-0.96,0.24-1.87,0.73-2.62,1.48c-1.9,1.91-2.14,4.84-0.73,7.01
				c-0.75,3.88-1.1,10.84,4.03,16.11c7.35,7.54,21.76,13.6,27.89,21.64c6.13,8.04,12.86,13.51,15.18,14.6c0,0-9.19-10.83-11.88-14
				c0,0,11.75,12.41,16.14,9.96l2.67-4.16c0,0-6.36-4.13-10.76-7.04c0,0,8.68,3.76,11.85,4.72l2.55-5.01c0,0-1-3.52-6.57-6.04
				c-0.91-0.41-1.93-0.8-3.1-1.13c-8.31-2.41-16.37-4.1-18.57-6.04c0,0,18.56,3.12,23.69,6.03c0,0-10.64-7.66-18.21-9.1
				c-7.57-1.44-12.46-5.57-13.44-6.55c-0.98-0.97-3.44-6.58-5.76-8.89c-1.45-1.44-3.76-4.11-5.74-6.24
				c0.71-1.99,0.28-4.29-1.32-5.88c-1.1-1.09-2.53-1.63-3.96-1.63c-0.12-0.94-0.31-1.87-0.63-2.69c-1.23-3.17-8.91-41.22-7.71-47.33
				c0.48-2.45,1.7-5.08,3.23-7.64c0.68,1.56,1.26,2.9,1.69,3.91c4.15,9.59,12.44,28.5,12.71,29.05c0.28,0.55,10.96-4.42,16.3-7.05
				c5.34-2.62,42.33-20.3,42.33-20.3l-5.94-14.39c0,0,4.22-9.21,2.69-18.39c-1.54-9.19-11.06-27.68-14.5-29.73L1236.78,558z"/>
			<path class="st2" d="M1485.39,437.61c0.3-3.56,4.96-5.22,4.96-5.22c-3.56,0.04-4.52,2.43-4.52,2.43c-4.04,0.87-8.95-0.7-11.52-5
				c-2.56-4.3-10.04-3.04-17.26-2.04c-5.52,0.77-8.75,5.03-9.96,7c-1.4,0.75-2.37,2.21-2.37,3.91c0,1.39,0.65,2.62,1.65,3.44
				c-2.58,3.44-7.41,8.12-17.65,13.01c-4.41,2.11-9.21,5.81-13.86,10.08c-1.85-0.68-3.36-1.1-4.27-1.1l-65.75,53.57
				c0,0,23.13,13.8,24.35,13.8c1.22,0,4.06-0.81,4.06-0.81s3.65,5.28,6.9,7.31c3.25,2.03,12.58,4.46,35.31-7.31
				c22.73-11.77,30.44-21.1,30.44-21.1s-15.83-20.7-21.1-21.51l15.83-10.15c0,0-14.46-8.06-23.64-11.86
				c1.23-1.29,2.46-2.6,3.56-3.83c4.73-5.27,16.9-10.91,20.18-13.63c1.63-1.35,3.97-3.97,5.92-6.25c0.72,0.5,1.59,0.8,2.54,0.8
				c2.26,0,4.11-1.69,4.4-3.88c0.92-1.05,3.44-3.92,4-3.88c0.61,0.04,6.95,0.91,7.52,1.61c0.56,0.7,3.39,4.96,4.65,5.56
				c1.26,0.61,1.35,0.61,5.52,1.13c4.17,0.52,8.13,3.26,8.13,3.26c-0.35-1.39-5.69-3.35-5.69-3.35c1.04,0.17,5.61,1.52,6.52,1.61
				c0.91,0.09,3.91-0.26,4.69-2.26c0.78-2,1-4.52,1-4.52l-2.58,1.08c0.46-0.2,2.22-1.04,2.67-2.47c0.52-1.65-0.83-3.04-0.83-3.04
				C1487.56,434.22,1485.39,437.61,1485.39,437.61z"/>
			<path class="st2" d="M1675.59,670.36c0,0-63.9-38.65-70.49-38.65l-4.17,17.15c-2.29,0.49-4.83,1.18-6.81,2.06
				c-3.78,1.69-8.39,3.48-12.24,4.71c-0.71-0.81-1.73-1.33-2.89-1.33c-1.87,0-3.42,1.32-3.78,3.08c-1.3-0.34-2.72-1.16-3.94-2.92
				c-3.22-4.67,0.32-11.75,5.79-17.38c0,0,6.76-6.44,8.05-13.2c0,0-7.4,12.07-11.1,15.13c0,0-9.17,8.69-3.54,16.41
				c0,0-8.21-7.24-0.8-24.78c0,0,0.97-11.27,0-13.52c0,0-7.72,5.79-9.82,8.85c0,0,2.57,9.01,1.93,14c0,0-3.06-12.55-3.86-13.04
				c-0.8-0.48-2.25,0.64-2.25,0.64s-1.29,5.63-1.29,6.44c0,0.8,6.12,13.84,8.21,18.18c1.45,3.02,2.21,4.48,3.02,5.04
				c-2.37-0.67-7.44-3.23-11.07-13.25c0,0-3.06-5.79-3.06-11.1c0,0-4.51,3.86-3.54,7.24c0,0,1.45,7.56,5.15,10.94
				c0,0-6.92-6.92-12.23-6.28c0,0,5.95,3.54,9.49,7.24c0,0-9.82-5.15-13.68-4.83l-1.29,2.57c0,0,3.86,1.45,6.76,4.51
				c2.9,3.06,4.99,9.01,10.62,9.49c5.63,0.48,13.2,0.32,17.54-1.93c1.95-1.01,3.83-1.37,5.36-1.77c0.67,1.15,1.9,1.93,3.33,1.93
				c2.13,0,3.86-1.73,3.86-3.86c0-0.77-0.23-1.48-0.62-2.08c2.11-0.74,4.7-1.61,5.77-1.78c1.93-0.32,4.99-1.93,9.82-2.41
				c0.93-0.09,1.72-0.16,2.42-0.2l-2.83,11.65l2.42,1.76c0,0-13.62,13.62-13.83,15.81c-0.22,2.2,1.1,4.39,2.42,4.39
				c1.32,0,22.4,15.81,26.57,18.67c4.17,2.85,18.45,11.2,19.33,11.2c0.88,0,8.12-1.54,8.12-1.54l10.1-16.69
				c0,0,15.15,9.22,16.47,9.66c1.32,0.44,2.42-4.61,2.64-7.25c0.22-2.64,4.61-14.05,5.49-15.37c0.88-1.32,3.73-9.88,3.73-11.2
				C1680.86,671.46,1675.59,670.36,1675.59,670.36z"/>
			<g>
				<path class="st3" d="M791.96,805.31c-0.58-0.85-1.49-1.7-1.49-1.7s-5.84-0.48-7.33-0.9l-0.11,1.65c0,0,0.9,0.37,1.38,0.85
					c0.48,0.48,0.64,0.96,1.01,1.12c0.37,0.16,1.54,0.53,1.97,1.01s0.96,0.53,1.49,0.9c0.53,0.37,3.19,0.64,4.2,0.74
					c1.01,0.11,2.66,0.32,2.66,0.32S792.55,806.16,791.96,805.31z"/>
				<path class="st2" d="M963.51,1120.16c-1.32-11.45-9.25-40.74-9.69-45.58c-0.44-4.84-1.76-23.12-3.08-26.42
					c-1.32-3.3-9.91-15.19-13.43-16.08c-3.52-0.88-9.47-3.52-9.47-3.52s-7.93-6.39-9.47-6.39c-1.54,0-1.98-1.32-1.98-1.32l-0.22-1.1
					l-5.51-3.08c0,0,1.76-2.64,1.98-5.73c0.22-3.08-0.22-4.4-0.22-4.4s2.2-3.08,2.64-4.84c0.44-1.76,0.44-1.76,0.44-1.76
					s6.83-4.18,9.91-10.79c3.08-6.61,4.84-13.87,3.74-19.38c-1.1-5.51-0.88-28.85-3.52-34.79c-2.64-5.95-8.59-15.41-12.77-18.72
					c-4.18-3.3-8.59-7.27-10.13-8.15c-1.54-0.88-6.17-2.2-6.17-2.2c-1.43-0.2-8.92-2.1-13.53-1.82c-4.6,0.29-7.48,3.74-10.07,6.33
					c-2.59,2.59-6.04,4.03-8.34,6.33c-2.3,2.3-4.6,5.46-6.62,8.34c-2.01,2.88-1.73,4.6-2.88,7.48c-1.15,2.88-0.29,9.2-2.01,10.64
					c-1.73,1.44-1.73,2.3-2.59,4.89c-0.86,2.59-0.29,3.45-0.29,6.33c0,2.88,1.44,9.2,1.73,11.79c0.29,2.59,1.44,3.45,1.73,5.47
					c0.29,2.01,2.88,6.62,4.03,9.49c1.15,2.88,0.58,3.45,0.58,5.18c0,1.73,0,12.08,0,12.08l-6.04,5.18c0,0-0.86-2.59-0.86-4.89
					c0-2.3-2.88-10.64-3.45-13.23c-0.58-2.59-1.73-3.74-1.73-6.9c0-3.16,0.86-7.48-0.29-11.51c-1.15-4.03-1.44-4.6-1.15-8.34
					c0.29-3.74-0.58-12.08-0.58-12.08l4.31-5.75c0,0-0.29-4.31-0.29-7.19c0-2.88-4.6-9.49-6.62-11.51
					c-2.01-2.01-6.9-7.77-5.46-10.35c1.44-2.59,3.16-6.62,1.73-13.52c-1.44-6.9-12.66-5.46-16.68-4.89
					c-4.03,0.58-4.6-12.08-4.6-12.08c-2.21-8.99-3.21-17.14-3.66-22.96l-0.5-3.39c0,0-4.83-30.36-5.49-34.55
					c-0.66-4.18-2.2-10.35-3.3-12.33c-1.1-1.98-5.95-5.73-7.49-6.17c-1.54-0.44-7.27-3.96-7.71-5.06c-0.44-1.1-4.62-3.96-4.62-3.96
					s3.3-8.15,0.66-9.91c-1.87-1.25-4.62,2.86-6.39,7.71c-1.76,4.84-1.98,8.15-1.76,10.13c0.22,1.98-0.44,5.95,0.22,9.69
					c0.66,3.74,0.88,6.83,2.64,8.15c1.76,1.32,7.49,5.95,9.47,7.71c1.98,1.76,3.3,4.18,3.3,4.18s1.32,18.72,2.64,29.73
					c1.32,11.01,2.64,31.93,4.62,38.98c1.98,7.05,2.42,8.59,2.42,10.13c0,1.54-2.64,3.08-3.52,5.06
					c-0.88,1.98-31.27,47.56-35.67,58.35c-4.4,10.79-15.41,28.41-16.3,30.39c-0.88,1.98-20.26,8.59-23.78,11.01
					c-3.52,2.42-9.69,24-11.67,25.32c-1.98,1.32,20.92,20.26,27.31,25.1c6.39,4.84,14.53,12.55,18.28,14.09
					c3.74,1.54,2.86,2.42,8.15,4.18c5.28,1.76,9.03,3.3,9.91,5.73c0.88,2.42,3.52,8.81,5.28,11.45c1.43,2.14,0.39,13.71-0.16,21.88
					h184.21C963.63,1121.33,963.58,1120.71,963.51,1120.16z M793.08,808.97c-1.01-0.11-3.67-0.37-4.2-0.74
					c-0.53-0.37-1.06-0.42-1.49-0.9c-0.43-0.48-1.59-0.85-1.97-1.01c-0.37-0.16-0.53-0.64-1.01-1.12c-0.48-0.48-1.38-0.85-1.38-0.85
					l0.11-1.65c1.49,0.42,7.33,0.9,7.33,0.9s0.9,0.85,1.49,1.7c0.58,0.85,3.77,3.98,3.77,3.98S794.09,809.08,793.08,808.97z
					 M900.2,1011.39c-0.36,1.08-0.6,2.52-0.6,2.52s-0.72-0.6-1.8-0.96c-1.08-0.36-2.76-0.24-2.76-0.24s0-1.32-0.24-4.32
					c-0.24-3,1.71-6.12,1.68-5.76c-0.12,1.68,1.44,1.2,2.4,1.56c0.96,0.36,0.6,0.96,0.72,1.92s0.48,1.68,0.72,3.36
					C900.56,1011.14,900.56,1010.3,900.2,1011.39z"/>
			</g>
			<g>
				<path class="st2" d="M726.55,553.71c-2.55-2.25-3.92-3.56-3.92-3.56C723.03,550.83,724.46,552.09,726.55,553.71z"/>
				<path class="st2" d="M842.41,678.24c-0.03-0.02-0.07-0.03-0.11-0.04C842.37,678.22,842.41,678.24,842.41,678.24z"/>
				<path class="st2" d="M840.31,672.44c0.35-5.09-3.04-7.43-4.8-8.6c-1.76-1.17-10.71-7.96-11.41-9.19
					c-0.52-0.9-5.36-3.04-7.96-4.71c0.41-0.92,0.64-1.94,0.64-3.02c0-3.38-2.24-6.23-5.31-7.16c0.01-0.73-0.02-1.5-0.11-2.31
					c-1.09-9.46-9.05-22.14-17.76-28.27c-9.18-6.46-7.85-11.89-7.26-13.35c2.45,1.35,4.95,2.68,7.49,3.98
					c41.33,21.18,63.2,27.09,63.2,27.09l-32.64-15.97l-1.74-11.11l17.02-31.6l-17.02-11.11l-6.95,5.9l0.35-9.03
					c0,0-17.02-15.28-34.73-12.16c0,0-17.36,27.09-16.32,37.51c0,0-27.84-17.43-38.45-25.61c8.39,7.41,29.61,25.12,57.26,40.7
					c-0.76,1.68-2.46,7.84,8.73,15.72c8.81,6.2,15.86,20.31,16.74,27.97c0.05,0.47,0.05,0.91,0.02,1.32c-0.01,0-0.01,0-0.01,0
					c-4.14,0-7.5,3.35-7.5,7.49c0,2.55,1.28,4.8,3.22,6.15c0.4,1.74,1.18,3.69,2.69,5.62c4.39,5.62,12.12,12.47,16.39,17.38
					c4.27,4.92,1.41,8.6,0.12,11.18c0,0,1.93-1.58,2.58-4.51c0.64-2.93-0.35-7.38-0.53-7.38c0,0,3.51,3.92,2.34,9.6
					c-1.17,5.68,0.06,3.69,1.41,6.09c0,0-1.58-3.04-0.7-5.21c0.88-2.17,1.05-7.08,0.12-9.6c-0.94-2.52-2.22-6.15-2.28-6.32
					c-0.06-0.18,8.66,4.57,9.48,10.3c0.82,5.74,2.58,6.38,3.51,7.08c0,0-3.51-8.14-3.45-11.77c0.06-3.63-0.7-5.5-2.87-7.67
					c0,0,4.92,0.88,5.5,5.68c0.55,4.54,2.31,4.42,2.99,4.64C841.84,677.99,840,676.89,840.31,672.44z"/>
			</g>
		</g>
	</g>
</g>
</svg>
